Badami-BoldItalic.ufo
<glyph name="exclam" format="2">
  <advance width="180"/>
  <unicode hex="0021"/>
  <outline>
    <contour>
      <point x="243" y="553" type="line"/>
      <point x="160" y="600" type="line"/>
      <point x="83" y="185" type="line"/>
      <point x="141" y="147" type="line"/>
    </contour>
    <contour>
      <point x="98" y="93" type="curve" smooth="yes"/>
      <point x="59" y="93"/>
      <point x="36" y="69"/>
      <point x="36" y="48" type="curve" smooth="yes"/>
      <point x="36" y="31"/>
      <point x="51" y="16"/>
      <point x="84" y="16" type="curve" smooth="yes"/>
      <point x="124" y="16"/>
      <point x="147" y="39"/>
      <point x="147" y="60" type="curve" smooth="yes"/>
      <point x="147" y="77"/>
      <point x="131" y="93"/>
    </contour>
  </outline>
</glyph>
<glyph name="quotedbl" format="2">
  <advance width="325"/>
  <unicode hex="0022"/>
  <outline>
    <contour>
      <point x="314" y="513" type="line"/>
      <point x="298" y="523" type="line"/>
      <point x="287" y="521"/>
      <point x="230" y="501"/>
      <point x="219" y="495" type="curve"/>
      <point x="220" y="305" type="line"/>
      <point x="231" y="305"/>
      <point x="250" y="308"/>
      <point x="258" y="313" type="curve"/>
    </contour>
    <contour>
      <point x="177" y="513" type="line"/>
      <point x="161" y="523" type="line"/>
      <point x="150" y="521"/>
      <point x="93" y="501"/>
      <point x="82" y="495" type="curve"/>
      <point x="83" y="305" type="line"/>
      <point x="94" y="305"/>
      <point x="113" y="308"/>
      <point x="121" y="313" type="curve"/>
    </contour>
  </outline>
</glyph>
<glyph name="numbersign" format="2">
  <advance width="324"/>
  <unicode hex="0023"/>
  <outline>
    <contour>
      <point x="349" y="331" type="curve"/>
      <point x="343" y="340" type="line"/>
      <point x="85" y="340" type="line"/>
      <point x="81" y="330"/>
      <point x="68" y="308"/>
      <point x="65" y="298" type="curve"/>
      <point x="72" y="289" type="line"/>
      <point x="329" y="289" type="line"/>
      <point x="333" y="297"/>
      <point x="346" y="321"/>
    </contour>
    <contour>
      <point x="333" y="442" type="line"/>
      <point x="325" y="450" type="line"/>
      <point x="315" y="446"/>
      <point x="295" y="443"/>
      <point x="285" y="436" type="curve"/>
      <point x="133" y="51" type="line"/>
      <point x="140" y="44" type="line"/>
      <point x="152" y="48"/>
      <point x="173" y="53"/>
      <point x="182" y="59" type="curve"/>
    </contour>
    <contour>
      <point x="231" y="442" type="line"/>
      <point x="223" y="450" type="line"/>
      <point x="213" y="446"/>
      <point x="193" y="443"/>
      <point x="183" y="436" type="curve"/>
      <point x="31" y="51" type="line"/>
      <point x="38" y="44" type="line"/>
      <point x="50" y="48"/>
      <point x="71" y="53"/>
      <point x="79" y="59" type="curve"/>
    </contour>
    <contour>
      <point x="298" y="201" type="curve"/>
      <point x="292" y="211" type="line"/>
      <point x="35" y="211" type="line"/>
      <point x="29" y="201"/>
      <point x="18" y="178"/>
      <point x="14" y="169" type="curve"/>
      <point x="20" y="160" type="line"/>
      <point x="279" y="160" type="line"/>
      <point x="283" y="168"/>
      <point x="295" y="192"/>
    </contour>
  </outline>
</glyph>
<glyph name="dollar" format="2">
  <advance width="341"/>
  <unicode hex="0024"/>
  <outline>
    <contour>
      <point x="231" y="497" type="line"/>
      <point x="220" y="508" type="line"/>
      <point x="207" y="504"/>
      <point x="201" y="497"/>
      <point x="188" y="489" type="curve"/>
      <point x="111" y="-53" type="line"/>
      <point x="121" y="-64" type="line"/>
      <point x="133" y="-61"/>
      <point x="145" y="-55"/>
      <point x="154" y="-47" type="curve"/>
    </contour>
    <contour>
      <point x="331" y="418" type="curve"/>
      <point x="306" y="435"/>
      <point x="266" y="450"/>
      <point x="225" y="450" type="curve" smooth="yes"/>
      <point x="96" y="450"/>
      <point x="40" y="383"/>
      <point x="40" y="321" type="curve" smooth="yes"/>
      <point x="40" y="270"/>
      <point x="73" y="240"/>
      <point x="135" y="215" type="curve" smooth="yes"/>
      <point x="207" y="186"/>
      <point x="235" y="163"/>
      <point x="235" y="125" type="curve" smooth="yes"/>
      <point x="235" y="73"/>
      <point x="201" y="41"/>
      <point x="144" y="41" type="curve" smooth="yes"/>
      <point x="74" y="41"/>
      <point x="57" y="123"/>
      <point x="43" y="123" type="curve" smooth="yes"/>
      <point x="28" y="123"/>
      <point x="-3" y="63"/>
      <point x="-3" y="47" type="curve" smooth="yes"/>
      <point x="-3" y="22"/>
      <point x="67" y="-11"/>
      <point x="112" y="-11" type="curve" smooth="yes"/>
      <point x="240" y="-11"/>
      <point x="309" y="65"/>
      <point x="309" y="153" type="curve" smooth="yes"/>
      <point x="309" y="213"/>
      <point x="265" y="243"/>
      <point x="188" y="275" type="curve" smooth="yes"/>
      <point x="125" y="301"/>
      <point x="113" y="320"/>
      <point x="113" y="347" type="curve" smooth="yes"/>
      <point x="113" y="378"/>
      <point x="145" y="406"/>
      <point x="189" y="406" type="curve" smooth="yes"/>
      <point x="236" y="406"/>
      <point x="262" y="377"/>
      <point x="272" y="343" type="curve"/>
      <point x="293" y="340" type="line"/>
      <point x="302" y="345"/>
      <point x="337" y="415"/>
    </contour>
  </outline>
</glyph>
<glyph name="percent" format="2">
  <advance width="507"/>
  <unicode hex="0025"/>
  <outline>
    <contour>
      <point x="254" y="361" type="curve"/>
      <point x="254" y="417"/>
      <point x="217" y="453"/>
      <point x="168" y="453" type="curve" smooth="yes"/>
      <point x="80" y="453"/>
      <point x="29" y="369"/>
      <point x="29" y="295" type="curve" smooth="yes"/>
      <point x="29" y="246"/>
      <point x="65" y="203"/>
      <point x="118" y="203" type="curve" smooth="yes"/>
      <point x="205" y="203"/>
      <point x="254" y="287"/>
    </contour>
    <contour>
      <point x="469" y="441" type="line"/>
      <point x="461" y="452" type="line"/>
      <point x="450" y="449"/>
      <point x="420" y="444"/>
      <point x="409" y="439" type="curve"/>
      <point x="38" y="0" type="line"/>
      <point x="45" y="-11" type="line"/>
      <point x="58" y="-8"/>
      <point x="87" y="-3"/>
      <point x="98" y="2" type="curve"/>
    </contour>
    <contour>
      <point x="478" y="146" type="curve"/>
      <point x="478" y="202"/>
      <point x="441" y="238"/>
      <point x="392" y="238" type="curve" smooth="yes"/>
      <point x="304" y="238"/>
      <point x="253" y="154"/>
      <point x="253" y="80" type="curve" smooth="yes"/>
      <point x="253" y="31"/>
      <point x="289" y="-11"/>
      <point x="342" y="-11" type="curve" smooth="yes"/>
      <point x="429" y="-11"/>
      <point x="478" y="72"/>
    </contour>
    <contour>
      <point x="184" y="367" type="curve"/>
      <point x="184" y="316"/>
      <point x="168" y="231"/>
      <point x="131" y="231" type="curve" smooth="yes"/>
      <point x="110" y="231"/>
      <point x="101" y="248"/>
      <point x="101" y="286" type="curve" smooth="yes"/>
      <point x="101" y="323"/>
      <point x="111" y="425"/>
      <point x="155" y="425" type="curve" smooth="yes"/>
      <point x="171" y="425"/>
      <point x="184" y="409"/>
    </contour>
    <contour>
      <point x="408" y="152" type="curve"/>
      <point x="408" y="101"/>
      <point x="392" y="16"/>
      <point x="355" y="16" type="curve" smooth="yes"/>
      <point x="334" y="16"/>
      <point x="325" y="33"/>
      <point x="325" y="71" type="curve" smooth="yes"/>
      <point x="325" y="108"/>
      <point x="335" y="210"/>
      <point x="379" y="210" type="curve" smooth="yes"/>
      <point x="395" y="210"/>
      <point x="408" y="194"/>
    </contour>
  </outline>
</glyph>
<glyph name="ampersand" format="2">
  <advance width="450"/>
  <unicode hex="0026"/>
  <outline>
    <contour>
      <point x="477" y="260" type="curve"/>
      <point x="469" y="276" type="line"/>
      <point x="314" y="276" type="line"/>
      <point x="305" y="272"/>
      <point x="287" y="256"/>
      <point x="282" y="250" type="curve"/>
      <point x="290" y="238" type="line"/>
      <point x="312" y="238"/>
      <point x="331" y="218"/>
      <point x="331" y="186" type="curve" smooth="yes"/>
      <point x="331" y="182"/>
      <point x="331" y="177"/>
      <point x="330" y="173" type="curve" smooth="yes"/>
      <point x="322" y="114"/>
      <point x="250" y="39"/>
      <point x="176" y="39" type="curve" smooth="yes"/>
      <point x="142" y="39"/>
      <point x="106" y="61"/>
      <point x="106" y="113" type="curve" smooth="yes"/>
      <point x="106" y="118"/>
      <point x="107" y="124"/>
      <point x="108" y="130" type="curve" smooth="yes"/>
      <point x="115" y="185"/>
      <point x="142" y="226"/>
      <point x="232" y="282" type="curve" smooth="yes"/>
      <point x="287" y="317"/>
      <point x="344" y="370"/>
      <point x="351" y="419" type="curve" smooth="yes"/>
      <point x="352" y="424"/>
      <point x="352" y="428"/>
      <point x="352" y="433" type="curve" smooth="yes"/>
      <point x="352" y="472"/>
      <point x="328" y="505"/>
      <point x="270" y="505" type="curve" smooth="yes"/>
      <point x="200" y="505"/>
      <point x="135" y="449"/>
      <point x="125" y="374" type="curve" smooth="yes"/>
      <point x="124" y="364"/>
      <point x="123" y="355"/>
      <point x="123" y="345" type="curve" smooth="yes"/>
      <point x="123" y="184"/>
      <point x="292" y="-10"/>
      <point x="330" y="-10" type="curve" smooth="yes"/>
      <point x="340" y="-10"/>
      <point x="390" y="3"/>
      <point x="430" y="20" type="curve"/>
      <point x="428" y="46" type="line"/>
      <point x="422" y="44"/>
      <point x="416" y="44"/>
      <point x="410" y="44" type="curve" smooth="yes"/>
      <point x="393" y="44"/>
      <point x="377" y="50"/>
      <point x="362" y="64" type="curve" smooth="yes"/>
      <point x="298" y="131"/>
      <point x="199" y="268"/>
      <point x="199" y="373" type="curve" smooth="yes"/>
      <point x="199" y="380"/>
      <point x="199" y="387"/>
      <point x="200" y="394" type="curve" smooth="yes"/>
      <point x="206" y="430"/>
      <point x="219" y="460"/>
      <point x="244" y="460" type="curve" smooth="yes"/>
      <point x="262" y="460"/>
      <point x="274" y="446"/>
      <point x="274" y="421" type="curve" smooth="yes"/>
      <point x="274" y="416"/>
      <point x="274" y="412"/>
      <point x="273" y="407" type="curve" smooth="yes"/>
      <point x="269" y="377"/>
      <point x="250" y="339"/>
      <point x="203" y="313" type="curve" smooth="yes"/>
      <point x="88" y="250"/>
      <point x="32" y="186"/>
      <point x="23" y="123" type="curve" smooth="yes"/>
      <point x="22" y="114"/>
      <point x="21" y="106"/>
      <point x="21" y="98" type="curve" smooth="yes"/>
      <point x="21" y="27"/>
      <point x="69" y="-10"/>
      <point x="150" y="-10" type="curve" smooth="yes"/>
      <point x="271" y="-10"/>
      <point x="380" y="106"/>
      <point x="391" y="187" type="curve" smooth="yes"/>
      <point x="392" y="194"/>
      <point x="392" y="200"/>
      <point x="392" y="206" type="curve" smooth="yes"/>
      <point x="392" y="216"/>
      <point x="391" y="225"/>
      <point x="386" y="233" type="curve"/>
      <point x="401" y="232"/>
      <point x="420" y="224"/>
      <point x="435" y="216" type="curve"/>
      <point x="446" y="224"/>
      <point x="465" y="246"/>
    </contour>
  </outline>
</glyph>
<glyph name="quotesingle" format="2">
  <advance width="174"/>
  <unicode hex="0027"/>
  <outline>
    <contour>
      <point x="177" y="513" type="line"/>
      <point x="161" y="523" type="line"/>
      <point x="150" y="521"/>
      <point x="93" y="501"/>
      <point x="82" y="495" type="curve"/>
      <point x="83" y="305" type="line"/>
      <point x="94" y="305"/>
      <point x="113" y="308"/>
      <point x="121" y="313" type="curve"/>
    </contour>
  </outline>
</glyph>
<glyph name="parenleft" format="2">
  <advance width="220"/>
  <unicode hex="0028"/>
  <outline>
    <contour>
      <point x="260" y="533" type="curve"/>
      <point x="247" y="559" type="line"/>
      <point x="139" y="505"/>
      <point x="59" y="378"/>
      <point x="37" y="226" type="curve" smooth="yes"/>
      <point x="16" y="78"/>
      <point x="60" y="-54"/>
      <point x="153" y="-109" type="curve"/>
      <point x="174" y="-83" type="line"/>
      <point x="118" y="-13"/>
      <point x="105" y="101"/>
      <point x="124" y="236" type="curve"/>
      <point x="145" y="386"/>
      <point x="198" y="482"/>
    </contour>
  </outline>
</glyph>
<glyph name="parenright" format="2">
  <advance width="444"/>
  <unicode hex="0029"/>
  <outline>
    <contour>
      <point x="278" y="634" type="curve"/>
      <point x="240" y="602" type="line"/>
      <point x="302" y="544"/>
      <point x="349" y="472"/>
      <point x="349" y="366" type="curve" smooth="yes"/>
      <point x="349" y="335"/>
      <point x="345" y="301"/>
      <point x="337" y="265" type="curve" smooth="yes"/>
      <point x="306" y="122"/>
      <point x="236" y="21"/>
      <point x="98" y="-71" type="curve"/>
      <point x="122" y="-103" type="line"/>
      <point x="203" y="-53"/>
      <point x="267" y="0"/>
      <point x="314" y="56" type="curve" smooth="yes"/>
      <point x="419" y="179"/>
      <point x="428" y="308"/>
      <point x="428" y="350" type="curve" smooth="yes"/>
      <point x="428" y="459"/>
      <point x="379" y="548"/>
    </contour>
  </outline>
</glyph>
<glyph name="asterisk" format="2">
  <advance width="258"/>
  <unicode hex="002A"/>
  <outline>
    <contour>
      <point x="95" y="246" type="line"/>
      <point x="105" y="249"/>
      <point x="140" y="263"/>
      <point x="150" y="268" type="curve"/>
      <point x="147" y="365" type="line"/>
      <point x="214" y="296" type="line"/>
      <point x="233" y="303" type="line"/>
      <point x="237" y="313"/>
      <point x="247" y="351"/>
      <point x="249" y="362" type="curve"/>
      <point x="167" y="396" type="line"/>
      <point x="266" y="433" type="line"/>
      <point x="271" y="452" type="line"/>
      <point x="266" y="460"/>
      <point x="241" y="483"/>
      <point x="234" y="489" type="curve"/>
      <point x="154" y="425" type="line"/>
      <point x="187" y="531" type="line"/>
      <point x="174" y="544" type="line"/>
      <point x="164" y="541"/>
      <point x="129" y="527"/>
      <point x="119" y="522" type="curve"/>
      <point x="122" y="425" type="line"/>
      <point x="55" y="494" type="line"/>
      <point x="37" y="487" type="line"/>
      <point x="33" y="477"/>
      <point x="23" y="439"/>
      <point x="20" y="428" type="curve"/>
      <point x="103" y="394" type="line"/>
      <point x="3" y="357" type="line"/>
      <point x="-2" y="338" type="line"/>
      <point x="3" y="330"/>
      <point x="28" y="307"/>
      <point x="36" y="301" type="curve"/>
      <point x="115" y="365" type="line"/>
      <point x="83" y="259" type="line"/>
    </contour>
  </outline>
</glyph>
<glyph name="plus" format="2">
  <advance width="299"/>
  <unicode hex="002B"/>
  <outline>
    <contour>
      <point x="197" y="327" type="line"/>
      <point x="187" y="338" type="line"/>
      <point x="176" y="336"/>
      <point x="152" y="328"/>
      <point x="143" y="325" type="curve"/>
      <point x="109" y="84" type="line"/>
      <point x="119" y="73" type="line"/>
      <point x="130" y="75"/>
      <point x="153" y="82"/>
      <point x="163" y="87" type="curve"/>
    </contour>
    <contour>
      <point x="281" y="221" type="curve"/>
      <point x="272" y="232" type="line"/>
      <point x="42" y="232" type="line"/>
      <point x="37" y="223"/>
      <point x="25" y="201"/>
      <point x="21" y="191" type="curve"/>
      <point x="30" y="179" type="line"/>
      <point x="260" y="179" type="line"/>
      <point x="265" y="187"/>
      <point x="277" y="210"/>
    </contour>
  </outline>
</glyph>
<glyph name="hyphen" format="2">
  <advance width="399"/>
  <unicode hex="002D"/>
  <outline>
    <contour>
      <point x="386" y="169" type="line"/>
      <point x="348" y="233" type="line"/>
      <point x="99" y="233" type="line"/>
      <point x="137" y="169" type="line"/>
    </contour>
  </outline>
</glyph>
<glyph name="period" format="2">
  <advance width="180"/>
  <unicode hex="002E"/>
  <outline>
    <contour>
      <point x="98" y="93" type="curve" smooth="yes"/>
      <point x="59" y="93"/>
      <point x="36" y="69"/>
      <point x="36" y="48" type="curve" smooth="yes"/>
      <point x="36" y="31"/>
      <point x="51" y="16"/>
      <point x="84" y="16" type="curve" smooth="yes"/>
      <point x="124" y="16"/>
      <point x="147" y="39"/>
      <point x="147" y="60" type="curve" smooth="yes"/>
      <point x="147" y="77"/>
      <point x="131" y="93"/>
    </contour>
  </outline>
</glyph>
<glyph name="zero" format="2">
  <advance width="434"/>
  <unicode hex="0030"/>
  <outline>
    <contour>
      <point x="476" y="311" type="curve" smooth="yes"/>
      <point x="476" y="467"/>
      <point x="376" y="489"/>
      <point x="320" y="489" type="curve" smooth="yes"/>
      <point x="168" y="489"/>
      <point x="63" y="311"/>
      <point x="63" y="162" type="curve" smooth="yes"/>
      <point x="63" y="0"/>
      <point x="181" y="-12"/>
      <point x="215" y="-12" type="curve" smooth="yes"/>
      <point x="370" y="-12"/>
      <point x="476" y="157"/>
    </contour>
    <contour>
      <point x="228" y="37" type="curve" smooth="yes"/>
      <point x="161" y="37"/>
      <point x="151" y="94"/>
      <point x="151" y="138" type="curve" smooth="yes"/>
      <point x="151" y="206"/>
      <point x="176" y="321"/>
      <point x="221" y="389" type="curve" smooth="yes"/>
      <point x="236" y="413"/>
      <point x="272" y="440"/>
      <point x="312" y="440" type="curve" smooth="yes"/>
      <point x="364" y="440"/>
      <point x="390" y="407"/>
      <point x="390" y="340" type="curve" smooth="yes"/>
      <point x="390" y="298"/>
      <point x="363" y="37"/>
    </contour>
  </outline>
</glyph>
<glyph name="one" format="2">
  <advance width="434"/>
  <unicode hex="0031"/>
  <outline>
    <contour>
      <point x="293" y="70" type="curve" smooth="yes"/>
      <point x="293" y="80"/>
      <point x="295" y="94"/>
      <point x="299" y="111" type="curve" smooth="yes"/>
      <point x="376" y="477" type="line"/>
      <point x="341" y="477" type="line"/>
      <point x="202" y="455" type="line"/>
      <point x="194" y="421" type="line"/>
      <point x="215" y="421" type="line" smooth="yes"/>
      <point x="258" y="421"/>
      <point x="271" y="414"/>
      <point x="271" y="393" type="curve" smooth="yes"/>
      <point x="271" y="384"/>
      <point x="269" y="371"/>
      <point x="265" y="355" type="curve" smooth="yes"/>
      <point x="214" y="112" type="line" smooth="yes"/>
      <point x="212" y="104"/>
      <point x="210" y="96"/>
      <point x="208" y="86" type="curve" smooth="yes"/>
      <point x="201" y="47"/>
      <point x="188" y="45"/>
      <point x="112" y="34" type="curve"/>
      <point x="105" y="0" type="line"/>
      <point x="359" y="0" type="line"/>
      <point x="366" y="34" type="line"/>
      <point x="304" y="39"/>
      <point x="293" y="46"/>
    </contour>
  </outline>
</glyph>
<glyph name="three" format="2">
  <advance width="324"/>
  <unicode hex="0033"/>
  <outline>
    <contour>
      <point x="292" y="349" type="curve"/>
      <point x="292" y="391"/>
      <point x="268" y="430"/>
      <point x="193" y="430" type="curve" smooth="yes"/>
      <point x="118" y="430"/>
      <point x="55" y="370"/>
      <point x="49" y="331" type="curve"/>
      <point x="58" y="310" type="line"/>
      <point x="79" y="310"/>
      <point x="114" y="323"/>
      <point x="132" y="334" type="curve"/>
      <point x="130" y="368"/>
      <point x="149" y="390"/>
      <point x="174" y="390" type="curve" smooth="yes"/>
      <point x="198" y="390"/>
      <point x="209" y="373"/>
      <point x="209" y="343" type="curve" smooth="yes"/>
      <point x="209" y="287"/>
      <point x="172" y="254"/>
      <point x="111" y="238" type="curve"/>
      <point x="113" y="206" type="line"/>
      <point x="126" y="209"/>
      <point x="128" y="209"/>
      <point x="139" y="209" type="curve" smooth="yes"/>
      <point x="173" y="209"/>
      <point x="199" y="188"/>
      <point x="199" y="139" type="curve" smooth="yes"/>
      <point x="199" y="79"/>
      <point x="164" y="38"/>
      <point x="116" y="38" type="curve" smooth="yes"/>
      <point x="84" y="38"/>
      <point x="54" y="48"/>
      <point x="19" y="80" type="curve"/>
      <point x="1" y="46" type="line"/>
      <point x="33" y="10"/>
      <point x="82" y="-10"/>
      <point x="115" y="-10" type="curve" smooth="yes"/>
      <point x="208" y="-10"/>
      <point x="283" y="62"/>
      <point x="283" y="149" type="curve" smooth="yes"/>
      <point x="283" y="195"/>
      <point x="259" y="237"/>
      <point x="212" y="243" type="curve"/>
      <point x="257" y="262"/>
      <point x="292" y="298"/>
    </contour>
  </outline>
</glyph>
<glyph name="four" format="2">
  <advance width="434"/>
  <unicode hex="0034"/>
  <outline>
    <contour>
      <point x="469" y="180" type="line"/>
      <point x="362" y="180" type="line"/>
      <point x="425" y="477" type="line"/>
      <point x="347" y="477" type="line"/>
      <point x="195" y="315" type="line"/>
      <point x="44" y="165" type="line"/>
      <point x="51" y="126" type="line"/>
      <point x="270" y="126" type="line"/>
      <point x="254" y="52"/>
      <point x="250" y="35"/>
      <point x="197" y="35" type="curve" smooth="yes"/>
      <point x="181" y="35" type="line"/>
      <point x="174" y="0" type="line"/>
      <point x="394" y="0" type="line"/>
      <point x="401" y="35" type="line"/>
      <point x="381" y="35" type="line" smooth="yes"/>
      <point x="329" y="35"/>
      <point x="335" y="61"/>
      <point x="351" y="126" type="curve"/>
      <point x="437" y="126" type="line"/>
    </contour>
    <contour>
      <point x="281" y="180" type="line"/>
      <point x="119" y="180" type="line"/>
      <point x="188" y="250"/>
      <point x="257" y="321"/>
      <point x="326" y="392" type="curve"/>
    </contour>
  </outline>
</glyph>
<glyph name="six" format="2">
  <advance width="434"/>
  <unicode hex="0036"/>
  <outline>
    <contour>
      <point x="457" y="185" type="curve" smooth="yes"/>
      <point x="457" y="304"/>
      <point x="331" y="309"/>
      <point x="310" y="309" type="curve" smooth="yes"/>
      <point x="238" y="309"/>
      <point x="192" y="277"/>
      <point x="173" y="261" type="curve"/>
      <point x="185" y="308"/>
      <point x="218" y="441"/>
      <point x="338" y="441" type="curve" smooth="yes"/>
      <point x="390" y="441"/>
      <point x="398" y="425"/>
      <point x="395" y="410" type="curve" smooth="yes"/>
      <point x="394" y="402"/>
      <point x="393" y="397"/>
      <point x="393" y="394" type="curve" smooth="yes"/>
      <point x="393" y="352"/>
      <point x="427" y="350"/>
      <point x="434" y="350" type="curve" smooth="yes"/>
      <point x="463" y="350"/>
      <point x="489" y="372"/>
      <point x="489" y="403" type="curve" smooth="yes"/>
      <point x="489" y="436"/>
      <point x="459" y="457"/>
      <point x="449" y="464" type="curve" smooth="yes"/>
      <point x="402" y="487"/>
      <point x="361" y="489"/>
      <point x="350" y="489" type="curve" smooth="yes"/>
      <point x="275" y="489"/>
      <point x="211" y="460"/>
      <point x="157" y="402" type="curve" smooth="yes"/>
      <point x="79" y="320"/>
      <point x="63" y="194"/>
      <point x="63" y="149" type="curve" smooth="yes"/>
      <point x="63" y="2"/>
      <point x="178" y="-12"/>
      <point x="222" y="-12" type="curve" smooth="yes"/>
      <point x="342" y="-12"/>
      <point x="457" y="73"/>
    </contour>
    <contour>
      <point x="231" y="36" type="curve" smooth="yes"/>
      <point x="156" y="36"/>
      <point x="150" y="94"/>
      <point x="150" y="113" type="curve" smooth="yes"/>
      <point x="150" y="158"/>
      <point x="178" y="259"/>
      <point x="286" y="259" type="curve" smooth="yes"/>
      <point x="356" y="259"/>
      <point x="364" y="204"/>
      <point x="364" y="179" type="curve" smooth="yes"/>
      <point x="364" y="128"/>
      <point x="331" y="36"/>
    </contour>
  </outline>
</glyph>
<glyph name="nine" format="2">
  <advance width="324"/>
  <unicode hex="0039"/>
  <outline>
    <contour>
      <point x="316" y="300" type="curve"/>
      <point x="316" y="389"/>
      <point x="269" y="430"/>
      <point x="200" y="430" type="curve" smooth="yes"/>
      <point x="107" y="430"/>
      <point x="34" y="336"/>
      <point x="34" y="252" type="curve" smooth="yes"/>
      <point x="34" y="196"/>
      <point x="65" y="147"/>
      <point x="131" y="147" type="curve" smooth="yes"/>
      <point x="186" y="147"/>
      <point x="230" y="190"/>
      <point x="256" y="231" type="curve"/>
      <point x="257" y="278" type="line"/>
      <point x="235" y="239"/>
      <point x="202" y="198"/>
      <point x="160" y="198" type="curve" smooth="yes"/>
      <point x="140" y="198"/>
      <point x="116" y="215"/>
      <point x="116" y="268" type="curve" smooth="yes"/>
      <point x="116" y="320"/>
      <point x="132" y="386"/>
      <point x="185" y="386" type="curve" smooth="yes"/>
      <point x="211" y="386"/>
      <point x="231" y="366"/>
      <point x="231" y="296" type="curve" smooth="yes"/>
      <point x="231" y="140"/>
      <point x="181" y="51"/>
      <point x="28" y="16" type="curve"/>
      <point x="32" y="-14" type="line"/>
      <point x="219" y="6"/>
      <point x="316" y="141"/>
    </contour>
  </outline>
</glyph>
<glyph name="semicolon" format="2">
  <advance width="166"/>
  <unicode hex="003B"/>
  <outline>
    <contour>
      <point x="15" y="-129" type="line"/>
      <point x="64" y="-100"/>
      <point x="130" y="-16"/>
      <point x="130" y="40" type="curve"/>
      <point x="130" y="69"/>
      <point x="122" y="81"/>
      <point x="106" y="90" type="curve"/>
      <point x="85" y="90"/>
      <point x="23" y="66"/>
      <point x="8" y="52" type="curve"/>
      <point x="10" y="25" type="line"/>
      <point x="37" y="28"/>
      <point x="49" y="9"/>
      <point x="49" y="-7" type="curve" smooth="yes"/>
      <point x="49" y="-35"/>
      <point x="31" y="-74"/>
      <point x="-4" y="-112" type="curve"/>
    </contour>
    <contour>
      <point x="90" y="229" type="curve" smooth="yes"/>
      <point x="132" y="229"/>
      <point x="155" y="266"/>
      <point x="155" y="297" type="curve"/>
      <point x="155" y="319"/>
      <point x="141" y="335"/>
      <point x="113" y="335" type="curve" smooth="yes"/>
      <point x="73" y="335"/>
      <point x="48" y="298"/>
      <point x="48" y="268" type="curve" smooth="yes"/>
      <point x="48" y="245"/>
      <point x="61" y="229"/>
    </contour>
  </outline>
</glyph>
<glyph name="less" format="2">
  <advance width="308"/>
  <unicode hex="003C"/>
  <outline>
    <contour>
      <point x="232" y="84" type="line"/>
      <point x="246" y="92"/>
      <point x="259" y="106"/>
      <point x="269" y="115" type="curve"/>
      <point x="264" y="130" type="line"/>
      <point x="103" y="198" type="line"/>
      <point x="279" y="264" type="line"/>
      <point x="283" y="273"/>
      <point x="293" y="299"/>
      <point x="296" y="309" type="curve"/>
      <point x="287" y="320" type="line"/>
      <point x="37" y="225" type="line"/>
      <point x="32" y="215"/>
      <point x="24" y="195"/>
      <point x="20" y="183" type="curve"/>
      <point x="28" y="169" type="line"/>
    </contour>
  </outline>
</glyph>
<glyph name="equal" format="2">
  <advance width="324"/>
  <unicode hex="003D"/>
  <outline>
    <contour>
      <point x="292" y="166" type="curve"/>
      <point x="283" y="177" type="line"/>
      <point x="36" y="177" type="line"/>
      <point x="31" y="168"/>
      <point x="19" y="146"/>
      <point x="15" y="136" type="curve"/>
      <point x="24" y="124" type="line"/>
      <point x="271" y="124" type="line"/>
      <point x="275" y="132"/>
      <point x="288" y="155"/>
    </contour>
    <contour>
      <point x="307" y="275" type="curve"/>
      <point x="298" y="287" type="line"/>
      <point x="51" y="287" type="line"/>
      <point x="46" y="277"/>
      <point x="34" y="256"/>
      <point x="30" y="245" type="curve"/>
      <point x="39" y="234" type="line"/>
      <point x="286" y="234" type="line"/>
      <point x="290" y="242"/>
      <point x="303" y="265"/>
    </contour>
  </outline>
</glyph>
<glyph name="greater" format="2">
  <advance width="324"/>
  <unicode hex="003E"/>
  <outline>
    <contour>
      <point x="290" y="247" type="line"/>
      <point x="77" y="336" type="line"/>
      <point x="62" y="327"/>
      <point x="48" y="313"/>
      <point x="37" y="303" type="curve"/>
      <point x="43" y="287" type="line"/>
      <point x="212" y="217" type="line"/>
      <point x="27" y="147" type="line"/>
      <point x="23" y="138"/>
      <point x="13" y="110"/>
      <point x="9" y="100" type="curve"/>
      <point x="18" y="88" type="line"/>
      <point x="281" y="188" type="line"/>
      <point x="287" y="199"/>
      <point x="295" y="219"/>
      <point x="300" y="232" type="curve"/>
    </contour>
  </outline>
</glyph>
<glyph name="question" format="2">
  <advance width="306"/>
  <unicode hex="003F"/>
  <outline>
    <contour>
      <point x="310" y="413" type="curve"/>
      <point x="310" y="460"/>
      <point x="275" y="498"/>
      <point x="211" y="498" type="curve" smooth="yes"/>
      <point x="115" y="498"/>
      <point x="51" y="431"/>
      <point x="51" y="372" type="curve"/>
      <point x="60" y="358" type="line"/>
      <point x="81" y="360"/>
      <point x="120" y="370"/>
      <point x="140" y="380" type="curve"/>
      <point x="138" y="388"/>
      <point x="138" y="396"/>
      <point x="138" y="403" type="curve" smooth="yes"/>
      <point x="138" y="436"/>
      <point x="153" y="460"/>
      <point x="178" y="460" type="curve" smooth="yes"/>
      <point x="208" y="460"/>
      <point x="223" y="431"/>
      <point x="223" y="393" type="curve" smooth="yes"/>
      <point x="223" y="311"/>
      <point x="122" y="265"/>
      <point x="118" y="177" type="curve" smooth="yes"/>
      <point x="116" y="133" type="line"/>
      <point x="124" y="126" type="line"/>
      <point x="136" y="130"/>
      <point x="152" y="137"/>
      <point x="161" y="143" type="curve"/>
      <point x="165" y="174" type="line" smooth="yes"/>
      <point x="176" y="264"/>
      <point x="310" y="296"/>
    </contour>
    <contour>
      <point x="180" y="58" type="curve"/>
      <point x="180" y="80"/>
      <point x="166" y="96"/>
      <point x="138" y="96" type="curve" smooth="yes"/>
      <point x="98" y="96"/>
      <point x="73" y="58"/>
      <point x="73" y="28" type="curve" smooth="yes"/>
      <point x="73" y="5"/>
      <point x="87" y="-10"/>
      <point x="115" y="-10" type="curve" smooth="yes"/>
      <point x="157" y="-10"/>
      <point x="180" y="27"/>
    </contour>
  </outline>
</glyph>
<glyph name="at" format="2">
  <advance width="620"/>
  <unicode hex="0040"/>
  <outline>
    <contour>
      <point x="593" y="201" type="curve"/>
      <point x="619" y="384"/>
      <point x="511" y="488"/>
      <point x="373" y="488" type="curve" smooth="yes"/>
      <point x="193" y="488"/>
      <point x="47" y="335"/>
      <point x="23" y="170" type="curve" smooth="yes"/>
      <point x="-2" y="-17"/>
      <point x="121" y="-137"/>
      <point x="289" y="-137" type="curve" smooth="yes"/>
      <point x="397" y="-137"/>
      <point x="482" y="-78"/>
      <point x="519" y="-41" type="curve"/>
      <point x="508" y="-8" type="line"/>
      <point x="477" y="-32"/>
      <point x="396" y="-80"/>
      <point x="318" y="-80" type="curve" smooth="yes"/>
      <point x="199" y="-80"/>
      <point x="86" y="7"/>
      <point x="110" y="184" type="curve" smooth="yes"/>
      <point x="129" y="316"/>
      <point x="223" y="433"/>
      <point x="345" y="433" type="curve" smooth="yes"/>
      <point x="453" y="433"/>
      <point x="541" y="351"/>
      <point x="516" y="186" type="curve" smooth="yes"/>
      <point x="504" y="103"/>
      <point x="475" y="59"/>
      <point x="450" y="59" type="curve" smooth="yes"/>
      <point x="439" y="59"/>
      <point x="430" y="73"/>
      <point x="430" y="110" type="curve" smooth="yes"/>
      <point x="430" y="132"/>
      <point x="438" y="197"/>
      <point x="453" y="267" type="curve" smooth="yes"/>
      <point x="459" y="300"/>
      <point x="465" y="305"/>
      <point x="481" y="318" type="curve"/>
      <point x="470" y="342" type="line"/>
      <point x="437" y="327"/>
      <point x="376" y="304"/>
      <point x="371" y="281" type="curve" smooth="yes"/>
      <point x="366" y="253"/>
      <point x="344" y="131"/>
      <point x="344" y="102" type="curve" smooth="yes"/>
      <point x="344" y="5"/>
      <point x="377" y="-15"/>
      <point x="394" y="-15" type="curve" smooth="yes"/>
      <point x="452" y="-15"/>
      <point x="575" y="74"/>
    </contour>
    <contour>
      <point x="452" y="309" type="curve"/>
      <point x="434" y="311"/>
      <point x="403" y="342"/>
      <point x="370" y="342" type="curve" smooth="yes"/>
      <point x="339" y="342"/>
      <point x="292" y="326"/>
      <point x="266" y="308" type="curve" smooth="yes"/>
      <point x="197" y="261"/>
      <point x="160" y="188"/>
      <point x="160" y="111" type="curve" smooth="yes"/>
      <point x="160" y="20"/>
      <point x="210" y="-15"/>
      <point x="243" y="-15" type="curve" smooth="yes"/>
      <point x="280" y="-15"/>
      <point x="326" y="33"/>
      <point x="351" y="77" type="curve"/>
      <point x="357" y="148" type="line"/>
      <point x="322" y="88"/>
      <point x="292" y="57"/>
      <point x="275" y="57" type="curve" smooth="yes"/>
      <point x="260" y="57"/>
      <point x="243" y="84"/>
      <point x="243" y="138" type="curve" smooth="yes"/>
      <point x="243" y="196"/>
      <point x="271" y="290"/>
      <point x="329" y="290" type="curve" smooth="yes"/>
      <point x="364" y="290"/>
      <point x="398" y="233"/>
      <point x="412" y="233" type="curve" smooth="yes"/>
      <point x="424" y="233"/>
      <point x="431" y="295"/>
    </contour>
  </outline>
</glyph>
<glyph name="A" format="2">
  <advance width="437"/>
  <unicode hex="0041"/>
  <anchor x="197" y="0" name="H"/>
  <anchor x="260" y="483" name="U"/>
  <outline>
    <contour>
      <point x="155" y="201" type="line"/>
      <point x="230" y="374" type="line"/>
      <point x="263" y="201" type="line"/>
    </contour>
    <contour>
      <point x="271" y="157" type="line"/>
      <point x="291" y="51" type="line" smooth="yes"/>
      <point x="294" y="35"/>
      <point x="281" y="28"/>
      <point x="246" y="26" type="curve"/>
      <point x="242" y="0" type="line"/>
      <point x="411" y="0" type="line"/>
      <point x="415" y="26" type="line"/>
      <point x="385" y="30"/>
      <point x="378" y="38"/>
      <point x="376" y="51" type="curve" smooth="yes"/>
      <point x="293" y="482" type="line"/>
      <point x="268" y="474"/>
      <point x="235" y="460"/>
      <point x="210" y="441" type="curve"/>
      <point x="39" y="51" type="line" smooth="yes"/>
      <point x="33" y="37"/>
      <point x="16" y="32"/>
      <point x="-14" y="26" type="curve"/>
      <point x="-18" y="0" type="line"/>
      <point x="129" y="0" type="line"/>
      <point x="133" y="26" type="line"/>
      <point x="96" y="31"/>
      <point x="82" y="36"/>
      <point x="89" y="51" type="curve" smooth="yes"/>
      <point x="135" y="157" type="line"/>
    </contour>
  </outline>
</glyph>
<glyph name="B" format="2">
  <advance width="379"/>
  <unicode hex="0042"/>
  <outline>
    <contour>
      <point x="357" y="142" type="curve"/>
      <point x="357" y="198"/>
      <point x="320" y="244"/>
      <point x="267" y="252" type="curve"/>
      <point x="324" y="272"/>
      <point x="355" y="314"/>
      <point x="355" y="362" type="curve" smooth="yes"/>
      <point x="355" y="417"/>
      <point x="307" y="449"/>
      <point x="212" y="449" type="curve" smooth="yes"/>
      <point x="147" y="449"/>
      <point x="89" y="440"/>
      <point x="46" y="427" type="curve"/>
      <point x="46" y="398" type="line"/>
      <point x="82" y="406"/>
      <point x="122" y="412"/>
      <point x="197" y="412" type="curve" smooth="yes"/>
      <point x="229" y="412"/>
      <point x="269" y="395"/>
      <point x="269" y="344" type="curve" smooth="yes"/>
      <point x="269" y="281"/>
      <point x="217" y="258"/>
      <point x="168" y="258" type="curve" smooth="yes"/>
      <point x="136" y="258" type="line"/>
      <point x="136" y="213" type="line"/>
      <point x="151" y="218"/>
      <point x="163" y="221"/>
      <point x="191" y="221" type="curve" smooth="yes"/>
      <point x="251" y="221"/>
      <point x="271" y="177"/>
      <point x="271" y="130" type="curve" smooth="yes"/>
      <point x="271" y="74"/>
      <point x="241" y="28"/>
      <point x="185" y="28" type="curve" smooth="yes"/>
      <point x="163" y="28"/>
      <point x="140" y="32"/>
      <point x="123" y="44" type="curve"/>
      <point x="18" y="0" type="line"/>
      <point x="58" y="-3"/>
      <point x="137" y="-10"/>
      <point x="171" y="-10" type="curve"/>
      <point x="274" y="-10"/>
      <point x="357" y="52"/>
    </contour>
    <contour>
      <point x="181" y="434" type="line"/>
      <point x="100" y="434" type="line"/>
      <point x="46" y="46" type="line" smooth="yes"/>
      <point x="45" y="40"/>
      <point x="29" y="31"/>
      <point x="0" y="25" type="curve"/>
      <point x="-2" y="0" type="line"/>
      <point x="168" y="0" type="line"/>
      <point x="170" y="25" type="line"/>
      <point x="140" y="31"/>
      <point x="126" y="40"/>
      <point x="127" y="46" type="curve" smooth="yes"/>
    </contour>
  </outline>
</glyph>
<glyph name="C" format="2">
  <advance width="380"/>
  <unicode hex="0043"/>
  <anchor x="178" y="0" name="H"/>
  <anchor x="256" y="483" name="U"/>
  <outline>
    <contour>
      <point x="394" y="435" type="curve" smooth="yes"/>
      <point x="372" y="455"/>
      <point x="324" y="472"/>
      <point x="276" y="472" type="curve" smooth="yes"/>
      <point x="230" y="472"/>
      <point x="178" y="455"/>
      <point x="142" y="427" type="curve" smooth="yes"/>
      <point x="60" y="362"/>
      <point x="22" y="260"/>
      <point x="22" y="168" type="curve" smooth="yes"/>
      <point x="22" y="54"/>
      <point x="91" y="-9"/>
      <point x="175" y="-9" type="curve" smooth="yes"/>
      <point x="221" y="-9"/>
      <point x="283" y="11"/>
      <point x="350" y="77" type="curve"/>
      <point x="349" y="83"/>
      <point x="341" y="98"/>
      <point x="337" y="101" type="curve"/>
      <point x="277" y="58"/>
      <point x="240" y="48"/>
      <point x="215" y="48" type="curve" smooth="yes"/>
      <point x="171" y="48"/>
      <point x="110" y="82"/>
      <point x="110" y="188" type="curve" smooth="yes"/>
      <point x="110" y="250"/>
      <point x="129" y="354"/>
      <point x="190" y="402" type="curve" smooth="yes"/>
      <point x="210" y="417"/>
      <point x="227" y="422"/>
      <point x="247" y="422" type="curve" smooth="yes"/>
      <point x="287" y="422"/>
      <point x="312" y="393"/>
      <point x="325" y="362" type="curve"/>
      <point x="347" y="356" type="line"/>
      <point x="360" y="367"/>
      <point x="398" y="431"/>
    </contour>
  </outline>
</glyph>
<glyph name="D" format="2">
  <advance width="421"/>
  <unicode hex="0044"/>
  <anchor x="244" y="460" name="U"/>
  <outline>
    <contour>
      <point x="412" y="262" type="curve" smooth="yes"/>
      <point x="412" y="377"/>
      <point x="349" y="449"/>
      <point x="214" y="449" type="curve" smooth="yes"/>
      <point x="167" y="449"/>
      <point x="100" y="442"/>
      <point x="47" y="429" type="curve"/>
      <point x="47" y="397" type="line"/>
      <point x="96" y="404" type="line"/>
      <point x="47" y="46" type="line" smooth="yes"/>
      <point x="46" y="40"/>
      <point x="29" y="31"/>
      <point x="0" y="25" type="curve"/>
      <point x="-2" y="0" type="line"/>
      <point x="178" y="0" type="line" smooth="yes"/>
      <point x="322" y="0"/>
      <point x="412" y="139"/>
    </contour>
    <contour>
      <point x="199" y="412" type="curve" smooth="yes"/>
      <point x="288" y="412"/>
      <point x="324" y="352"/>
      <point x="324" y="253" type="curve" smooth="yes"/>
      <point x="324" y="155"/>
      <point x="270" y="37"/>
      <point x="174" y="37" type="curve" smooth="yes"/>
      <point x="139" y="37"/>
      <point x="128" y="42"/>
      <point x="130" y="56" type="curve" smooth="yes"/>
      <point x="178" y="411" type="line"/>
      <point x="185" y="411"/>
      <point x="192" y="412"/>
    </contour>
  </outline>
</glyph>
<glyph name="E" format="2">
  <advance width="369"/>
  <unicode hex="0045"/>
  <anchor x="163" y="0" name="H"/>
  <anchor x="226" y="483" name="U"/>
  <outline>
    <contour>
      <point x="371" y="449" type="curve"/>
      <point x="359" y="461" type="line"/>
      <point x="184" y="461" type="line"/>
      <point x="168" y="417" type="line"/>
      <point x="299" y="417" type="line" smooth="yes"/>
      <point x="316" y="417"/>
      <point x="322" y="392"/>
      <point x="318" y="347" type="curve"/>
      <point x="343" y="347" type="line"/>
      <point x="351" y="366"/>
      <point x="366" y="424"/>
    </contour>
    <contour>
      <point x="310" y="256" type="curve"/>
      <point x="300" y="269" type="line"/>
      <point x="150" y="269" type="line"/>
      <point x="138" y="228" type="line"/>
      <point x="202" y="228" type="line" smooth="yes"/>
      <point x="244" y="228"/>
      <point x="259" y="223"/>
      <point x="272" y="208" type="curve"/>
      <point x="283" y="216"/>
      <point x="301" y="242"/>
    </contour>
    <contour>
      <point x="346" y="111" type="curve"/>
      <point x="323" y="120" type="line"/>
      <point x="295" y="63"/>
      <point x="279" y="43"/>
      <point x="237" y="43" type="curve" smooth="yes"/>
      <point x="203" y="43" type="line" smooth="yes"/>
      <point x="144" y="43"/>
      <point x="135" y="53"/>
      <point x="137" y="67" type="curve" smooth="yes"/>
      <point x="185" y="419" type="line" smooth="yes"/>
      <point x="187" y="426"/>
      <point x="205" y="431"/>
      <point x="237" y="434" type="curve"/>
      <point x="241" y="461" type="line"/>
      <point x="60" y="461" type="line"/>
      <point x="56" y="434" type="line"/>
      <point x="88" y="427"/>
      <point x="101" y="417"/>
      <point x="100" y="411" type="curve" smooth="yes"/>
      <point x="50" y="49" type="line" smooth="yes"/>
      <point x="49" y="42"/>
      <point x="32" y="33"/>
      <point x="0" y="26" type="curve"/>
      <point x="-2" y="0" type="line"/>
      <point x="317" y="0" type="line"/>
      <point x="323" y="14"/>
      <point x="337" y="69"/>
    </contour>
  </outline>
</glyph>
<glyph name="F" format="2">
  <advance width="332"/>
  <unicode hex="0046"/>
  <outline>
    <contour>
      <point x="356" y="428" type="curve"/>
      <point x="345" y="439" type="line"/>
      <point x="175" y="439" type="line"/>
      <point x="160" y="397" type="line"/>
      <point x="287" y="397" type="line" smooth="yes"/>
      <point x="304" y="397"/>
      <point x="309" y="374"/>
      <point x="305" y="331" type="curve"/>
      <point x="330" y="331" type="line"/>
      <point x="338" y="349"/>
      <point x="352" y="404"/>
    </contour>
    <contour>
      <point x="284" y="243" type="curve"/>
      <point x="274" y="256" type="line"/>
      <point x="136" y="256" type="line"/>
      <point x="94" y="217" type="line"/>
      <point x="185" y="217" type="line" smooth="yes"/>
      <point x="220" y="217"/>
      <point x="236" y="212"/>
      <point x="248" y="198" type="curve"/>
      <point x="258" y="206"/>
      <point x="274" y="228"/>
    </contour>
    <contour>
      <point x="229" y="439" type="line"/>
      <point x="57" y="439" type="line"/>
      <point x="54" y="413" type="line"/>
      <point x="84" y="407"/>
      <point x="96" y="397"/>
      <point x="95" y="392" type="curve" smooth="yes"/>
      <point x="48" y="46" type="line" smooth="yes"/>
      <point x="47" y="40"/>
      <point x="30" y="31"/>
      <point x="0" y="25" type="curve"/>
      <point x="-2" y="0" type="line"/>
      <point x="176" y="0" type="line"/>
      <point x="180" y="25" type="line"/>
      <point x="138" y="34"/>
      <point x="127" y="41"/>
      <point x="128" y="46" type="curve" smooth="yes"/>
      <point x="177" y="399" type="line" smooth="yes"/>
      <point x="177" y="406"/>
      <point x="196" y="410"/>
      <point x="226" y="413" type="curve"/>
    </contour>
  </outline>
</glyph>
<glyph name="G" format="2">
  <advance width="410"/>
  <unicode hex="0047"/>
  <anchor x="198" y="0" name="H"/>
  <anchor x="269" y="483" name="U"/>
  <outline>
    <contour>
      <point x="412" y="226" type="line"/>
      <point x="215" y="226" type="line"/>
      <point x="213" y="200" type="line"/>
      <point x="287" y="188"/>
      <point x="291" y="180"/>
      <point x="290" y="170" type="curve" smooth="yes"/>
      <point x="274" y="62" type="line"/>
      <point x="257" y="50"/>
      <point x="237" y="46"/>
      <point x="220" y="46" type="curve" smooth="yes"/>
      <point x="169" y="46"/>
      <point x="109" y="90"/>
      <point x="109" y="194" type="curve" smooth="yes"/>
      <point x="109" y="262"/>
      <point x="138" y="354"/>
      <point x="177" y="390" type="curve" smooth="yes"/>
      <point x="201" y="414"/>
      <point x="226" y="426"/>
      <point x="247" y="426" type="curve" smooth="yes"/>
      <point x="296" y="426"/>
      <point x="322" y="397"/>
      <point x="339" y="361" type="curve"/>
      <point x="360" y="356" type="line"/>
      <point x="374" y="367"/>
      <point x="414" y="429"/>
      <point x="408" y="435" type="curve"/>
      <point x="383" y="458"/>
      <point x="327" y="472"/>
      <point x="293" y="472" type="curve" smooth="yes"/>
      <point x="222" y="472"/>
      <point x="172" y="450"/>
      <point x="131" y="415" type="curve" smooth="yes"/>
      <point x="66" y="361"/>
      <point x="22" y="271"/>
      <point x="22" y="178" type="curve" smooth="yes"/>
      <point x="22" y="61"/>
      <point x="102" y="-11"/>
      <point x="192" y="-11" type="curve" smooth="yes"/>
      <point x="231" y="-11"/>
      <point x="283" y="2"/>
      <point x="357" y="61" type="curve"/>
      <point x="359" y="80"/>
      <point x="367" y="144"/>
      <point x="371" y="170" type="curve" smooth="yes"/>
      <point x="372" y="181"/>
      <point x="383" y="192"/>
      <point x="409" y="200" type="curve"/>
    </contour>
  </outline>
</glyph>
<glyph name="H" format="2">
  <advance width="478"/>
  <unicode hex="0048"/>
  <anchor x="87" y="0" name="H"/>
  <anchor x="284" y="483" name="U"/>
  <outline>
    <contour>
      <point x="499" y="461" type="line"/>
      <point x="320" y="461" type="line"/>
      <point x="317" y="434" type="line"/>
      <point x="349" y="427"/>
      <point x="361" y="417"/>
      <point x="360" y="411" type="curve" smooth="yes"/>
      <point x="311" y="49" type="line" smooth="yes"/>
      <point x="310" y="42"/>
      <point x="292" y="33"/>
      <point x="261" y="26" type="curve"/>
      <point x="257" y="0" type="line"/>
      <point x="436" y="0" type="line"/>
      <point x="439" y="26" type="line"/>
      <point x="407" y="33"/>
      <point x="395" y="43"/>
      <point x="395" y="49" type="curve" smooth="yes"/>
      <point x="445" y="411" type="line" smooth="yes"/>
      <point x="446" y="418"/>
      <point x="464" y="427"/>
      <point x="495" y="434" type="curve"/>
    </contour>
    <contour>
      <point x="347" y="263" type="line"/>
      <point x="154" y="263" type="line"/>
      <point x="148" y="219" type="line"/>
      <point x="341" y="219" type="line"/>
    </contour>
    <contour>
      <point x="238" y="461" type="line"/>
      <point x="60" y="461" type="line"/>
      <point x="56" y="434" type="line"/>
      <point x="88" y="427"/>
      <point x="100" y="417"/>
      <point x="100" y="411" type="curve" smooth="yes"/>
      <point x="50" y="49" type="line" smooth="yes"/>
      <point x="49" y="42"/>
      <point x="31" y="33"/>
      <point x="0" y="26" type="curve"/>
      <point x="-3" y="0" type="line"/>
      <point x="175" y="0" type="line"/>
      <point x="178" y="26" type="line"/>
      <point x="146" y="33"/>
      <point x="134" y="43"/>
      <point x="135" y="49" type="curve"/>
      <point x="184" y="411" type="line"/>
      <point x="185" y="418"/>
      <point x="203" y="427"/>
      <point x="234" y="434" type="curve"/>
    </contour>
  </outline>
</glyph>
<glyph name="I" format="2">
  <advance width="231"/>
  <unicode hex="0049"/>
  <anchor x="94" y="0" name="H"/>
  <anchor x="156" y="483" name="U"/>
  <outline>
    <contour>
      <point x="245" y="461" type="line"/>
      <point x="67" y="461" type="line"/>
      <point x="64" y="434" type="line"/>
      <point x="95" y="427"/>
      <point x="108" y="417"/>
      <point x="107" y="411" type="curve" smooth="yes"/>
      <point x="57" y="49" type="line" smooth="yes"/>
      <point x="56" y="42"/>
      <point x="39" y="33"/>
      <point x="8" y="26" type="curve"/>
      <point x="4" y="0" type="line"/>
      <point x="182" y="0" type="line"/>
      <point x="186" y="26" type="line"/>
      <point x="154" y="33"/>
      <point x="141" y="43"/>
      <point x="142" y="49" type="curve" smooth="yes"/>
      <point x="192" y="411" type="line" smooth="yes"/>
      <point x="193" y="418"/>
      <point x="210" y="427"/>
      <point x="242" y="434" type="curve"/>
    </contour>
  </outline>
</glyph>
<glyph name="J" format="2">
  <advance width="233"/>
  <unicode hex="004A"/>
  <anchor x="168" y="483" name="U"/>
  <outline>
    <contour>
      <point x="255" y="461" type="line"/>
      <point x="59" y="461" type="line"/>
      <point x="55" y="434" type="line"/>
      <point x="108" y="426"/>
      <point x="117" y="417"/>
      <point x="116" y="411" type="curve" smooth="yes"/>
      <point x="66" y="48" type="line" smooth="yes"/>
      <point x="50" y="-65"/>
      <point x="22" y="-83"/>
      <point x="0" y="-83" type="curve" smooth="yes"/>
      <point x="-30" y="-83"/>
      <point x="-51" y="-51"/>
      <point x="-60" y="-51" type="curve" smooth="yes"/>
      <point x="-72" y="-51"/>
      <point x="-124" y="-99"/>
      <point x="-124" y="-110" type="curve" smooth="yes"/>
      <point x="-124" y="-121"/>
      <point x="-87" y="-145"/>
      <point x="-51" y="-145" type="curve" smooth="yes"/>
      <point x="-21" y="-145"/>
      <point x="23" y="-126"/>
      <point x="50" y="-105" type="curve" smooth="yes"/>
      <point x="90" y="-74"/>
      <point x="140" y="-34"/>
      <point x="155" y="75" type="curve" smooth="yes"/>
      <point x="200" y="411" type="line" smooth="yes"/>
      <point x="201" y="418"/>
      <point x="220" y="427"/>
      <point x="250" y="434" type="curve"/>
    </contour>
  </outline>
</glyph>
<glyph name="K" format="2">
  <advance width="441"/>
  <unicode hex="004B"/>
  <anchor x="86" y="0" name="H"/>
  <anchor x="271" y="483" name="U"/>
  <outline>
    <contour>
      <point x="454" y="461" type="line"/>
      <point x="302" y="461" type="line"/>
      <point x="298" y="434" type="line"/>
      <point x="333" y="431"/>
      <point x="335" y="428"/>
      <point x="311" y="402" type="curve"/>
      <point x="155" y="235" type="line"/>
      <point x="213" y="235" type="line"/>
      <point x="395" y="411" type="line" smooth="yes"/>
      <point x="411" y="428"/>
      <point x="421" y="430"/>
      <point x="451" y="434" type="curve"/>
    </contour>
    <contour>
      <point x="434" y="46" type="curve"/>
      <point x="424" y="72" type="line"/>
      <point x="397" y="60"/>
      <point x="368" y="57"/>
      <point x="355" y="74" type="curve"/>
      <point x="213" y="264" type="line"/>
      <point x="155" y="235" type="line"/>
      <point x="290" y="12" type="line" smooth="yes"/>
      <point x="299" y="-1"/>
      <point x="308" y="-5"/>
      <point x="322" y="-5" type="curve" smooth="yes"/>
      <point x="343" y="-5"/>
      <point x="404" y="20"/>
    </contour>
    <contour>
      <point x="238" y="461" type="line"/>
      <point x="60" y="461" type="line"/>
      <point x="56" y="434" type="line"/>
      <point x="88" y="427"/>
      <point x="101" y="417"/>
      <point x="100" y="411" type="curve" smooth="yes"/>
      <point x="50" y="49" type="line" smooth="yes"/>
      <point x="49" y="42"/>
      <point x="32" y="33"/>
      <point x="0" y="26" type="curve"/>
      <point x="-2" y="0" type="line"/>
      <point x="175" y="0" type="line"/>
      <point x="178" y="26" type="line"/>
      <point x="146" y="33"/>
      <point x="134" y="43"/>
      <point x="135" y="49" type="curve"/>
      <point x="184" y="411" type="line"/>
      <point x="186" y="418"/>
      <point x="203" y="427"/>
      <point x="235" y="434" type="curve"/>
    </contour>
  </outline>
</glyph>
<glyph name="L" format="2">
  <advance width="363"/>
  <unicode hex="004C"/>
  <anchor x="169" y="0" name="H"/>
  <anchor x="216" y="483" name="U"/>
  <outline>
    <contour>
      <point x="343" y="111" type="curve"/>
      <point x="319" y="120" type="line"/>
      <point x="292" y="63"/>
      <point x="277" y="43"/>
      <point x="235" y="43" type="curve" smooth="yes"/>
      <point x="197" y="43" type="line" smooth="yes"/>
      <point x="148" y="43"/>
      <point x="135" y="52"/>
      <point x="138" y="70" type="curve" smooth="yes"/>
      <point x="184" y="411" type="line"/>
      <point x="186" y="418"/>
      <point x="203" y="427"/>
      <point x="235" y="434" type="curve"/>
      <point x="238" y="461" type="line"/>
      <point x="60" y="461" type="line"/>
      <point x="56" y="434" type="line"/>
      <point x="88" y="427"/>
      <point x="101" y="417"/>
      <point x="100" y="411" type="curve" smooth="yes"/>
      <point x="50" y="49" type="line" smooth="yes"/>
      <point x="49" y="42"/>
      <point x="32" y="33"/>
      <point x="0" y="26" type="curve"/>
      <point x="-2" y="0" type="line"/>
      <point x="314" y="0" type="line"/>
      <point x="319" y="14"/>
      <point x="334" y="69"/>
    </contour>
  </outline>
</glyph>
<glyph name="M" format="2">
  <advance width="588"/>
  <unicode hex="004D"/>
  <anchor x="460" y="0" name="H"/>
  <anchor x="340" y="483" name="U"/>
  <outline>
    <contour>
      <point x="552" y="26" type="line"/>
      <point x="520" y="33"/>
      <point x="505" y="43"/>
      <point x="505" y="49" type="curve" smooth="yes"/>
      <point x="553" y="433" type="line"/>
      <point x="473" y="412" type="line"/>
      <point x="429" y="49" type="line" smooth="yes"/>
      <point x="428" y="42"/>
      <point x="407" y="33"/>
      <point x="376" y="26" type="curve"/>
      <point x="372" y="0" type="line"/>
      <point x="549" y="0" type="line"/>
    </contour>
    <contour>
      <point x="600" y="461" type="line"/>
      <point x="486" y="461" type="line" smooth="yes"/>
      <point x="477" y="461"/>
      <point x="473" y="458"/>
      <point x="457" y="430" type="curve" smooth="yes"/>
      <point x="273" y="95" type="line" smooth="yes"/>
      <point x="265" y="80"/>
      <point x="271" y="61"/>
      <point x="273" y="0" type="curve"/>
      <point x="274" y="0" type="line"/>
      <point x="478" y="371" type="line" smooth="yes"/>
      <point x="497" y="407"/>
      <point x="566" y="434"/>
      <point x="597" y="434" type="curve"/>
    </contour>
    <contour>
      <point x="298" y="96" type="curve"/>
      <point x="206" y="430" type="line"/>
      <point x="199" y="456"/>
      <point x="195" y="461"/>
      <point x="186" y="461" type="curve" smooth="yes"/>
      <point x="68" y="461" type="line"/>
      <point x="65" y="434" type="line"/>
      <point x="89" y="434"/>
      <point x="127" y="424"/>
      <point x="139" y="380" type="curve" smooth="yes"/>
      <point x="242" y="0" type="line"/>
      <point x="273" y="0" type="line"/>
      <point x="292" y="61"/>
      <point x="302" y="81"/>
    </contour>
    <contour>
      <point x="160" y="436" type="line"/>
      <point x="110" y="427" type="line"/>
      <point x="55" y="49" type="line" smooth="yes"/>
      <point x="54" y="42"/>
      <point x="37" y="33"/>
      <point x="5" y="26" type="curve"/>
      <point x="2" y="0" type="line"/>
      <point x="143" y="0" type="line"/>
      <point x="147" y="26" type="line"/>
      <point x="115" y="33"/>
      <point x="102" y="43"/>
      <point x="103" y="49" type="curve" smooth="yes"/>
    </contour>
  </outline>
</glyph>
<glyph name="N" format="2">
  <advance width="441"/>
  <unicode hex="004E"/>
  <outline>
    <contour>
      <point x="470" y="439" type="line"/>
      <point x="334" y="439" type="line"/>
      <point x="331" y="413" type="line"/>
      <point x="364" y="408"/>
      <point x="373" y="397"/>
      <point x="372" y="392" type="curve" smooth="yes"/>
      <point x="334" y="114" type="line"/>
      <point x="176" y="412" type="line" smooth="yes"/>
      <point x="163" y="436"/>
      <point x="161" y="439"/>
      <point x="147" y="439" type="curve" smooth="yes"/>
      <point x="58" y="439" type="line"/>
      <point x="55" y="413" type="line"/>
      <point x="70" y="411"/>
      <point x="84" y="402"/>
      <point x="96" y="388" type="curve"/>
      <point x="49" y="46" type="line" smooth="yes"/>
      <point x="48" y="40"/>
      <point x="34" y="29"/>
      <point x="2" y="25" type="curve"/>
      <point x="0" y="0" type="line"/>
      <point x="135" y="0" type="line"/>
      <point x="139" y="25" type="line"/>
      <point x="106" y="30"/>
      <point x="97" y="41"/>
      <point x="97" y="46" type="curve" smooth="yes"/>
      <point x="135" y="321" type="line"/>
      <point x="291" y="27" type="line" smooth="yes"/>
      <point x="302" y="7"/>
      <point x="325" y="-6"/>
      <point x="365" y="-10" type="curve"/>
      <point x="420" y="392" type="line" smooth="yes"/>
      <point x="421" y="399"/>
      <point x="436" y="409"/>
      <point x="467" y="413" type="curve"/>
    </contour>
  </outline>
</glyph>
<glyph name="O" format="2">
  <advance width="429"/>
  <unicode hex="004F"/>
  <anchor x="194" y="0" name="H"/>
  <anchor x="264" y="483" name="U"/>
  <outline>
    <contour>
      <point x="423" y="283" type="curve"/>
      <point x="423" y="386"/>
      <point x="373" y="472"/>
      <point x="269" y="472" type="curve" smooth="yes"/>
      <point x="191" y="472"/>
      <point x="132" y="427"/>
      <point x="91" y="372" type="curve" smooth="yes"/>
      <point x="52" y="320"/>
      <point x="27" y="250"/>
      <point x="27" y="177" type="curve" smooth="yes"/>
      <point x="27" y="75"/>
      <point x="84" y="-11"/>
      <point x="183" y="-11" type="curve" smooth="yes"/>
      <point x="248" y="-11"/>
      <point x="310" y="30"/>
      <point x="351" y="82" type="curve" smooth="yes"/>
      <point x="396" y="138"/>
      <point x="423" y="214"/>
    </contour>
    <contour>
      <point x="335" y="276" type="curve"/>
      <point x="335" y="183"/>
      <point x="298" y="39"/>
      <point x="205" y="39" type="curve" smooth="yes"/>
      <point x="148" y="39"/>
      <point x="116" y="103"/>
      <point x="116" y="194" type="curve" smooth="yes"/>
      <point x="116" y="287"/>
      <point x="155" y="423"/>
      <point x="245" y="423" type="curve" smooth="yes"/>
      <point x="304" y="423"/>
      <point x="335" y="359"/>
    </contour>
  </outline>
</glyph>
<glyph name="P" format="2">
  <advance width="389"/>
  <unicode hex="0050"/>
  <anchor x="233" y="483" name="U"/>
  <outline>
    <contour>
      <point x="398" y="344" type="curve"/>
      <point x="398" y="428"/>
      <point x="332" y="472"/>
      <point x="218" y="472" type="curve" smooth="yes"/>
      <point x="162" y="472"/>
      <point x="97" y="462"/>
      <point x="48" y="448" type="curve"/>
      <point x="48" y="415" type="line"/>
      <point x="106" y="428"/>
      <point x="162" y="433"/>
      <point x="200" y="433" type="curve" smooth="yes"/>
      <point x="257" y="433"/>
      <point x="309" y="413"/>
      <point x="309" y="331" type="curve" smooth="yes"/>
      <point x="309" y="267"/>
      <point x="274" y="228"/>
      <point x="216" y="228" type="curve" smooth="yes"/>
      <point x="199" y="228"/>
      <point x="187" y="233"/>
      <point x="171" y="240" type="curve"/>
      <point x="177" y="202" type="line"/>
      <point x="190" y="195"/>
      <point x="211" y="190"/>
      <point x="229" y="190" type="curve" smooth="yes"/>
      <point x="321" y="190"/>
      <point x="398" y="261"/>
    </contour>
    <contour>
      <point x="191" y="450" type="line"/>
      <point x="105" y="450" type="line"/>
      <point x="49" y="49" type="line" smooth="yes"/>
      <point x="48" y="42"/>
      <point x="31" y="33"/>
      <point x="0" y="26" type="curve"/>
      <point x="-2" y="0" type="line"/>
      <point x="187" y="0" type="line"/>
      <point x="191" y="26" type="line"/>
      <point x="145" y="35"/>
      <point x="135" y="43"/>
      <point x="135" y="49" type="curve" smooth="yes"/>
    </contour>
  </outline>
</glyph>
<glyph name="Q" format="2">
  <advance width="439"/>
  <unicode hex="0051"/>
  <anchor x="271" y="483" name="U"/>
  <outline>
    <contour>
      <point x="423" y="283" type="curve"/>
      <point x="423" y="386"/>
      <point x="373" y="472"/>
      <point x="269" y="472" type="curve" smooth="yes"/>
      <point x="191" y="472"/>
      <point x="132" y="427"/>
      <point x="91" y="372" type="curve" smooth="yes"/>
      <point x="52" y="319"/>
      <point x="27" y="250"/>
      <point x="27" y="177" type="curve" smooth="yes"/>
      <point x="27" y="75"/>
      <point x="84" y="-11"/>
      <point x="183" y="-11" type="curve" smooth="yes"/>
      <point x="248" y="-11"/>
      <point x="310" y="30"/>
      <point x="351" y="82" type="curve" smooth="yes"/>
      <point x="396" y="138"/>
      <point x="423" y="214"/>
    </contour>
    <contour>
      <point x="458" y="-45" type="curve"/>
      <point x="444" y="-21" type="line"/>
      <point x="414" y="-43"/>
      <point x="405" y="-47"/>
      <point x="394" y="-47" type="curve" smooth="yes"/>
      <point x="347" y="-47"/>
      <point x="303" y="2"/>
      <point x="243" y="17" type="curve" smooth="yes"/>
      <point x="232" y="20"/>
      <point x="162" y="7"/>
      <point x="162" y="7" type="curve"/>
      <point x="239" y="-5"/>
      <point x="304" y="-119"/>
      <point x="382" y="-119" type="curve" smooth="yes"/>
      <point x="396" y="-119"/>
      <point x="431" y="-88"/>
    </contour>
    <contour>
      <point x="335" y="276" type="curve"/>
      <point x="335" y="183"/>
      <point x="298" y="39"/>
      <point x="205" y="39" type="curve" smooth="yes"/>
      <point x="148" y="39"/>
      <point x="116" y="103"/>
      <point x="116" y="194" type="curve" smooth="yes"/>
      <point x="116" y="287"/>
      <point x="155" y="423"/>
      <point x="245" y="423" type="curve" smooth="yes"/>
      <point x="304" y="423"/>
      <point x="335" y="359"/>
    </contour>
  </outline>
</glyph>
<glyph name="R" format="2">
  <advance width="399"/>
  <unicode hex="0052"/>
  <outline>
    <contour>
      <point x="367" y="338" type="curve" smooth="yes"/>
      <point x="367" y="410"/>
      <point x="311" y="449"/>
      <point x="213" y="449" type="curve" smooth="yes"/>
      <point x="149" y="449"/>
      <point x="88" y="440"/>
      <point x="46" y="427" type="curve"/>
      <point x="46" y="396" type="line"/>
      <point x="88" y="405"/>
      <point x="148" y="412"/>
      <point x="196" y="412" type="curve" smooth="yes"/>
      <point x="234" y="412"/>
      <point x="283" y="397"/>
      <point x="283" y="328" type="curve" smooth="yes"/>
      <point x="283" y="272"/>
      <point x="238" y="241"/>
      <point x="190" y="241" type="curve" smooth="yes"/>
      <point x="175" y="241"/>
      <point x="163" y="242"/>
      <point x="149" y="248" type="curve"/>
      <point x="143" y="209" type="line"/>
      <point x="158" y="203"/>
      <point x="182" y="202"/>
      <point x="198" y="202" type="curve" smooth="yes"/>
      <point x="305" y="202"/>
      <point x="367" y="282"/>
    </contour>
    <contour>
      <point x="404" y="40" type="curve"/>
      <point x="395" y="64" type="line"/>
      <point x="357" y="52"/>
      <point x="345" y="50"/>
      <point x="331" y="74" type="curve" smooth="yes"/>
      <point x="245" y="227" type="line"/>
      <point x="188" y="213" type="line"/>
      <point x="255" y="40" type="line" smooth="yes"/>
      <point x="270" y="1"/>
      <point x="285" y="-4"/>
      <point x="301" y="-4" type="curve" smooth="yes"/>
      <point x="313" y="-4"/>
      <point x="368" y="16"/>
    </contour>
    <contour>
      <point x="181" y="431" type="line"/>
      <point x="99" y="431" type="line"/>
      <point x="47" y="46" type="line" smooth="yes"/>
      <point x="46" y="40"/>
      <point x="30" y="31"/>
      <point x="0" y="25" type="curve"/>
      <point x="-2" y="0" type="line"/>
      <point x="169" y="0" type="line"/>
      <point x="172" y="25" type="line"/>
      <point x="143" y="31"/>
      <point x="128" y="41"/>
      <point x="129" y="46" type="curve"/>
    </contour>
  </outline>
</glyph>
<glyph name="S" format="2">
  <advance width="356"/>
  <unicode hex="0053"/>
  <anchor x="156" y="0" name="H"/>
  <anchor x="219" y="483" name="U"/>
  <outline>
    <contour>
      <point x="352" y="438" type="curve" smooth="yes"/>
      <point x="329" y="456"/>
      <point x="290" y="472"/>
      <point x="244" y="472" type="curve" smooth="yes"/>
      <point x="138" y="472"/>
      <point x="70" y="404"/>
      <point x="70" y="339" type="curve" smooth="yes"/>
      <point x="70" y="296"/>
      <point x="86" y="260"/>
      <point x="151" y="229" type="curve" smooth="yes"/>
      <point x="225" y="194"/>
      <point x="251" y="166"/>
      <point x="251" y="123" type="curve" smooth="yes"/>
      <point x="251" y="72"/>
      <point x="213" y="40"/>
      <point x="166" y="40" type="curve" smooth="yes"/>
      <point x="103" y="40"/>
      <point x="77" y="114"/>
      <point x="61" y="114" type="curve" smooth="yes"/>
      <point x="46" y="114"/>
      <point x="8" y="59"/>
      <point x="8" y="44" type="curve" smooth="yes"/>
      <point x="8" y="16"/>
      <point x="89" y="-11"/>
      <point x="139" y="-11" type="curve" smooth="yes"/>
      <point x="247" y="-11"/>
      <point x="332" y="66"/>
      <point x="332" y="158" type="curve" smooth="yes"/>
      <point x="332" y="213"/>
      <point x="299" y="246"/>
      <point x="222" y="285" type="curve" smooth="yes"/>
      <point x="157" y="319"/>
      <point x="146" y="342"/>
      <point x="146" y="364" type="curve" smooth="yes"/>
      <point x="146" y="396"/>
      <point x="169" y="428"/>
      <point x="219" y="428" type="curve" smooth="yes"/>
      <point x="248" y="428"/>
      <point x="278" y="408"/>
      <point x="290" y="368" type="curve"/>
      <point x="312" y="365" type="line"/>
      <point x="322" y="371"/>
      <point x="358" y="433"/>
    </contour>
  </outline>
</glyph>
<glyph name="T" format="2">
  <advance width="386"/>
  <unicode hex="0054"/>
  <outline>
    <contour>
      <point x="416" y="428" type="curve"/>
      <point x="405" y="439" type="line"/>
      <point x="268" y="439" type="line"/>
      <point x="255" y="397" type="line"/>
      <point x="347" y="397" type="line" smooth="yes"/>
      <point x="365" y="397"/>
      <point x="363" y="371"/>
      <point x="366" y="327" type="curve"/>
      <point x="390" y="327" type="line"/>
      <point x="399" y="355"/>
      <point x="412" y="404"/>
    </contour>
    <contour>
      <point x="196" y="397" type="line"/>
      <point x="199" y="439" type="line"/>
      <point x="60" y="439" type="line"/>
      <point x="52" y="415"/>
      <point x="38" y="360"/>
      <point x="32" y="334" type="curve"/>
      <point x="55" y="324" type="line"/>
      <point x="81" y="379"/>
      <point x="92" y="397"/>
      <point x="105" y="397" type="curve" smooth="yes"/>
    </contour>
    <contour>
      <point x="267" y="25" type="line"/>
      <point x="229" y="34"/>
      <point x="220" y="44"/>
      <point x="220" y="50" type="curve" smooth="yes"/>
      <point x="268" y="399" type="line" smooth="yes"/>
      <point x="269" y="406"/>
      <point x="286" y="410"/>
      <point x="317" y="413" type="curve"/>
      <point x="320" y="439" type="line"/>
      <point x="151" y="439" type="line"/>
      <point x="147" y="413" type="line"/>
      <point x="177" y="410"/>
      <point x="188" y="405"/>
      <point x="187" y="399" type="curve" smooth="yes"/>
      <point x="139" y="50" type="line" smooth="yes"/>
      <point x="138" y="43"/>
      <point x="126" y="34"/>
      <point x="85" y="25" type="curve"/>
      <point x="82" y="0" type="line"/>
      <point x="264" y="0" type="line"/>
    </contour>
  </outline>
</glyph>
<glyph name="U" format="2">
  <advance width="464"/>
  <unicode hex="0055"/>
  <anchor x="223" y="0" name="H"/>
  <anchor x="281" y="483" name="U"/>
  <outline>
    <contour>
      <point x="488" y="461" type="line"/>
      <point x="341" y="461" type="line"/>
      <point x="338" y="434" type="line"/>
      <point x="369" y="427"/>
      <point x="379" y="417"/>
      <point x="378" y="411" type="curve" smooth="yes"/>
      <point x="345" y="171" type="line" smooth="yes"/>
      <point x="335" y="98"/>
      <point x="304" y="42"/>
      <point x="240" y="42" type="curve" smooth="yes"/>
      <point x="179" y="42"/>
      <point x="149" y="77"/>
      <point x="149" y="145" type="curve" smooth="yes"/>
      <point x="149" y="158"/>
      <point x="151" y="172"/>
      <point x="153" y="186" type="curve" smooth="yes"/>
      <point x="185" y="411" type="line" smooth="yes"/>
      <point x="186" y="418"/>
      <point x="204" y="427"/>
      <point x="235" y="434" type="curve"/>
      <point x="238" y="461" type="line"/>
      <point x="62" y="461" type="line"/>
      <point x="58" y="434" type="line"/>
      <point x="90" y="427"/>
      <point x="102" y="417"/>
      <point x="101" y="411" type="curve" smooth="yes"/>
      <point x="67" y="169" type="line" smooth="yes"/>
      <point x="65" y="154"/>
      <point x="63" y="140"/>
      <point x="63" y="127" type="curve" smooth="yes"/>
      <point x="63" y="38"/>
      <point x="133" y="-11"/>
      <point x="213" y="-11" type="curve" smooth="yes"/>
      <point x="310" y="-11"/>
      <point x="389" y="59"/>
      <point x="406" y="187" type="curve" smooth="yes"/>
      <point x="438" y="411" type="line" smooth="yes"/>
      <point x="439" y="418"/>
      <point x="454" y="427"/>
      <point x="485" y="434" type="curve"/>
    </contour>
  </outline>
</glyph>
<glyph name="V" format="2">
  <advance width="456"/>
  <unicode hex="0056"/>
  <anchor x="213" y="0" name="H"/>
  <anchor x="271" y="483" name="U"/>
  <outline>
    <contour>
      <point x="494" y="461" type="line"/>
      <point x="348" y="461" type="line"/>
      <point x="345" y="434" type="line"/>
      <point x="381" y="429"/>
      <point x="391" y="424"/>
      <point x="385" y="410" type="curve" smooth="yes"/>
      <point x="242" y="103" type="line"/>
      <point x="174" y="411" type="line" smooth="yes"/>
      <point x="171" y="425"/>
      <point x="182" y="431"/>
      <point x="218" y="434" type="curve"/>
      <point x="222" y="461" type="line"/>
      <point x="48" y="461" type="line"/>
      <point x="45" y="434" type="line"/>
      <point x="73" y="430"/>
      <point x="84" y="423"/>
      <point x="87" y="410" type="curve" smooth="yes"/>
      <point x="183" y="-11" type="line"/>
      <point x="206" y="-5"/>
      <point x="246" y="8"/>
      <point x="255" y="29" type="curve" smooth="yes"/>
      <point x="435" y="410" type="line"/>
      <point x="441" y="424"/>
      <point x="459" y="428"/>
      <point x="491" y="434" type="curve"/>
    </contour>
  </outline>
</glyph>
<glyph name="W" format="2">
  <advance width="584"/>
  <unicode hex="0057"/>
  <anchor x="341" y="483" name="U"/>
  <outline>
    <contour>
      <point x="625" y="461" type="line"/>
      <point x="474" y="461" type="line"/>
      <point x="470" y="434" type="line"/>
      <point x="500" y="429"/>
      <point x="523" y="423"/>
      <point x="519" y="411" type="curve" smooth="yes"/>
      <point x="428" y="141" type="line"/>
      <point x="358" y="461" type="line"/>
      <point x="324" y="461" type="line"/>
      <point x="181" y="141" type="line"/>
      <point x="160" y="409" type="line" smooth="yes"/>
      <point x="159" y="419"/>
      <point x="162" y="429"/>
      <point x="207" y="434" type="curve"/>
      <point x="211" y="461" type="line"/>
      <point x="45" y="461" type="line"/>
      <point x="41" y="434" type="line"/>
      <point x="72" y="428"/>
      <point x="84" y="421"/>
      <point x="84" y="409" type="curve" smooth="yes"/>
      <point x="115" y="-11" type="line"/>
      <point x="132" y="-7"/>
      <point x="163" y="0"/>
      <point x="173" y="21" type="curve" smooth="yes"/>
      <point x="311" y="321" type="line"/>
      <point x="381" y="-11" type="line"/>
      <point x="395" y="-7"/>
      <point x="429" y="0"/>
      <point x="435" y="21" type="curve" smooth="yes"/>
      <point x="566" y="411" type="line" smooth="yes"/>
      <point x="569" y="420"/>
      <point x="581" y="425"/>
      <point x="622" y="434" type="curve"/>
    </contour>
  </outline>
</glyph>
<glyph name="X" format="2">
  <advance width="443"/>
  <unicode hex="0058"/>
  <anchor x="263" y="483" name="U"/>
  <outline>
    <contour>
      <point x="455" y="461" type="line"/>
      <point x="301" y="461" type="line"/>
      <point x="298" y="434" type="line"/>
      <point x="337" y="431"/>
      <point x="344" y="426"/>
      <point x="328" y="403" type="curve" smooth="yes"/>
      <point x="241" y="283" type="line"/>
      <point x="260" y="233" type="line"/>
      <point x="385" y="403" type="line" smooth="yes"/>
      <point x="400" y="424"/>
      <point x="418" y="430"/>
      <point x="451" y="434" type="curve"/>
    </contour>
    <contour>
      <point x="413" y="26" type="line"/>
      <point x="387" y="30"/>
      <point x="376" y="36"/>
      <point x="366" y="57" type="curve" smooth="yes"/>
      <point x="192" y="403" type="line" smooth="yes"/>
      <point x="182" y="425"/>
      <point x="194" y="430"/>
      <point x="233" y="434" type="curve"/>
      <point x="237" y="461" type="line"/>
      <point x="53" y="461" type="line"/>
      <point x="50" y="434" type="line"/>
      <point x="79" y="429"/>
      <point x="87" y="425"/>
      <point x="99" y="403" type="curve"/>
      <point x="271" y="57" type="line"/>
      <point x="281" y="38"/>
      <point x="272" y="31"/>
      <point x="232" y="26" type="curve"/>
      <point x="228" y="0" type="line"/>
      <point x="409" y="0" type="line"/>
    </contour>
    <contour>
      <point x="215" y="194" type="line"/>
      <point x="194" y="243" type="line"/>
      <point x="56" y="57" type="line"/>
      <point x="41" y="37"/>
      <point x="20" y="28"/>
      <point x="-9" y="26" type="curve"/>
      <point x="-12" y="0" type="line"/>
      <point x="139" y="0" type="line"/>
      <point x="143" y="26" type="line"/>
      <point x="102" y="29"/>
      <point x="97" y="36"/>
      <point x="113" y="57" type="curve" smooth="yes"/>
    </contour>
  </outline>
</glyph>
<glyph name="Y" format="2">
  <advance width="407"/>
  <unicode hex="0059"/>
  <anchor x="249" y="460" name="U"/>
  <outline>
    <contour>
      <point x="440" y="439" type="line"/>
      <point x="305" y="439" type="line"/>
      <point x="301" y="413" type="line"/>
      <point x="334" y="409"/>
      <point x="342" y="403"/>
      <point x="334" y="390" type="curve" smooth="yes"/>
      <point x="238" y="236" type="line"/>
      <point x="219" y="298"/>
      <point x="187" y="381"/>
      <point x="160" y="427" type="curve" smooth="yes"/>
      <point x="155" y="437"/>
      <point x="142" y="443"/>
      <point x="131" y="443" type="curve" smooth="yes"/>
      <point x="113" y="443"/>
      <point x="68" y="436"/>
      <point x="42" y="431" type="curve"/>
      <point x="41" y="406" type="line"/>
      <point x="76" y="407"/>
      <point x="83" y="402"/>
      <point x="90" y="391" type="curve" smooth="yes"/>
      <point x="118" y="343"/>
      <point x="159" y="242"/>
      <point x="177" y="167" type="curve"/>
      <point x="244" y="167" type="line"/>
      <point x="385" y="390" type="line" smooth="yes"/>
      <point x="393" y="402"/>
      <point x="406" y="408"/>
      <point x="436" y="413" type="curve"/>
    </contour>
    <contour>
      <point x="283" y="25" type="line"/>
      <point x="243" y="34"/>
      <point x="234" y="44"/>
      <point x="235" y="50" type="curve" smooth="yes"/>
      <point x="259" y="222" type="line"/>
      <point x="178" y="222" type="line"/>
      <point x="154" y="50" type="line" smooth="yes"/>
      <point x="153" y="43"/>
      <point x="140" y="34"/>
      <point x="100" y="25" type="curve"/>
      <point x="97" y="0" type="line"/>
      <point x="279" y="0" type="line"/>
    </contour>
  </outline>
</glyph>
<glyph name="Z" format="2">
  <advance width="389"/>
  <unicode hex="005A"/>
  <anchor x="238" y="483" name="U"/>
  <outline>
    <contour>
      <point x="395" y="442" type="line"/>
      <point x="387" y="461" type="line"/>
      <point x="159" y="461" type="line" smooth="yes"/>
      <point x="133" y="461"/>
      <point x="119" y="461"/>
      <point x="95" y="468" type="curve"/>
      <point x="65" y="335" type="line"/>
      <point x="93" y="327" type="line"/>
      <point x="110" y="379"/>
      <point x="139" y="414"/>
      <point x="154" y="414" type="curve" smooth="yes"/>
      <point x="286" y="414" type="line"/>
      <point x="5" y="19" type="line"/>
      <point x="15" y="0" type="line"/>
      <point x="337" y="0" type="line"/>
      <point x="341" y="28"/>
      <point x="353" y="98"/>
      <point x="359" y="130" type="curve"/>
      <point x="331" y="138" type="line"/>
      <point x="305" y="77"/>
      <point x="291" y="47"/>
      <point x="272" y="47" type="curve" smooth="yes"/>
      <point x="116" y="47" type="line"/>
    </contour>
  </outline>
</glyph>
<glyph name="bracketleft" format="2">
  <advance width="254"/>
  <unicode hex="005B"/>
  <outline>
    <contour>
      <point x="292" y="546" type="curve"/>
      <point x="280" y="557" type="line"/>
      <point x="117" y="557" type="line"/>
      <point x="22" y="-117" type="line"/>
      <point x="187" y="-117" type="line"/>
      <point x="192" y="-109"/>
      <point x="202" y="-88"/>
      <point x="205" y="-79" type="curve"/>
      <point x="192" y="-66" type="line"/>
      <point x="103" y="-66" type="line"/>
      <point x="182" y="508" type="line"/>
      <point x="274" y="508" type="line"/>
      <point x="277" y="513"/>
      <point x="289" y="534"/>
    </contour>
  </outline>
</glyph>
<glyph name="backslash" format="2">
  <advance width="298"/>
  <unicode hex="005C"/>
  <outline>
    <contour>
      <point x="253" y="-105" type="line"/>
      <point x="119" y="535" type="line"/>
      <point x="107" y="543"/>
      <point x="76" y="554"/>
      <point x="63" y="557" type="curve"/>
      <point x="47" y="547" type="line"/>
      <point x="182" y="-94" type="line"/>
      <point x="189" y="-100"/>
      <point x="228" y="-113"/>
      <point x="238" y="-117" type="curve"/>
    </contour>
  </outline>
</glyph>
<glyph name="bracketright" format="2">
  <advance width="250"/>
  <unicode hex="005D"/>
  <outline>
    <contour>
      <point x="252" y="585" type="line"/>
      <point x="79" y="585" type="line"/>
      <point x="74" y="577"/>
      <point x="64" y="556"/>
      <point x="61" y="545" type="curve"/>
      <point x="75" y="533" type="line"/>
      <point x="168" y="533" type="line"/>
      <point x="83" y="-69" type="line"/>
      <point x="-12" y="-69" type="line"/>
      <point x="-16" y="-76"/>
      <point x="-27" y="-98"/>
      <point x="-30" y="-109" type="curve"/>
      <point x="-17" y="-123" type="line"/>
      <point x="153" y="-123" type="line"/>
    </contour>
  </outline>
</glyph>
<glyph name="asciicircum" format="2">
  <advance width="327"/>
  <unicode hex="005E"/>
  <anchor x="217" y="571" name="U"/>
  <outline>
    <contour>
      <point x="297" y="221" type="curve"/>
      <point x="227" y="540" type="line"/>
      <point x="214" y="534"/>
      <point x="192" y="520"/>
      <point x="179" y="509" type="curve"/>
      <point x="32" y="206" type="line"/>
      <point x="39" y="197" type="line"/>
      <point x="48" y="201"/>
      <point x="67" y="212"/>
      <point x="77" y="221" type="curve"/>
      <point x="192" y="458" type="line"/>
      <point x="248" y="206" type="line"/>
      <point x="259" y="197" type="line"/>
      <point x="274" y="204"/>
      <point x="284" y="210"/>
    </contour>
  </outline>
</glyph>
<glyph name="underscore" format="2">
  <advance width="272"/>
  <unicode hex="005F"/>
  <outline>
    <contour>
      <point x="279" y="-59" type="curve"/>
      <point x="269" y="-47" type="line"/>
      <point x="-2" y="-47" type="line"/>
      <point x="-9" y="-57"/>
      <point x="-20" y="-78"/>
      <point x="-23" y="-88" type="curve"/>
      <point x="-14" y="-101" type="line"/>
      <point x="259" y="-101" type="line"/>
      <point x="264" y="-91"/>
      <point x="276" y="-70"/>
    </contour>
  </outline>
</glyph>
<glyph name="grave" format="2">
  <advance width="211"/>
  <unicode hex="0060"/>
  <outline>
    <contour>
      <point x="201" y="367" type="curve"/>
      <point x="157" y="511" type="line"/>
      <point x="146" y="511"/>
      <point x="96" y="501"/>
      <point x="85" y="499" type="curve"/>
      <point x="71" y="482" type="line"/>
      <point x="171" y="355" type="line"/>
      <point x="180" y="356"/>
      <point x="191" y="362"/>
    </contour>
  </outline>
</glyph>
<glyph name="a" format="2">
  <advance width="360"/>
  <unicode hex="0061"/>
  <anchor x="139" y="0" name="H"/>
  <anchor x="212" y="366" name="U"/>
  <outline>
    <contour>
      <point x="358" y="38" type="curve"/>
      <point x="353" y="62" type="line"/>
      <point x="333" y="54"/>
      <point x="323" y="52"/>
      <point x="313" y="52" type="curve" smooth="yes"/>
      <point x="302" y="52"/>
      <point x="294" y="76"/>
      <point x="294" y="110" type="curve" smooth="yes"/>
      <point x="294" y="132"/>
      <point x="302" y="197"/>
      <point x="317" y="267" type="curve" smooth="yes"/>
      <point x="324" y="300"/>
      <point x="328" y="305"/>
      <point x="345" y="318" type="curve"/>
      <point x="333" y="342" type="line"/>
      <point x="301" y="327"/>
      <point x="241" y="304"/>
      <point x="237" y="281" type="curve" smooth="yes"/>
      <point x="231" y="253"/>
      <point x="209" y="122"/>
      <point x="209" y="94" type="curve" smooth="yes"/>
      <point x="209" y="7"/>
      <point x="241" y="-15"/>
      <point x="259" y="-15" type="curve" smooth="yes"/>
      <point x="276" y="-15"/>
      <point x="317" y="9"/>
    </contour>
    <contour>
      <point x="323" y="300" type="curve"/>
      <point x="305" y="302"/>
      <point x="267" y="342"/>
      <point x="228" y="342" type="curve" smooth="yes"/>
      <point x="187" y="342"/>
      <point x="148" y="326"/>
      <point x="122" y="308" type="curve" smooth="yes"/>
      <point x="53" y="261"/>
      <point x="13" y="188"/>
      <point x="13" y="111" type="curve" smooth="yes"/>
      <point x="13" y="20"/>
      <point x="62" y="-15"/>
      <point x="97" y="-15" type="curve" smooth="yes"/>
      <point x="138" y="-15"/>
      <point x="182" y="32"/>
      <point x="213" y="77" type="curve"/>
      <point x="220" y="148" type="line"/>
      <point x="181" y="89"/>
      <point x="148" y="57"/>
      <point x="132" y="57" type="curve" smooth="yes"/>
      <point x="114" y="57"/>
      <point x="97" y="84"/>
      <point x="97" y="138" type="curve" smooth="yes"/>
      <point x="97" y="196"/>
      <point x="127" y="289"/>
      <point x="188" y="290" type="curve" smooth="yes"/>
      <point x="221" y="291"/>
      <point x="258" y="233"/>
      <point x="270" y="233" type="curve" smooth="yes"/>
      <point x="283" y="233"/>
      <point x="302" y="286"/>
    </contour>
  </outline>
</glyph>
<glyph name="b" format="2">
  <advance width="373"/>
  <unicode hex="0062"/>
  <anchor x="172" y="0" name="H"/>
  <anchor x="262" y="578" name="U"/>
  <outline>
    <contour>
      <point x="352" y="223" type="curve"/>
      <point x="353" y="300"/>
      <point x="316" y="343"/>
      <point x="269" y="342" type="curve" smooth="yes"/>
      <point x="236" y="342"/>
      <point x="182" y="322"/>
      <point x="121" y="220" type="curve"/>
      <point x="127" y="165" type="line"/>
      <point x="171" y="246"/>
      <point x="213" y="277"/>
      <point x="228" y="277" type="curve" smooth="yes"/>
      <point x="251" y="277"/>
      <point x="267" y="244"/>
      <point x="267" y="194" type="curve" smooth="yes"/>
      <point x="267" y="161"/>
      <point x="260" y="115"/>
      <point x="240" y="86" type="curve" smooth="yes"/>
      <point x="227" y="67"/>
      <point x="210" y="52"/>
      <point x="185" y="53" type="curve" smooth="yes"/>
      <point x="165" y="54"/>
      <point x="131" y="84"/>
      <point x="131" y="110" type="curve" smooth="yes"/>
      <point x="131" y="174"/>
      <point x="187" y="457"/>
      <point x="187" y="526" type="curve" smooth="yes"/>
      <point x="187" y="548"/>
      <point x="182" y="556"/>
      <point x="166" y="556" type="curve" smooth="yes"/>
      <point x="148" y="556"/>
      <point x="77" y="531"/>
      <point x="33" y="510" type="curve"/>
      <point x="39" y="485" type="line"/>
      <point x="39" y="485"/>
      <point x="64" y="495"/>
      <point x="73" y="495" type="curve" smooth="yes"/>
      <point x="81" y="495"/>
      <point x="92" y="493"/>
      <point x="92" y="470" type="curve" smooth="yes"/>
      <point x="92" y="410"/>
      <point x="41" y="139"/>
      <point x="41" y="87" type="curve" smooth="yes"/>
      <point x="42" y="34"/>
      <point x="111" y="-15"/>
      <point x="144" y="-15" type="curve" smooth="yes"/>
      <point x="206" y="-15"/>
      <point x="259" y="24"/>
      <point x="293" y="68" type="curve" smooth="yes"/>
      <point x="329" y="116"/>
      <point x="352" y="171"/>
    </contour>
  </outline>
</glyph>
<glyph name="c" format="2">
  <advance width="304"/>
  <unicode hex="0063"/>
  <anchor x="142" y="0" name="H"/>
  <anchor x="204" y="348" name="U"/>
  <outline>
    <contour>
      <point x="315" y="286" type="curve"/>
      <point x="290" y="295"/>
      <point x="268" y="326"/>
      <point x="227" y="326" type="curve" smooth="yes"/>
      <point x="188" y="326"/>
      <point x="143" y="305"/>
      <point x="117" y="288" type="curve" smooth="yes"/>
      <point x="49" y="242"/>
      <point x="24" y="175"/>
      <point x="24" y="112" type="curve" smooth="yes"/>
      <point x="24" y="14"/>
      <point x="83" y="-14"/>
      <point x="122" y="-14" type="curve" smooth="yes"/>
      <point x="164" y="-14"/>
      <point x="210" y="6"/>
      <point x="283" y="73" type="curve"/>
      <point x="281" y="76"/>
      <point x="269" y="93"/>
      <point x="266" y="98" type="curve"/>
      <point x="216" y="57"/>
      <point x="182" y="39"/>
      <point x="157" y="39" type="curve" smooth="yes"/>
      <point x="127" y="39"/>
      <point x="107" y="75"/>
      <point x="107" y="135" type="curve" smooth="yes"/>
      <point x="107" y="200"/>
      <point x="135" y="276"/>
      <point x="185" y="276" type="curve" smooth="yes"/>
      <point x="213" y="276"/>
      <point x="228" y="233"/>
      <point x="243" y="233" type="curve" smooth="yes"/>
      <point x="257" y="233"/>
      <point x="296" y="267"/>
    </contour>
  </outline>
</glyph>
<glyph name="d" format="2">
  <advance width="372"/>
  <unicode hex="0064"/>
  <anchor x="144" y="0" name="H"/>
  <anchor x="230" y="600" name="U"/>
  <outline>
    <contour>
      <point x="361" y="38" type="curve"/>
      <point x="355" y="62" type="line"/>
      <point x="338" y="55"/>
      <point x="328" y="53"/>
      <point x="315" y="53" type="curve" smooth="yes"/>
      <point x="304" y="53"/>
      <point x="296" y="73"/>
      <point x="296" y="114" type="curve" smooth="yes"/>
      <point x="296" y="180"/>
      <point x="356" y="450"/>
      <point x="356" y="526" type="curve" smooth="yes"/>
      <point x="356" y="548"/>
      <point x="346" y="556"/>
      <point x="330" y="556" type="curve" smooth="yes"/>
      <point x="313" y="556"/>
      <point x="252" y="534"/>
      <point x="203" y="510" type="curve"/>
      <point x="209" y="485" type="line"/>
      <point x="221" y="489"/>
      <point x="239" y="495"/>
      <point x="245" y="495" type="curve" smooth="yes"/>
      <point x="254" y="495"/>
      <point x="262" y="493"/>
      <point x="262" y="470" type="curve" smooth="yes"/>
      <point x="262" y="402"/>
      <point x="211" y="140"/>
      <point x="211" y="95" type="curve" smooth="yes"/>
      <point x="211" y="11"/>
      <point x="241" y="-15"/>
      <point x="260" y="-15" type="curve" smooth="yes"/>
      <point x="279" y="-15"/>
      <point x="320" y="10"/>
    </contour>
    <contour>
      <point x="316" y="291" type="line"/>
      <point x="288" y="291"/>
      <point x="252" y="342"/>
      <point x="225" y="342" type="curve" smooth="yes"/>
      <point x="189" y="342"/>
      <point x="148" y="325"/>
      <point x="121" y="308" type="curve" smooth="yes"/>
      <point x="52" y="262"/>
      <point x="13" y="192"/>
      <point x="13" y="115" type="curve" smooth="yes"/>
      <point x="13" y="24"/>
      <point x="59" y="-15"/>
      <point x="98" y="-15" type="curve" smooth="yes"/>
      <point x="132" y="-15"/>
      <point x="174" y="17"/>
      <point x="214" y="76" type="curve"/>
      <point x="222" y="150" type="line"/>
      <point x="179" y="81"/>
      <point x="149" y="57"/>
      <point x="134" y="57" type="curve" smooth="yes"/>
      <point x="114" y="57"/>
      <point x="97" y="84"/>
      <point x="97" y="138" type="curve" smooth="yes"/>
      <point x="97" y="196"/>
      <point x="126" y="290"/>
      <point x="187" y="290" type="curve" smooth="yes"/>
      <point x="225" y="290"/>
      <point x="254" y="227"/>
      <point x="272" y="227" type="curve"/>
    </contour>
  </outline>
</glyph>
<glyph name="e" format="2">
  <advance width="316"/>
  <unicode hex="0065"/>
  <anchor x="142" y="0" name="H"/>
  <anchor x="197" y="366" name="U"/>
  <outline>
    <contour>
      <point x="302" y="278" type="curve"/>
      <point x="302" y="309"/>
      <point x="276" y="342"/>
      <point x="221" y="342" type="curve" smooth="yes"/>
      <point x="183" y="342"/>
      <point x="139" y="319"/>
      <point x="117" y="301" type="curve" smooth="yes"/>
      <point x="55" y="250"/>
      <point x="17" y="187"/>
      <point x="17" y="110" type="curve" smooth="yes"/>
      <point x="17" y="18"/>
      <point x="82" y="-15"/>
      <point x="122" y="-15" type="curve" smooth="yes"/>
      <point x="166" y="-15"/>
      <point x="213" y="10"/>
      <point x="293" y="79" type="curve"/>
      <point x="292" y="83"/>
      <point x="282" y="102"/>
      <point x="276" y="105" type="curve"/>
      <point x="217" y="58"/>
      <point x="178" y="41"/>
      <point x="157" y="41" type="curve" smooth="yes"/>
      <point x="128" y="41"/>
      <point x="102" y="82"/>
      <point x="102" y="146" type="curve" smooth="yes"/>
      <point x="102" y="200"/>
      <point x="119" y="239"/>
      <point x="145" y="269" type="curve" smooth="yes"/>
      <point x="158" y="284"/>
      <point x="177" y="293"/>
      <point x="185" y="293" type="curve" smooth="yes"/>
      <point x="198" y="293"/>
      <point x="210" y="281"/>
      <point x="210" y="259" type="curve" smooth="yes"/>
      <point x="210" y="222"/>
      <point x="197" y="196"/>
      <point x="63" y="142" type="curve"/>
      <point x="65" y="104" type="line"/>
      <point x="278" y="173"/>
      <point x="302" y="235"/>
    </contour>
  </outline>
</glyph>
<glyph name="f" format="2">
  <advance width="228"/>
  <unicode hex="0066"/>
  <anchor x="-17" y="-156" name="H"/>
  <anchor x="214" y="571" name="U"/>
  <outline>
    <contour>
      <point x="259" y="303" type="curve"/>
      <point x="249" y="315" type="line"/>
      <point x="64" y="315" type="line"/>
      <point x="18" y="287" type="line"/>
      <point x="26" y="273" type="line"/>
      <point x="161" y="273" type="line" smooth="yes"/>
      <point x="191" y="273"/>
      <point x="204" y="270"/>
      <point x="209" y="258" type="curve"/>
      <point x="219" y="262"/>
      <point x="250" y="290"/>
    </contour>
    <contour>
      <point x="354" y="486" type="curve"/>
      <point x="339" y="491"/>
      <point x="296" y="530"/>
      <point x="250" y="530" type="curve" smooth="yes"/>
      <point x="222" y="530"/>
      <point x="195" y="515"/>
      <point x="170" y="497" type="curve" smooth="yes"/>
      <point x="111" y="453"/>
      <point x="89" y="389"/>
      <point x="79" y="313" type="curve" smooth="yes"/>
      <point x="49" y="48" type="line" smooth="yes"/>
      <point x="40" y="-27"/>
      <point x="11" y="-113"/>
      <point x="-34" y="-139" type="curve"/>
      <point x="-20" y="-169" type="line"/>
      <point x="48" y="-127"/>
      <point x="122" y="-34"/>
      <point x="134" y="67" type="curve" smooth="yes"/>
      <point x="164" y="332" type="line" smooth="yes"/>
      <point x="171" y="391"/>
      <point x="184" y="473"/>
      <point x="223" y="473" type="curve" smooth="yes"/>
      <point x="247" y="473"/>
      <point x="260" y="431"/>
      <point x="275" y="431" type="curve" smooth="yes"/>
      <point x="286" y="431"/>
      <point x="334" y="472"/>
    </contour>
  </outline>
</glyph>
<glyph name="g" format="2">
  <advance width="351"/>
  <unicode hex="0067"/>
  <anchor x="121" y="-164" name="H"/>
  <anchor x="197" y="366" name="U"/>
  <outline>
    <contour>
      <point x="321" y="300" type="curve"/>
      <point x="304" y="302"/>
      <point x="261" y="342"/>
      <point x="228" y="342" type="curve" smooth="yes"/>
      <point x="184" y="342"/>
      <point x="147" y="326"/>
      <point x="120" y="308" type="curve" smooth="yes"/>
      <point x="48" y="260"/>
      <point x="10" y="188"/>
      <point x="10" y="111" type="curve" smooth="yes"/>
      <point x="10" y="20"/>
      <point x="62" y="-15"/>
      <point x="94" y="-15" type="curve" smooth="yes"/>
      <point x="138" y="-15"/>
      <point x="182" y="32"/>
      <point x="221" y="93" type="curve"/>
      <point x="226" y="165" type="line"/>
      <point x="178" y="83"/>
      <point x="144" y="57"/>
      <point x="132" y="57" type="curve" smooth="yes"/>
      <point x="110" y="57"/>
      <point x="94" y="84"/>
      <point x="94" y="138" type="curve" smooth="yes"/>
      <point x="94" y="196"/>
      <point x="125" y="290"/>
      <point x="186" y="290" type="curve" smooth="yes"/>
      <point x="218" y="290"/>
      <point x="257" y="232"/>
      <point x="270" y="232" type="curve" smooth="yes"/>
      <point x="282" y="232"/>
      <point x="300" y="285"/>
    </contour>
    <contour>
      <point x="345" y="318" type="curve"/>
      <point x="332" y="342" type="line"/>
      <point x="292" y="324"/>
      <point x="238" y="293"/>
      <point x="230" y="246" type="curve" smooth="yes"/>
      <point x="212" y="131"/>
      <point x="225" y="79"/>
      <point x="208" y="-17" type="curve" smooth="yes"/>
      <point x="193" y="-98"/>
      <point x="168" y="-120"/>
      <point x="132" y="-120" type="curve" smooth="yes"/>
      <point x="74" y="-120"/>
      <point x="54" y="-80"/>
      <point x="43" y="-80" type="curve" smooth="yes"/>
      <point x="36" y="-80"/>
      <point x="-7" y="-125"/>
      <point x="-7" y="-141" type="curve" smooth="yes"/>
      <point x="-7" y="-158"/>
      <point x="49" y="-183"/>
      <point x="99" y="-183" type="curve" smooth="yes"/>
      <point x="175" y="-183"/>
      <point x="275" y="-101"/>
      <point x="293" y="0" type="curve" smooth="yes"/>
      <point x="307" y="75"/>
      <point x="301" y="136"/>
      <point x="315" y="252" type="curve" smooth="yes"/>
      <point x="319" y="287"/>
      <point x="329" y="305"/>
    </contour>
  </outline>
</glyph>
<glyph name="h" format="2">
  <advance width="375"/>
  <unicode hex="0068"/>
  <anchor x="56" y="0" name="H"/>
  <anchor x="240" y="551" name="U"/>
  <outline>
    <contour>
      <point x="365" y="38" type="curve"/>
      <point x="356" y="61" type="line"/>
      <point x="340" y="54"/>
      <point x="330" y="50"/>
      <point x="317" y="50" type="curve" smooth="yes"/>
      <point x="309" y="50"/>
      <point x="305" y="54"/>
      <point x="305" y="70" type="curve" smooth="yes"/>
      <point x="305" y="109"/>
      <point x="334" y="221"/>
      <point x="334" y="270" type="curve" smooth="yes"/>
      <point x="334" y="315"/>
      <point x="318" y="326"/>
      <point x="289" y="326" type="curve" smooth="yes"/>
      <point x="247" y="326"/>
      <point x="199" y="306"/>
      <point x="145" y="252" type="curve"/>
      <point x="153" y="302"/>
      <point x="180" y="468"/>
      <point x="180" y="501" type="curve" smooth="yes"/>
      <point x="180" y="522"/>
      <point x="170" y="530"/>
      <point x="157" y="530" type="curve" smooth="yes"/>
      <point x="139" y="530"/>
      <point x="71" y="503"/>
      <point x="32" y="486" type="curve"/>
      <point x="38" y="462" type="line"/>
      <point x="46" y="465"/>
      <point x="68" y="471"/>
      <point x="75" y="471" type="curve" smooth="yes"/>
      <point x="83" y="471"/>
      <point x="90" y="469"/>
      <point x="90" y="448" type="curve" smooth="yes"/>
      <point x="90" y="389"/>
      <point x="41" y="98"/>
      <point x="24" y="0" type="curve"/>
      <point x="38" y="-14" type="line"/>
      <point x="50" y="-8"/>
      <point x="105" y="16"/>
      <point x="117" y="21" type="curve"/>
      <point x="117" y="36"/>
      <point x="117" y="53"/>
      <point x="125" y="104" type="curve" smooth="yes"/>
      <point x="132" y="146"/>
      <point x="140" y="181"/>
      <point x="153" y="202" type="curve" smooth="yes"/>
      <point x="180" y="247"/>
      <point x="215" y="260"/>
      <point x="227" y="260" type="curve" smooth="yes"/>
      <point x="240" y="260"/>
      <point x="245" y="253"/>
      <point x="245" y="223" type="curve" smooth="yes"/>
      <point x="245" y="191"/>
      <point x="217" y="51"/>
      <point x="217" y="26" type="curve" smooth="yes"/>
      <point x="217" y="1"/>
      <point x="229" y="-14"/>
      <point x="243" y="-14" type="curve" smooth="yes"/>
      <point x="269" y="-14"/>
      <point x="322" y="13"/>
    </contour>
  </outline>
</glyph>
<glyph name="i" format="2">
  <advance width="207"/>
  <unicode hex="0069"/>
  <anchor x="87" y="0" name="H"/>
  <anchor x="142" y="366" name="U"/>
  <outline>
    <contour>
      <point x="205" y="462" type="curve"/>
      <point x="205" y="478"/>
      <point x="193" y="493"/>
      <point x="167" y="493" type="curve" smooth="yes"/>
      <point x="126" y="493"/>
      <point x="103" y="456"/>
      <point x="103" y="430" type="curve" smooth="yes"/>
      <point x="103" y="414"/>
      <point x="115" y="399"/>
      <point x="141" y="399" type="curve" smooth="yes"/>
      <point x="182" y="399"/>
      <point x="205" y="435"/>
    </contour>
    <contour>
      <point x="196" y="40" type="curve"/>
      <point x="189" y="64" type="line"/>
      <point x="170" y="56"/>
      <point x="160" y="52"/>
      <point x="145" y="52" type="curve" smooth="yes"/>
      <point x="137" y="52"/>
      <point x="134" y="59"/>
      <point x="134" y="74" type="curve" smooth="yes"/>
      <point x="134" y="117"/>
      <point x="169" y="269"/>
      <point x="169" y="312" type="curve" smooth="yes"/>
      <point x="169" y="334"/>
      <point x="161" y="342"/>
      <point x="148" y="342" type="curve" smooth="yes"/>
      <point x="130" y="342"/>
      <point x="61" y="315"/>
      <point x="20" y="296" type="curve"/>
      <point x="26" y="272" type="line"/>
      <point x="37" y="275"/>
      <point x="54" y="280"/>
      <point x="60" y="280" type="curve" smooth="yes"/>
      <point x="69" y="280"/>
      <point x="75" y="278"/>
      <point x="75" y="256" type="curve" smooth="yes"/>
      <point x="75" y="220"/>
      <point x="41" y="71"/>
      <point x="41" y="27" type="curve" smooth="yes"/>
      <point x="41" y="1"/>
      <point x="55" y="-15"/>
      <point x="71" y="-15" type="curve" smooth="yes"/>
      <point x="98" y="-15"/>
      <point x="151" y="13"/>
    </contour>
  </outline>
</glyph>
<glyph name="j" format="2">
  <advance width="206"/>
  <unicode hex="006A"/>
  <anchor x="131" y="366" name="U"/>
  <outline>
    <contour>
      <point x="196" y="462" type="curve"/>
      <point x="196" y="478"/>
      <point x="184" y="493"/>
      <point x="158" y="493" type="curve" smooth="yes"/>
      <point x="117" y="493"/>
      <point x="94" y="456"/>
      <point x="94" y="430" type="curve" smooth="yes"/>
      <point x="94" y="414"/>
      <point x="105" y="399"/>
      <point x="131" y="399" type="curve" smooth="yes"/>
      <point x="173" y="399"/>
      <point x="196" y="435"/>
    </contour>
    <contour>
      <point x="166" y="318" type="curve" smooth="yes"/>
      <point x="166" y="339"/>
      <point x="156" y="342"/>
      <point x="142" y="342" type="curve" smooth="yes"/>
      <point x="125" y="342"/>
      <point x="56" y="315"/>
      <point x="14" y="296" type="curve"/>
      <point x="21" y="272" type="line"/>
      <point x="32" y="275"/>
      <point x="49" y="280"/>
      <point x="55" y="280" type="curve" smooth="yes"/>
      <point x="63" y="280"/>
      <point x="70" y="278"/>
      <point x="70" y="256" type="curve" smooth="yes"/>
      <point x="70" y="240"/>
      <point x="65" y="188"/>
      <point x="62" y="165" type="curve" smooth="yes"/>
      <point x="59" y="137"/>
      <point x="53" y="76"/>
      <point x="41" y="4" type="curve" smooth="yes"/>
      <point x="26" y="-87"/>
      <point x="15" y="-121"/>
      <point x="-23" y="-121" type="curve" smooth="yes"/>
      <point x="-58" y="-121"/>
      <point x="-83" y="-85"/>
      <point x="-93" y="-85" type="curve" smooth="yes"/>
      <point x="-103" y="-85"/>
      <point x="-145" y="-134"/>
      <point x="-145" y="-147" type="curve" smooth="yes"/>
      <point x="-145" y="-156"/>
      <point x="-104" y="-183"/>
      <point x="-63" y="-183" type="curve" smooth="yes"/>
      <point x="-35" y="-183"/>
      <point x="0" y="-170"/>
      <point x="26" y="-149" type="curve" smooth="yes"/>
      <point x="67" y="-117"/>
      <point x="119" y="-62"/>
      <point x="133" y="32" type="curve" smooth="yes"/>
      <point x="142" y="87"/>
      <point x="148" y="145"/>
      <point x="151" y="173" type="curve" smooth="yes"/>
      <point x="155" y="204"/>
      <point x="166" y="302"/>
    </contour>
  </outline>
</glyph>
<glyph name="k" format="2">
  <advance width="367"/>
  <unicode hex="006B"/>
  <anchor x="67" y="0" name="H"/>
  <anchor x="245" y="578" name="U"/>
  <outline>
    <contour>
      <point x="373" y="315" type="curve"/>
      <point x="373" y="331"/>
      <point x="366" y="340"/>
      <point x="337" y="340" type="curve" smooth="yes"/>
      <point x="306" y="340"/>
      <point x="265" y="334"/>
      <point x="226" y="328" type="curve"/>
      <point x="229" y="303" type="line"/>
      <point x="253" y="304"/>
      <point x="264" y="301"/>
      <point x="264" y="295" type="curve" smooth="yes"/>
      <point x="264" y="286"/>
      <point x="243" y="268"/>
      <point x="204" y="239" type="curve" smooth="yes"/>
      <point x="129" y="184" type="line"/>
      <point x="180" y="171" type="line"/>
      <point x="256" y="218" type="line" smooth="yes"/>
      <point x="329" y="262"/>
      <point x="373" y="300"/>
    </contour>
    <contour>
      <point x="188" y="518" type="curve" smooth="yes"/>
      <point x="188" y="553"/>
      <point x="180" y="556"/>
      <point x="166" y="556" type="curve" smooth="yes"/>
      <point x="149" y="556"/>
      <point x="74" y="529"/>
      <point x="33" y="510" type="curve"/>
      <point x="40" y="485" type="line"/>
      <point x="48" y="488"/>
      <point x="70" y="495"/>
      <point x="77" y="495" type="curve" smooth="yes"/>
      <point x="88" y="495"/>
      <point x="94" y="494"/>
      <point x="94" y="469" type="curve" smooth="yes"/>
      <point x="94" y="395"/>
      <point x="33" y="55"/>
      <point x="26" y="0" type="curve"/>
      <point x="41" y="-15" type="line"/>
      <point x="53" y="-8"/>
      <point x="112" y="16"/>
      <point x="126" y="23" type="curve"/>
      <point x="112" y="73"/>
      <point x="188" y="424"/>
    </contour>
    <contour>
      <point x="366" y="41" type="curve"/>
      <point x="355" y="64" type="line"/>
      <point x="339" y="55"/>
      <point x="320" y="52"/>
      <point x="307" y="52" type="curve" smooth="yes"/>
      <point x="274" y="52"/>
      <point x="237" y="178"/>
      <point x="194" y="204" type="curve"/>
      <point x="129" y="184" type="line"/>
      <point x="169" y="156"/>
      <point x="214" y="-14"/>
      <point x="267" y="-14" type="curve" smooth="yes"/>
      <point x="289" y="-14"/>
      <point x="334" y="14"/>
    </contour>
  </outline>
</glyph>
<glyph name="l" format="2">
  <advance width="200"/>
  <unicode hex="006C"/>
  <anchor x="76" y="0" name="H"/>
  <anchor x="157" y="600" name="U"/>
  <outline>
    <contour>
      <point x="189" y="40" type="curve"/>
      <point x="183" y="64" type="line"/>
      <point x="161" y="56"/>
      <point x="150" y="52"/>
      <point x="139" y="52" type="curve" smooth="yes"/>
      <point x="131" y="52"/>
      <point x="126" y="57"/>
      <point x="126" y="74" type="curve" smooth="yes"/>
      <point x="126" y="140"/>
      <point x="187" y="450"/>
      <point x="187" y="526" type="curve" smooth="yes"/>
      <point x="187" y="548"/>
      <point x="178" y="556"/>
      <point x="164" y="556" type="curve" smooth="yes"/>
      <point x="146" y="556"/>
      <point x="73" y="529"/>
      <point x="32" y="510" type="curve"/>
      <point x="38" y="485" type="line"/>
      <point x="50" y="489"/>
      <point x="68" y="495"/>
      <point x="74" y="495" type="curve" smooth="yes"/>
      <point x="83" y="495"/>
      <point x="92" y="493"/>
      <point x="92" y="470" type="curve" smooth="yes"/>
      <point x="92" y="402"/>
      <point x="32" y="77"/>
      <point x="32" y="28" type="curve" smooth="yes"/>
      <point x="32" y="0"/>
      <point x="45" y="-15"/>
      <point x="59" y="-15" type="curve" smooth="yes"/>
      <point x="89" y="-15"/>
      <point x="141" y="10"/>
    </contour>
  </outline>
</glyph>
<glyph name="m" format="2">
  <advance width="545"/>
  <unicode hex="006D"/>
  <anchor x="425" y="0" name="H"/>
  <anchor x="298" y="348" name="U"/>
  <outline>
    <contour>
      <point x="528" y="38" type="curve"/>
      <point x="523" y="61" type="line"/>
      <point x="504" y="54"/>
      <point x="495" y="50"/>
      <point x="481" y="50" type="curve" smooth="yes"/>
      <point x="473" y="50"/>
      <point x="468" y="54"/>
      <point x="468" y="70" type="curve" smooth="yes"/>
      <point x="468" y="109"/>
      <point x="496" y="212"/>
      <point x="496" y="265" type="curve" smooth="yes"/>
      <point x="496" y="310"/>
      <point x="475" y="326"/>
      <point x="447" y="326" type="curve" smooth="yes"/>
      <point x="413" y="326"/>
      <point x="379" y="309"/>
      <point x="325" y="255" type="curve"/>
      <point x="325" y="261"/>
      <point x="325" y="264"/>
      <point x="325" y="267" type="curve" smooth="yes"/>
      <point x="325" y="298"/>
      <point x="313" y="326"/>
      <point x="278" y="326" type="curve" smooth="yes"/>
      <point x="240" y="326"/>
      <point x="201" y="309"/>
      <point x="146" y="252" type="curve"/>
      <point x="148" y="264"/>
      <point x="149" y="278"/>
      <point x="149" y="286" type="curve" smooth="yes"/>
      <point x="149" y="319"/>
      <point x="145" y="326"/>
      <point x="131" y="326" type="curve" smooth="yes"/>
      <point x="114" y="326"/>
      <point x="48" y="300"/>
      <point x="9" y="283" type="curve"/>
      <point x="14" y="259" type="line"/>
      <point x="14" y="259"/>
      <point x="40" y="268"/>
      <point x="49" y="268" type="curve" smooth="yes"/>
      <point x="56" y="268"/>
      <point x="62" y="265"/>
      <point x="62" y="244" type="curve" smooth="yes"/>
      <point x="62" y="204"/>
      <point x="45" y="97"/>
      <point x="26" y="0" type="curve"/>
      <point x="40" y="-14" type="line"/>
      <point x="51" y="-8"/>
      <point x="106" y="15"/>
      <point x="118" y="21" type="curve"/>
      <point x="118" y="35"/>
      <point x="120" y="60"/>
      <point x="126" y="102" type="curve" smooth="yes"/>
      <point x="135" y="154"/>
      <point x="143" y="185"/>
      <point x="160" y="209" type="curve" smooth="yes"/>
      <point x="187" y="249"/>
      <point x="215" y="259"/>
      <point x="222" y="259" type="curve" smooth="yes"/>
      <point x="233" y="259"/>
      <point x="238" y="250"/>
      <point x="238" y="228" type="curve" smooth="yes"/>
      <point x="238" y="194"/>
      <point x="221" y="93"/>
      <point x="200" y="0" type="curve"/>
      <point x="214" y="-14" type="line"/>
      <point x="226" y="-8"/>
      <point x="282" y="15"/>
      <point x="295" y="21" type="curve"/>
      <point x="294" y="35"/>
      <point x="295" y="60"/>
      <point x="301" y="102" type="curve" smooth="yes"/>
      <point x="309" y="156"/>
      <point x="316" y="184"/>
      <point x="333" y="209" type="curve" smooth="yes"/>
      <point x="359" y="248"/>
      <point x="387" y="259"/>
      <point x="397" y="259" type="curve" smooth="yes"/>
      <point x="405" y="259"/>
      <point x="410" y="250"/>
      <point x="410" y="229" type="curve" smooth="yes"/>
      <point x="410" y="183"/>
      <point x="381" y="51"/>
      <point x="381" y="26" type="curve" smooth="yes"/>
      <point x="381" y="1"/>
      <point x="394" y="-14"/>
      <point x="408" y="-14" type="curve" smooth="yes"/>
      <point x="433" y="-14"/>
      <point x="485" y="13"/>
    </contour>
  </outline>
</glyph>
<glyph name="n" format="2">
  <advance width="376"/>
  <unicode hex="006E"/>
  <outline>
    <contour>
      <point x="368" y="38" type="curve"/>
      <point x="359" y="61" type="line"/>
      <point x="341" y="53"/>
      <point x="331" y="50"/>
      <point x="321" y="50" type="curve" smooth="yes"/>
      <point x="312" y="50"/>
      <point x="308" y="54"/>
      <point x="308" y="70" type="curve" smooth="yes"/>
      <point x="308" y="109"/>
      <point x="338" y="222"/>
      <point x="338" y="270" type="curve" smooth="yes"/>
      <point x="338" y="315"/>
      <point x="321" y="326"/>
      <point x="292" y="326" type="curve" smooth="yes"/>
      <point x="250" y="326"/>
      <point x="199" y="302"/>
      <point x="149" y="252" type="curve"/>
      <point x="150" y="263"/>
      <point x="151" y="277"/>
      <point x="151" y="287" type="curve" smooth="yes"/>
      <point x="151" y="320"/>
      <point x="147" y="326"/>
      <point x="134" y="326" type="curve" smooth="yes"/>
      <point x="120" y="326"/>
      <point x="50" y="300"/>
      <point x="11" y="283" type="curve"/>
      <point x="17" y="259" type="line"/>
      <point x="25" y="261"/>
      <point x="45" y="268"/>
      <point x="52" y="268" type="curve" smooth="yes"/>
      <point x="60" y="268"/>
      <point x="65" y="266"/>
      <point x="65" y="244" type="curve" smooth="yes"/>
      <point x="65" y="212"/>
      <point x="47" y="91"/>
      <point x="28" y="0" type="curve"/>
      <point x="42" y="-14" type="line"/>
      <point x="54" y="-8"/>
      <point x="108" y="16"/>
      <point x="121" y="21" type="curve"/>
      <point x="120" y="44"/>
      <point x="121" y="63"/>
      <point x="129" y="104" type="curve" smooth="yes"/>
      <point x="137" y="149"/>
      <point x="143" y="180"/>
      <point x="157" y="202" type="curve" smooth="yes"/>
      <point x="184" y="245"/>
      <point x="218" y="260"/>
      <point x="230" y="260" type="curve" smooth="yes"/>
      <point x="245" y="260"/>
      <point x="249" y="250"/>
      <point x="249" y="223" type="curve" smooth="yes"/>
      <point x="249" y="191"/>
      <point x="220" y="51"/>
      <point x="220" y="26" type="curve" smooth="yes"/>
      <point x="220" y="1"/>
      <point x="232" y="-14"/>
      <point x="249" y="-14" type="curve" smooth="yes"/>
      <point x="272" y="-14"/>
      <point x="326" y="13"/>
    </contour>
  </outline>
</glyph>
<glyph name="o" format="2">
  <advance width="317"/>
  <unicode hex="006F"/>
  <anchor x="139" y="0" name="H"/>
  <anchor x="183" y="348" name="U"/>
  <outline>
    <contour>
      <point x="303" y="194" type="curve"/>
      <point x="303" y="272"/>
      <point x="264" y="326"/>
      <point x="191" y="326" type="curve" smooth="yes"/>
      <point x="159" y="326"/>
      <point x="124" y="311"/>
      <point x="100" y="292" type="curve" smooth="yes"/>
      <point x="37" y="245"/>
      <point x="13" y="186"/>
      <point x="13" y="119" type="curve" smooth="yes"/>
      <point x="13" y="43"/>
      <point x="57" y="-14"/>
      <point x="129" y="-14" type="curve" smooth="yes"/>
      <point x="157" y="-14"/>
      <point x="194" y="2"/>
      <point x="218" y="21" type="curve" smooth="yes"/>
      <point x="270" y="64"/>
      <point x="303" y="132"/>
    </contour>
    <contour>
      <point x="222" y="167" type="curve"/>
      <point x="222" y="110"/>
      <point x="204" y="32"/>
      <point x="153" y="32" type="curve" smooth="yes"/>
      <point x="123" y="32"/>
      <point x="94" y="84"/>
      <point x="94" y="146" type="curve" smooth="yes"/>
      <point x="94" y="206"/>
      <point x="112" y="277"/>
      <point x="167" y="277" type="curve" smooth="yes"/>
      <point x="196" y="277"/>
      <point x="222" y="238"/>
    </contour>
  </outline>
</glyph>
<glyph name="p" format="2">
  <advance width="375"/>
  <unicode hex="0070"/>
  <anchor x="32" y="-165" name="H"/>
  <anchor x="216" y="366" name="U"/>
  <outline>
    <contour>
      <point x="351" y="229" type="curve"/>
      <point x="351" y="302"/>
      <point x="314" y="342"/>
      <point x="271" y="342" type="curve" smooth="yes"/>
      <point x="235" y="342"/>
      <point x="195" y="327"/>
      <point x="130" y="244" type="curve"/>
      <point x="133" y="180" type="line"/>
      <point x="164" y="243"/>
      <point x="211" y="278"/>
      <point x="228" y="278" type="curve" smooth="yes"/>
      <point x="246" y="278"/>
      <point x="265" y="244"/>
      <point x="265" y="192" type="curve" smooth="yes"/>
      <point x="265" y="155"/>
      <point x="260" y="117"/>
      <point x="247" y="91" type="curve" smooth="yes"/>
      <point x="238" y="71"/>
      <point x="221" y="58"/>
      <point x="200" y="58" type="curve" smooth="yes"/>
      <point x="175" y="58"/>
      <point x="135" y="84"/>
      <point x="120" y="110" type="curve"/>
      <point x="108" y="61" type="line"/>
      <point x="139" y="15"/>
      <point x="178" y="-15"/>
      <point x="204" y="-15" type="curve" smooth="yes"/>
      <point x="244" y="-15"/>
      <point x="280" y="24"/>
      <point x="302" y="60" type="curve" smooth="yes"/>
      <point x="329" y="105"/>
      <point x="351" y="172"/>
    </contour>
    <contour>
      <point x="154" y="318" type="curve"/>
      <point x="154" y="337"/>
      <point x="147" y="342"/>
      <point x="134" y="342" type="curve" smooth="yes"/>
      <point x="117" y="342"/>
      <point x="46" y="316"/>
      <point x="3" y="296" type="curve"/>
      <point x="10" y="272" type="line"/>
      <point x="17" y="275"/>
      <point x="37" y="280"/>
      <point x="44" y="280" type="curve" smooth="yes"/>
      <point x="52" y="280"/>
      <point x="61" y="278"/>
      <point x="61" y="256" type="curve" smooth="yes"/>
      <point x="61" y="194"/>
      <point x="0" y="-113"/>
      <point x="-7" y="-169" type="curve"/>
      <point x="6" y="-183" type="line"/>
      <point x="19" y="-177"/>
      <point x="77" y="-153"/>
      <point x="91" y="-149" type="curve"/>
      <point x="86" y="-136"/>
      <point x="90" y="-98"/>
      <point x="106" y="2" type="curve" smooth="yes"/>
      <point x="138" y="205"/>
      <point x="154" y="287"/>
    </contour>
  </outline>
</glyph>
<glyph name="q" format="2">
  <advance width="334"/>
  <unicode hex="0071"/>
  <outline>
    <contour>
      <point x="308" y="285" type="curve"/>
      <point x="293" y="287"/>
      <point x="255" y="326"/>
      <point x="218" y="326" type="curve" smooth="yes"/>
      <point x="189" y="326"/>
      <point x="144" y="310"/>
      <point x="118" y="293" type="curve" smooth="yes"/>
      <point x="52" y="250"/>
      <point x="13" y="179"/>
      <point x="13" y="106" type="curve" smooth="yes"/>
      <point x="13" y="19"/>
      <point x="60" y="-14"/>
      <point x="93" y="-14" type="curve" smooth="yes"/>
      <point x="125" y="-14"/>
      <point x="156" y="10"/>
      <point x="200" y="65" type="curve"/>
      <point x="212" y="140" type="line"/>
      <point x="172" y="82"/>
      <point x="143" y="54"/>
      <point x="129" y="54" type="curve" smooth="yes"/>
      <point x="109" y="54"/>
      <point x="89" y="80"/>
      <point x="89" y="132" type="curve" smooth="yes"/>
      <point x="89" y="187"/>
      <point x="122" y="276"/>
      <point x="181" y="276" type="curve" smooth="yes"/>
      <point x="212" y="276"/>
      <point x="248" y="222"/>
      <point x="260" y="222" type="curve" smooth="yes"/>
      <point x="272" y="222"/>
      <point x="288" y="271"/>
    </contour>
    <contour>
      <point x="331" y="303" type="curve"/>
      <point x="319" y="326" type="line"/>
      <point x="288" y="313"/>
      <point x="232" y="287"/>
      <point x="228" y="265" type="curve" smooth="yes"/>
      <point x="201" y="103"/>
      <point x="167" y="-108"/>
      <point x="159" y="-161" type="curve"/>
      <point x="174" y="-174" type="line"/>
      <point x="186" y="-168"/>
      <point x="243" y="-146"/>
      <point x="256" y="-142" type="curve"/>
      <point x="253" y="-137"/>
      <point x="252" y="-126"/>
      <point x="252" y="-112" type="curve" smooth="yes"/>
      <point x="252" y="-50"/>
      <point x="277" y="102"/>
      <point x="303" y="254" type="curve" smooth="yes"/>
      <point x="308" y="283"/>
      <point x="314" y="290"/>
    </contour>
  </outline>
</glyph>
<glyph name="r" format="2">
  <advance width="306"/>
  <unicode hex="0072"/>
  <anchor x="69" y="0" name="H"/>
  <anchor x="188" y="366" name="U"/>
  <outline>
    <contour>
      <point x="326" y="311" type="curve"/>
      <point x="304" y="320"/>
      <point x="278" y="342"/>
      <point x="261" y="342" type="curve" smooth="yes"/>
      <point x="229" y="342"/>
      <point x="197" y="325"/>
      <point x="149" y="248" type="curve"/>
      <point x="152" y="266"/>
      <point x="156" y="295"/>
      <point x="156" y="306" type="curve" smooth="yes"/>
      <point x="156" y="335"/>
      <point x="152" y="342"/>
      <point x="139" y="342" type="curve" smooth="yes"/>
      <point x="121" y="342"/>
      <point x="50" y="315"/>
      <point x="9" y="296" type="curve"/>
      <point x="16" y="272" type="line"/>
      <point x="23" y="274"/>
      <point x="43" y="280"/>
      <point x="50" y="280" type="curve" smooth="yes"/>
      <point x="59" y="280"/>
      <point x="66" y="278"/>
      <point x="66" y="256" type="curve" smooth="yes"/>
      <point x="66" y="212"/>
      <point x="48" y="103"/>
      <point x="27" y="0" type="curve"/>
      <point x="42" y="-15" type="line"/>
      <point x="54" y="-8"/>
      <point x="109" y="16"/>
      <point x="124" y="22" type="curve"/>
      <point x="123" y="61"/>
      <point x="130" y="103"/>
      <point x="141" y="140" type="curve" smooth="yes"/>
      <point x="161" y="210"/>
      <point x="200" y="262"/>
      <point x="226" y="262" type="curve" smooth="yes"/>
      <point x="240" y="262"/>
      <point x="255" y="234"/>
      <point x="274" y="234" type="curve" smooth="yes"/>
      <point x="283" y="234"/>
      <point x="314" y="295"/>
    </contour>
  </outline>
</glyph>
<glyph name="s" format="2">
  <advance width="287"/>
  <unicode hex="0073"/>
  <anchor x="119" y="0" name="H"/>
  <anchor x="173" y="366" name="U"/>
  <outline>
    <contour>
      <point x="288" y="309" type="curve"/>
      <point x="258" y="314"/>
      <point x="232" y="342"/>
      <point x="180" y="342" type="curve" smooth="yes"/>
      <point x="119" y="342"/>
      <point x="39" y="300"/>
      <point x="39" y="239" type="curve" smooth="yes"/>
      <point x="39" y="207"/>
      <point x="54" y="180"/>
      <point x="105" y="154" type="curve" smooth="yes"/>
      <point x="142" y="135"/>
      <point x="179" y="112"/>
      <point x="179" y="78" type="curve" smooth="yes"/>
      <point x="179" y="50"/>
      <point x="158" y="31"/>
      <point x="127" y="31" type="curve" smooth="yes"/>
      <point x="65" y="31"/>
      <point x="48" y="109"/>
      <point x="35" y="109" type="curve" smooth="yes"/>
      <point x="25" y="109"/>
      <point x="-6" y="54"/>
      <point x="-6" y="41" type="curve" smooth="yes"/>
      <point x="-6" y="20"/>
      <point x="41" y="-15"/>
      <point x="103" y="-15" type="curve" smooth="yes"/>
      <point x="166" y="-15"/>
      <point x="260" y="38"/>
      <point x="260" y="105" type="curve" smooth="yes"/>
      <point x="260" y="157"/>
      <point x="218" y="184"/>
      <point x="178" y="204" type="curve" smooth="yes"/>
      <point x="139" y="224"/>
      <point x="119" y="239"/>
      <point x="119" y="262" type="curve" smooth="yes"/>
      <point x="119" y="285"/>
      <point x="134" y="301"/>
      <point x="161" y="301" type="curve" smooth="yes"/>
      <point x="196" y="301"/>
      <point x="218" y="252"/>
      <point x="233" y="252" type="curve" smooth="yes"/>
      <point x="243" y="252"/>
      <point x="271" y="287"/>
    </contour>
  </outline>
</glyph>
<glyph name="t" format="2">
  <advance width="241"/>
  <unicode hex="0074"/>
  <outline>
    <contour>
      <point x="252" y="303" type="curve"/>
      <point x="242" y="315" type="line"/>
      <point x="57" y="315" type="line"/>
      <point x="15" y="287" type="line"/>
      <point x="23" y="273" type="line"/>
      <point x="153" y="273" type="line" smooth="yes"/>
      <point x="183" y="273"/>
      <point x="198" y="270"/>
      <point x="204" y="258" type="curve"/>
      <point x="212" y="262"/>
      <point x="243" y="290"/>
    </contour>
    <contour>
      <point x="231" y="53" type="curve"/>
      <point x="221" y="79" type="line"/>
      <point x="186" y="64"/>
      <point x="166" y="57"/>
      <point x="150" y="57" type="curve" smooth="yes"/>
      <point x="137" y="57"/>
      <point x="127" y="68"/>
      <point x="127" y="97" type="curve" smooth="yes"/>
      <point x="127" y="106"/>
      <point x="129" y="129"/>
      <point x="132" y="147" type="curve" smooth="yes"/>
      <point x="161" y="335" type="line" smooth="yes"/>
      <point x="168" y="377"/>
      <point x="175" y="397"/>
      <point x="179" y="401" type="curve"/>
      <point x="169" y="410" type="line"/>
      <point x="103" y="377" type="line" smooth="yes"/>
      <point x="90" y="370"/>
      <point x="84" y="363"/>
      <point x="79" y="327" type="curve" smooth="yes"/>
      <point x="45" y="115" type="line" smooth="yes"/>
      <point x="41" y="89"/>
      <point x="40" y="73"/>
      <point x="40" y="55" type="curve" smooth="yes"/>
      <point x="40" y="14"/>
      <point x="71" y="-14"/>
      <point x="99" y="-14" type="curve" smooth="yes"/>
      <point x="125" y="-14"/>
      <point x="180" y="13"/>
    </contour>
  </outline>
</glyph>
<glyph name="u" format="2">
  <advance width="403"/>
  <unicode hex="0075"/>
  <anchor x="156" y="0" name="H"/>
  <anchor x="227" y="366" name="U"/>
  <outline>
    <contour>
      <point x="391" y="38" type="curve"/>
      <point x="384" y="62" type="line"/>
      <point x="367" y="55"/>
      <point x="358" y="52"/>
      <point x="345" y="52" type="curve" smooth="yes"/>
      <point x="333" y="52"/>
      <point x="326" y="67"/>
      <point x="326" y="112" type="curve" smooth="yes"/>
      <point x="326" y="160"/>
      <point x="352" y="269"/>
      <point x="352" y="312" type="curve" smooth="yes"/>
      <point x="352" y="334"/>
      <point x="349" y="342"/>
      <point x="335" y="342" type="curve" smooth="yes"/>
      <point x="317" y="342"/>
      <point x="248" y="315"/>
      <point x="207" y="296" type="curve"/>
      <point x="213" y="272" type="line"/>
      <point x="223" y="275"/>
      <point x="239" y="280"/>
      <point x="245" y="280" type="curve" smooth="yes"/>
      <point x="254" y="280"/>
      <point x="259" y="278"/>
      <point x="259" y="256" type="curve" smooth="yes"/>
      <point x="259" y="225"/>
      <point x="244" y="162"/>
      <point x="239" y="117" type="curve" smooth="yes"/>
      <point x="230" y="27"/>
      <point x="261" y="-15"/>
      <point x="287" y="-15" type="curve" smooth="yes"/>
      <point x="311" y="-15"/>
      <point x="352" y="12"/>
    </contour>
    <contour>
      <point x="244" y="150" type="line"/>
      <point x="201" y="83"/>
      <point x="165" y="56"/>
      <point x="148" y="56" type="curve" smooth="yes"/>
      <point x="138" y="56"/>
      <point x="129" y="71"/>
      <point x="129" y="98" type="curve" smooth="yes"/>
      <point x="129" y="141"/>
      <point x="158" y="269"/>
      <point x="158" y="312" type="curve" smooth="yes"/>
      <point x="158" y="334"/>
      <point x="154" y="342"/>
      <point x="140" y="342" type="curve" smooth="yes"/>
      <point x="122" y="342"/>
      <point x="50" y="315"/>
      <point x="8" y="296" type="curve"/>
      <point x="14" y="272" type="line"/>
      <point x="25" y="275"/>
      <point x="43" y="280"/>
      <point x="49" y="280" type="curve" smooth="yes"/>
      <point x="58" y="280"/>
      <point x="64" y="278"/>
      <point x="64" y="256" type="curve" smooth="yes"/>
      <point x="64" y="220"/>
      <point x="40" y="118"/>
      <point x="40" y="75" type="curve" smooth="yes"/>
      <point x="40" y="15"/>
      <point x="77" y="-15"/>
      <point x="105" y="-15" type="curve" smooth="yes"/>
      <point x="150" y="-15"/>
      <point x="203" y="25"/>
      <point x="240" y="79" type="curve"/>
    </contour>
  </outline>
</glyph>
<glyph name="v" format="2">
  <advance width="357"/>
  <unicode hex="0076"/>
  <anchor x="157" y="0" name="H"/>
  <anchor x="204" y="366" name="U"/>
  <outline>
    <contour>
      <point x="355" y="312" type="curve"/>
      <point x="355" y="335"/>
      <point x="342" y="342"/>
      <point x="326" y="342" type="curve" smooth="yes"/>
      <point x="304" y="342"/>
      <point x="242" y="317"/>
      <point x="212" y="300" type="curve"/>
      <point x="220" y="276" type="line"/>
      <point x="230" y="280"/>
      <point x="238" y="282"/>
      <point x="246" y="282" type="curve" smooth="yes"/>
      <point x="260" y="282"/>
      <point x="266" y="276"/>
      <point x="266" y="264" type="curve" smooth="yes"/>
      <point x="266" y="250"/>
      <point x="254" y="191"/>
      <point x="186" y="85" type="curve"/>
      <point x="185" y="104"/>
      <point x="157" y="258"/>
      <point x="146" y="296" type="curve" smooth="yes"/>
      <point x="136" y="330"/>
      <point x="128" y="342"/>
      <point x="114" y="342" type="curve" smooth="yes"/>
      <point x="99" y="342"/>
      <point x="41" y="314"/>
      <point x="0" y="293" type="curve"/>
      <point x="9" y="269" type="line"/>
      <point x="19" y="272"/>
      <point x="38" y="278"/>
      <point x="45" y="278" type="curve" smooth="yes"/>
      <point x="53" y="278"/>
      <point x="63" y="274"/>
      <point x="71" y="248" type="curve" smooth="yes"/>
      <point x="84" y="203"/>
      <point x="108" y="81"/>
      <point x="119" y="0" type="curve"/>
      <point x="133" y="-15" type="line"/>
      <point x="143" y="-10"/>
      <point x="186" y="10"/>
      <point x="194" y="14" type="curve"/>
      <point x="314" y="207"/>
      <point x="355" y="280"/>
    </contour>
  </outline>
</glyph>
<glyph name="w" format="2">
  <advance width="508"/>
  <unicode hex="0077"/>
  <anchor x="293" y="366" name="U"/>
  <outline>
    <contour>
      <point x="509" y="314" type="curve"/>
      <point x="509" y="339"/>
      <point x="494" y="342"/>
      <point x="478" y="342" type="curve" smooth="yes"/>
      <point x="458" y="342"/>
      <point x="413" y="328"/>
      <point x="377" y="306" type="curve"/>
      <point x="386" y="281" type="line"/>
      <point x="397" y="284"/>
      <point x="410" y="287"/>
      <point x="417" y="287" type="curve" smooth="yes"/>
      <point x="430" y="287"/>
      <point x="437" y="280"/>
      <point x="437" y="270" type="curve" smooth="yes"/>
      <point x="437" y="241"/>
      <point x="410" y="180"/>
      <point x="359" y="89" type="curve"/>
      <point x="356" y="124"/>
      <point x="346" y="173"/>
      <point x="339" y="219" type="curve" smooth="yes"/>
      <point x="331" y="264"/>
      <point x="313" y="342"/>
      <point x="308" y="342" type="curve" smooth="yes"/>
      <point x="292" y="342"/>
      <point x="255" y="318"/>
      <point x="235" y="299" type="curve"/>
      <point x="233" y="255"/>
      <point x="201" y="170"/>
      <point x="162" y="94" type="curve"/>
      <point x="160" y="130"/>
      <point x="145" y="261"/>
      <point x="138" y="292" type="curve" smooth="yes"/>
      <point x="130" y="327"/>
      <point x="124" y="342"/>
      <point x="111" y="342" type="curve" smooth="yes"/>
      <point x="95" y="342"/>
      <point x="38" y="315"/>
      <point x="-4" y="293" type="curve"/>
      <point x="3" y="269" type="line"/>
      <point x="3" y="269"/>
      <point x="31" y="278"/>
      <point x="40" y="278" type="curve" smooth="yes"/>
      <point x="48" y="278"/>
      <point x="60" y="274"/>
      <point x="66" y="248" type="curve"/>
      <point x="73" y="218"/>
      <point x="86" y="82"/>
      <point x="95" y="0" type="curve"/>
      <point x="109" y="-15" type="line"/>
      <point x="119" y="-10"/>
      <point x="167" y="15"/>
      <point x="176" y="20" type="curve"/>
      <point x="221" y="99"/>
      <point x="251" y="174"/>
      <point x="260" y="208" type="curve"/>
      <point x="273" y="163"/>
      <point x="284" y="81"/>
      <point x="295" y="0" type="curve"/>
      <point x="310" y="-15" type="line"/>
      <point x="319" y="-10"/>
      <point x="362" y="11"/>
      <point x="370" y="16" type="curve"/>
      <point x="482" y="219"/>
      <point x="509" y="276"/>
    </contour>
  </outline>
</glyph>
<glyph name="x" format="2">
  <advance width="346"/>
  <unicode hex="0078"/>
  <anchor x="249" y="0" name="H"/>
  <anchor x="209" y="366" name="U"/>
  <outline>
    <contour>
      <point x="348" y="323" type="curve" smooth="yes"/>
      <point x="348" y="333"/>
      <point x="337" y="342"/>
      <point x="309" y="342" type="curve" smooth="yes"/>
      <point x="288" y="342"/>
      <point x="242" y="337"/>
      <point x="210" y="330" type="curve"/>
      <point x="211" y="304" type="line"/>
      <point x="218" y="305"/>
      <point x="224" y="305"/>
      <point x="228" y="305" type="curve" smooth="yes"/>
      <point x="247" y="305"/>
      <point x="252" y="301"/>
      <point x="252" y="293" type="curve" smooth="yes"/>
      <point x="252" y="285"/>
      <point x="216" y="231"/>
      <point x="173" y="181" type="curve"/>
      <point x="200" y="150" type="line"/>
      <point x="297" y="249"/>
      <point x="348" y="303"/>
    </contour>
    <contour>
      <point x="340" y="37" type="curve"/>
      <point x="331" y="61" type="line"/>
      <point x="313" y="52"/>
      <point x="295" y="49"/>
      <point x="284" y="49" type="curve" smooth="yes"/>
      <point x="237" y="49"/>
      <point x="170" y="342"/>
      <point x="116" y="342" type="curve" smooth="yes"/>
      <point x="100" y="342"/>
      <point x="44" y="315"/>
      <point x="7" y="296" type="curve"/>
      <point x="15" y="271" type="line"/>
      <point x="29" y="275"/>
      <point x="54" y="280"/>
      <point x="62" y="280" type="curve" smooth="yes"/>
      <point x="110" y="280"/>
      <point x="170" y="-15"/>
      <point x="235" y="-15" type="curve" smooth="yes"/>
      <point x="259" y="-15"/>
      <point x="298" y="8"/>
    </contour>
    <contour>
      <point x="179" y="135" type="curve"/>
      <point x="151" y="168" type="line"/>
      <point x="107" y="114"/>
      <point x="31" y="42"/>
      <point x="-16" y="0" type="curve"/>
      <point x="-4" y="-15" type="line"/>
      <point x="13" y="-9"/>
      <point x="68" y="0"/>
      <point x="86" y="1" type="curve"/>
      <point x="124" y="60"/>
      <point x="159" y="105"/>
    </contour>
  </outline>
</glyph>
<glyph name="y" format="2">
  <advance width="358"/>
  <unicode hex="0079"/>
  <anchor x="216" y="366" name="U"/>
  <outline>
    <contour>
      <point x="209" y="19" type="line"/>
      <point x="192" y="118"/>
      <point x="161" y="234"/>
      <point x="139" y="296" type="curve" smooth="yes"/>
      <point x="127" y="329"/>
      <point x="118" y="342"/>
      <point x="105" y="342" type="curve" smooth="yes"/>
      <point x="87" y="342"/>
      <point x="33" y="318"/>
      <point x="-9" y="296" type="curve"/>
      <point x="-1" y="272" type="line"/>
      <point x="9" y="275"/>
      <point x="27" y="280"/>
      <point x="33" y="280" type="curve" smooth="yes"/>
      <point x="42" y="280"/>
      <point x="48" y="275"/>
      <point x="60" y="250" type="curve" smooth="yes"/>
      <point x="81" y="204"/>
      <point x="123" y="44"/>
      <point x="137" y="-40" type="curve"/>
      <point x="149" y="-50" type="line"/>
    </contour>
    <contour>
      <point x="351" y="314" type="curve"/>
      <point x="351" y="339"/>
      <point x="335" y="342"/>
      <point x="318" y="342" type="curve" smooth="yes"/>
      <point x="294" y="342"/>
      <point x="246" y="323"/>
      <point x="211" y="303" type="curve"/>
      <point x="220" y="278" type="line"/>
      <point x="235" y="284"/>
      <point x="242" y="287"/>
      <point x="251" y="287" type="curve" smooth="yes"/>
      <point x="263" y="287"/>
      <point x="270" y="279"/>
      <point x="270" y="267" type="curve" smooth="yes"/>
      <point x="270" y="238"/>
      <point x="218" y="122"/>
      <point x="167" y="27" type="curve" smooth="yes"/>
      <point x="120" y="-60"/>
      <point x="81" y="-112"/>
      <point x="45" y="-112" type="curve" smooth="yes"/>
      <point x="27" y="-112"/>
      <point x="2" y="-101"/>
      <point x="-20" y="-80" type="curve"/>
      <point x="-34" y="-86"/>
      <point x="-71" y="-136"/>
      <point x="-71" y="-150" type="curve" smooth="yes"/>
      <point x="-71" y="-161"/>
      <point x="-31" y="-183"/>
      <point x="6" y="-183" type="curve" smooth="yes"/>
      <point x="92" y="-183"/>
      <point x="153" y="-96"/>
      <point x="221" y="30" type="curve" smooth="yes"/>
      <point x="297" y="172"/>
      <point x="351" y="281"/>
    </contour>
  </outline>
</glyph>
<glyph name="z" format="2">
  <advance width="270"/>
  <unicode hex="007A"/>
  <anchor x="122" y="0" name="H"/>
  <anchor x="171" y="348" name="U"/>
  <outline>
    <contour>
      <point x="273" y="304" type="curve"/>
      <point x="263" y="319" type="line"/>
      <point x="93" y="319" type="line" smooth="yes"/>
      <point x="78" y="319"/>
      <point x="60" y="323"/>
      <point x="51" y="326" type="curve"/>
      <point x="47" y="306"/>
      <point x="33" y="253"/>
      <point x="25" y="211" type="curve"/>
      <point x="47" y="206" type="line"/>
      <point x="61" y="245"/>
      <point x="71" y="253"/>
      <point x="93" y="253" type="curve" smooth="yes"/>
      <point x="173" y="253" type="line"/>
      <point x="133" y="205"/>
      <point x="63" y="90"/>
      <point x="-6" y="6" type="curve"/>
      <point x="6" y="-10" type="line"/>
      <point x="41" y="7"/>
      <point x="62" y="16"/>
      <point x="76" y="16" type="curve" smooth="yes"/>
      <point x="100" y="16"/>
      <point x="141" y="-6"/>
      <point x="182" y="-6" type="curve" smooth="yes"/>
      <point x="227" y="-6"/>
      <point x="245" y="27"/>
      <point x="270" y="85" type="curve"/>
      <point x="250" y="97" type="line"/>
      <point x="232" y="64"/>
      <point x="219" y="59"/>
      <point x="210" y="59" type="curve" smooth="yes"/>
      <point x="187" y="59"/>
      <point x="146" y="78"/>
      <point x="127" y="78" type="curve" smooth="yes"/>
      <point x="118" y="78"/>
      <point x="106" y="75"/>
      <point x="99" y="73" type="curve"/>
      <point x="172" y="167"/>
      <point x="197" y="222"/>
    </contour>
  </outline>
</glyph>
<glyph name="braceleft" format="2">
  <advance width="240"/>
  <unicode hex="007B"/>
  <outline>
    <contour>
      <point x="274" y="531" type="curve"/>
      <point x="265" y="557" type="line"/>
      <point x="188" y="526"/>
      <point x="128" y="484"/>
      <point x="119" y="421" type="curve" smooth="yes"/>
      <point x="112" y="369"/>
      <point x="123" y="352"/>
      <point x="116" y="300" type="curve" smooth="yes"/>
      <point x="111" y="266"/>
      <point x="85" y="240"/>
      <point x="35" y="226" type="curve"/>
      <point x="37" y="197" type="line"/>
      <point x="49" y="199"/>
      <point x="46" y="199"/>
      <point x="58" y="199" type="curve" smooth="yes"/>
      <point x="85" y="199"/>
      <point x="99" y="184"/>
      <point x="94" y="147" type="curve" smooth="yes"/>
      <point x="87" y="94"/>
      <point x="70" y="69"/>
      <point x="64" y="19" type="curve" smooth="yes"/>
      <point x="54" y="-47"/>
      <point x="95" y="-78"/>
      <point x="170" y="-109" type="curve"/>
      <point x="187" y="-78" type="line"/>
      <point x="145" y="-50"/>
      <point x="140" y="-28"/>
      <point x="145" y="9" type="curve" smooth="yes"/>
      <point x="151" y="50"/>
      <point x="168" y="83"/>
      <point x="175" y="134" type="curve" smooth="yes"/>
      <point x="182" y="185"/>
      <point x="167" y="219"/>
      <point x="125" y="227" type="curve"/>
      <point x="164" y="244"/>
      <point x="196" y="283"/>
      <point x="201" y="321" type="curve" smooth="yes"/>
      <point x="208" y="370"/>
      <point x="198" y="392"/>
      <point x="205" y="441" type="curve"/>
      <point x="210" y="476"/>
      <point x="237" y="508"/>
    </contour>
  </outline>
</glyph>
<glyph name="bar" format="2">
  <advance width="171"/>
  <unicode hex="007C"/>
  <outline>
    <contour>
      <point x="171" y="574" type="line"/>
      <point x="157" y="585" type="line"/>
      <point x="143" y="582"/>
      <point x="123" y="572"/>
      <point x="109" y="563" type="curve"/>
      <point x="12" y="-126" type="line"/>
      <point x="26" y="-138" type="line"/>
      <point x="37" y="-134"/>
      <point x="64" y="-121"/>
      <point x="73" y="-115" type="curve"/>
    </contour>
  </outline>
</glyph>
<glyph name="braceright" format="2">
  <advance width="251"/>
  <unicode hex="007D"/>
  <outline>
    <contour>
      <point x="220" y="232" type="curve"/>
      <point x="219" y="263" type="line"/>
      <point x="205" y="261"/>
      <point x="209" y="261"/>
      <point x="196" y="261" type="curve" smooth="yes"/>
      <point x="167" y="261"/>
      <point x="153" y="276"/>
      <point x="158" y="315" type="curve" smooth="yes"/>
      <point x="166" y="370"/>
      <point x="183" y="397"/>
      <point x="190" y="449" type="curve" smooth="yes"/>
      <point x="200" y="520"/>
      <point x="157" y="552"/>
      <point x="78" y="585" type="curve"/>
      <point x="61" y="552" type="line"/>
      <point x="105" y="523"/>
      <point x="110" y="500"/>
      <point x="105" y="459" type="curve" smooth="yes"/>
      <point x="99" y="416"/>
      <point x="80" y="382"/>
      <point x="73" y="329" type="curve" smooth="yes"/>
      <point x="66" y="275"/>
      <point x="82" y="240"/>
      <point x="126" y="231" type="curve"/>
      <point x="85" y="213"/>
      <point x="51" y="173"/>
      <point x="46" y="132" type="curve"/>
      <point x="39" y="81"/>
      <point x="49" y="57"/>
      <point x="42" y="6" type="curve" smooth="yes"/>
      <point x="37" y="-30"/>
      <point x="8" y="-63"/>
      <point x="-30" y="-87" type="curve"/>
      <point x="-20" y="-115" type="line"/>
      <point x="59" y="-82"/>
      <point x="123" y="-38"/>
      <point x="132" y="27" type="curve" smooth="yes"/>
      <point x="140" y="81"/>
      <point x="128" y="100"/>
      <point x="136" y="154" type="curve" smooth="yes"/>
      <point x="141" y="191"/>
      <point x="167" y="217"/>
    </contour>
  </outline>
</glyph>
<glyph name="asciitilde" format="2">
  <advance width="348"/>
  <unicode hex="007E"/>
  <outline>
    <contour>
      <point x="345" y="271" type="curve"/>
      <point x="322" y="283" type="line"/>
      <point x="296" y="243"/>
      <point x="278" y="228"/>
      <point x="258" y="228" type="curve" smooth="yes"/>
      <point x="225" y="228"/>
      <point x="188" y="283"/>
      <point x="145" y="283" type="curve" smooth="yes"/>
      <point x="105" y="283"/>
      <point x="54" y="225"/>
      <point x="27" y="174" type="curve"/>
      <point x="49" y="160" type="line"/>
      <point x="74" y="199"/>
      <point x="92" y="216"/>
      <point x="113" y="216" type="curve" smooth="yes"/>
      <point x="148" y="216"/>
      <point x="186" y="161"/>
      <point x="226" y="161" type="curve" smooth="yes"/>
      <point x="267" y="161"/>
      <point x="318" y="220"/>
    </contour>
  </outline>
</glyph>
<glyph name="exclamdown" format="2">
  <advance width="166"/>
  <unicode hex="00A1"/>
  <outline>
    <contour>
      <point x="97" y="178" type="line"/>
      <point x="88" y="186" type="line"/>
      <point x="77" y="182"/>
      <point x="61" y="176"/>
      <point x="52" y="170" type="curve"/>
      <point x="-20" y="-175" type="line"/>
      <point x="-5" y="-187" type="line"/>
      <point x="12" y="-181"/>
      <point x="58" y="-158"/>
      <point x="78" y="-147" type="curve"/>
    </contour>
    <contour>
      <point x="34" y="256" type="curve"/>
      <point x="34" y="233"/>
      <point x="47" y="217"/>
      <point x="76" y="217" type="curve" smooth="yes"/>
      <point x="117" y="217"/>
      <point x="141" y="255"/>
      <point x="141" y="285" type="curve" smooth="yes"/>
      <point x="141" y="308"/>
      <point x="127" y="324"/>
      <point x="99" y="324" type="curve" smooth="yes"/>
      <point x="59" y="324"/>
      <point x="34" y="286"/>
    </contour>
  </outline>
</glyph>
<glyph name="cent" format="2">
  <advance width="324"/>
  <unicode hex="00A2"/>
  <outline>
    <contour>
      <point x="332" y="326" type="curve"/>
      <point x="313" y="331"/>
      <point x="277" y="367"/>
      <point x="234" y="367" type="curve" smooth="yes"/>
      <point x="192" y="367"/>
      <point x="160" y="355"/>
      <point x="134" y="339" type="curve" smooth="yes"/>
      <point x="65" y="293"/>
      <point x="31" y="227"/>
      <point x="31" y="164" type="curve" smooth="yes"/>
      <point x="31" y="66"/>
      <point x="98" y="38"/>
      <point x="138" y="38" type="curve" smooth="yes"/>
      <point x="188" y="38"/>
      <point x="221" y="60"/>
      <point x="294" y="126" type="curve"/>
      <point x="291" y="131"/>
      <point x="280" y="146"/>
      <point x="276" y="152" type="curve"/>
      <point x="226" y="110"/>
      <point x="200" y="91"/>
      <point x="170" y="91" type="curve" smooth="yes"/>
      <point x="141" y="91"/>
      <point x="110" y="117"/>
      <point x="110" y="177" type="curve" smooth="yes"/>
      <point x="110" y="242"/>
      <point x="145" y="321"/>
      <point x="198" y="321" type="curve" smooth="yes"/>
      <point x="234" y="321"/>
      <point x="249" y="263"/>
      <point x="261" y="263" type="curve" smooth="yes"/>
      <point x="276" y="263"/>
      <point x="315" y="312"/>
    </contour>
    <contour>
      <point x="228" y="416" type="line"/>
      <point x="221" y="424" type="line"/>
      <point x="208" y="420"/>
      <point x="200" y="414"/>
      <point x="187" y="405" type="curve"/>
      <point x="130" y="-9" type="line"/>
      <point x="137" y="-17" type="line"/>
      <point x="148" y="-13"/>
      <point x="162" y="-5"/>
      <point x="171" y="1" type="curve"/>
    </contour>
  </outline>
</glyph>
<glyph name="sterling" format="2">
  <advance width="324"/>
  <unicode hex="00A3"/>
  <outline>
    <contour>
      <point x="324" y="406" type="curve"/>
      <point x="287" y="428"/>
      <point x="253" y="430"/>
      <point x="231" y="430" type="curve" smooth="yes"/>
      <point x="129" y="430"/>
      <point x="56" y="335"/>
      <point x="48" y="201" type="curve" smooth="yes"/>
      <point x="39" y="68"/>
      <point x="26" y="51"/>
      <point x="-20" y="14" type="curve"/>
      <point x="-11" y="-10" type="line"/>
      <point x="57" y="33"/>
      <point x="202" y="-34"/>
      <point x="264" y="0" type="curve"/>
      <point x="269" y="13"/>
      <point x="285" y="66"/>
      <point x="294" y="106" type="curve"/>
      <point x="272" y="115" type="line"/>
      <point x="246" y="61"/>
      <point x="230" y="49"/>
      <point x="190" y="48" type="curve" smooth="yes"/>
      <point x="142" y="46"/>
      <point x="140" y="53"/>
      <point x="80" y="48" type="curve"/>
      <point x="113" y="89"/>
      <point x="133" y="140"/>
      <point x="135" y="207" type="curve" smooth="yes"/>
      <point x="142" y="378"/>
      <point x="189" y="388"/>
      <point x="215" y="388" type="curve" smooth="yes"/>
      <point x="254" y="388"/>
      <point x="273" y="353"/>
      <point x="271" y="295" type="curve"/>
      <point x="296" y="295" type="line"/>
      <point x="303" y="313"/>
      <point x="320" y="382"/>
    </contour>
    <contour>
      <point x="236" y="213" type="line"/>
      <point x="226" y="223" type="line"/>
      <point x="18" y="223" type="line"/>
      <point x="14" y="216"/>
      <point x="4" y="200"/>
      <point x="2" y="193" type="curve"/>
      <point x="9" y="181" type="line"/>
      <point x="218" y="181" type="line"/>
    </contour>
  </outline>
</glyph>
<glyph name="currency" format="2">
  <advance width="324"/>
  <unicode hex="00A4"/>
  <outline>
    <contour>
      <point x="175" y="286" type="curve" smooth="yes"/>
      <point x="215" y="284"/>
      <point x="238" y="247"/>
      <point x="233" y="209" type="curve" smooth="yes"/>
      <point x="227" y="170"/>
      <point x="194" y="133"/>
      <point x="154" y="133" type="curve" smooth="yes"/>
      <point x="113" y="133"/>
      <point x="91" y="173"/>
      <point x="96" y="209" type="curve" smooth="yes"/>
      <point x="101" y="249"/>
      <point x="135" y="286"/>
    </contour>
    <contour>
      <point x="57" y="209" type="curve"/>
      <point x="50" y="148"/>
      <point x="85" y="90"/>
      <point x="148" y="90" type="curve" smooth="yes"/>
      <point x="213" y="90"/>
      <point x="263" y="149"/>
      <point x="271" y="209" type="curve" smooth="yes"/>
      <point x="279" y="267"/>
      <point x="243" y="329"/>
      <point x="181" y="329" type="curve" smooth="yes"/>
      <point x="120" y="329"/>
      <point x="66" y="272"/>
    </contour>
    <contour>
      <point x="100" y="160" type="line"/>
      <point x="86" y="159" type="line"/>
      <point x="17" y="92" type="line"/>
      <point x="19" y="83"/>
      <point x="22" y="72"/>
      <point x="25" y="64" type="curve"/>
      <point x="39" y="63" type="line"/>
      <point x="108" y="130" type="line"/>
    </contour>
    <contour>
      <point x="127" y="276" type="line"/>
      <point x="128" y="292" type="line"/>
      <point x="79" y="356" type="line"/>
      <point x="70" y="351"/>
      <point x="59" y="347"/>
      <point x="51" y="342" type="curve"/>
      <point x="48" y="327" type="line"/>
      <point x="98" y="262" type="line"/>
    </contour>
    <contour>
      <point x="278" y="76" type="line"/>
      <point x="280" y="92" type="line"/>
      <point x="230" y="157" type="line"/>
      <point x="221" y="153"/>
      <point x="211" y="147"/>
      <point x="203" y="143" type="curve"/>
      <point x="200" y="127" type="line"/>
      <point x="248" y="63" type="line"/>
    </contour>
    <contour>
      <point x="302" y="355" type="line"/>
      <point x="288" y="355" type="line"/>
      <point x="218" y="287" type="line"/>
      <point x="221" y="278"/>
      <point x="224" y="267"/>
      <point x="227" y="259" type="curve"/>
      <point x="241" y="258" type="line"/>
      <point x="310" y="326" type="line"/>
    </contour>
  </outline>
</glyph>
<glyph name="yen" format="2">
  <advance width="341"/>
  <unicode hex="00A5"/>
  <outline>
    <contour>
      <point x="396" y="442" type="line"/>
      <point x="259" y="442" type="line"/>
      <point x="255" y="415" type="line"/>
      <point x="288" y="411"/>
      <point x="297" y="404"/>
      <point x="289" y="391" type="curve" smooth="yes"/>
      <point x="203" y="250" type="line"/>
      <point x="184" y="315"/>
      <point x="158" y="381"/>
      <point x="131" y="429" type="curve" smooth="yes"/>
      <point x="125" y="440"/>
      <point x="112" y="446"/>
      <point x="101" y="446" type="curve" smooth="yes"/>
      <point x="83" y="446"/>
      <point x="34" y="439"/>
      <point x="8" y="434" type="curve"/>
      <point x="6" y="407" type="line"/>
      <point x="42" y="408"/>
      <point x="49" y="403"/>
      <point x="56" y="392" type="curve" smooth="yes"/>
      <point x="82" y="345"/>
      <point x="114" y="264"/>
      <point x="134" y="189" type="curve"/>
      <point x="133" y="184" type="line"/>
      <point x="43" y="184" type="line"/>
      <point x="39" y="176"/>
      <point x="30" y="157"/>
      <point x="27" y="149" type="curve"/>
      <point x="33" y="140" type="line"/>
      <point x="127" y="140" type="line"/>
      <point x="116" y="52" type="line" smooth="yes"/>
      <point x="115" y="45"/>
      <point x="102" y="35"/>
      <point x="61" y="26" type="curve"/>
      <point x="57" y="0" type="line"/>
      <point x="244" y="0" type="line"/>
      <point x="247" y="26" type="line"/>
      <point x="207" y="35"/>
      <point x="198" y="46"/>
      <point x="199" y="52" type="curve" smooth="yes"/>
      <point x="210" y="140" type="line"/>
      <point x="293" y="140" type="line"/>
      <point x="310" y="176" type="line"/>
      <point x="303" y="184" type="line"/>
      <point x="216" y="184" type="line"/>
      <point x="217" y="187" type="line"/>
      <point x="341" y="391" type="line" smooth="yes"/>
      <point x="349" y="404"/>
      <point x="362" y="409"/>
      <point x="393" y="415" type="curve"/>
    </contour>
  </outline>
</glyph>
<glyph name="brokenbar" format="2">
  <advance width="183"/>
  <unicode hex="00A6"/>
  <outline>
    <contour>
      <point x="167" y="547" type="line"/>
      <point x="154" y="557" type="line"/>
      <point x="140" y="554"/>
      <point x="120" y="546"/>
      <point x="106" y="538" type="curve"/>
      <point x="66" y="255" type="line"/>
      <point x="80" y="245" type="line"/>
      <point x="91" y="248"/>
      <point x="119" y="258"/>
      <point x="128" y="265" type="curve"/>
    </contour>
    <contour>
      <point x="115" y="167" type="line"/>
      <point x="100" y="178" type="line"/>
      <point x="87" y="174"/>
      <point x="66" y="166"/>
      <point x="54" y="157" type="curve"/>
      <point x="14" y="-120" type="line"/>
      <point x="27" y="-131" type="line"/>
      <point x="37" y="-127"/>
      <point x="66" y="-117"/>
      <point x="74" y="-111" type="curve"/>
    </contour>
  </outline>
</glyph>
<glyph name="section" format="2">
  <advance width="321"/>
  <unicode hex="00A7"/>
  <outline>
    <contour>
      <point x="129" y="-10" type="curve" smooth="yes"/>
      <point x="166" y="-10"/>
      <point x="255" y="-1"/>
      <point x="269" y="96" type="curve"/>
      <point x="276" y="148"/>
      <point x="229" y="174"/>
      <point x="196" y="194" type="curve"/>
      <point x="144" y="230"/>
      <point x="119" y="247"/>
      <point x="125" y="288" type="curve" smooth="yes"/>
      <point x="128" y="312"/>
      <point x="154" y="343"/>
      <point x="177" y="341" type="curve"/>
      <point x="171" y="350"/>
      <point x="167" y="367"/>
      <point x="161" y="376" type="curve"/>
      <point x="116" y="371"/>
      <point x="62" y="321"/>
      <point x="55" y="271" type="curve" smooth="yes"/>
      <point x="47" y="207"/>
      <point x="87" y="172"/>
      <point x="124" y="148" type="curve" smooth="yes"/>
      <point x="159" y="126"/>
      <point x="201" y="106"/>
      <point x="196" y="69" type="curve" smooth="yes"/>
      <point x="192" y="42"/>
      <point x="176" y="31"/>
      <point x="146" y="31" type="curve" smooth="yes"/>
      <point x="110" y="31"/>
      <point x="84" y="64"/>
      <point x="81" y="114" type="curve"/>
      <point x="57" y="117" type="line"/>
      <point x="44" y="83"/>
      <point x="35" y="18"/>
      <point x="40" y="15" type="curve"/>
      <point x="66" y="-1"/>
      <point x="102" y="-10"/>
    </contour>
    <contour>
      <point x="220" y="120" type="curve"/>
      <point x="254" y="129"/>
      <point x="298" y="171"/>
      <point x="306" y="233" type="curve"/>
      <point x="316" y="303"/>
      <point x="273" y="335"/>
      <point x="235" y="359" type="curve" smooth="yes"/>
      <point x="192" y="387"/>
      <point x="162" y="401"/>
      <point x="166" y="432" type="curve" smooth="yes"/>
      <point x="169" y="452"/>
      <point x="185" y="465"/>
      <point x="210" y="465" type="curve" smooth="yes"/>
      <point x="238" y="465"/>
      <point x="255" y="442"/>
      <point x="260" y="401" type="curve"/>
      <point x="281" y="398" type="line"/>
      <point x="293" y="413"/>
      <point x="314" y="469"/>
      <point x="309" y="474" type="curve" smooth="yes"/>
      <point x="292" y="490"/>
      <point x="255" y="502"/>
      <point x="219" y="502" type="curve" smooth="yes"/>
      <point x="162" y="502"/>
      <point x="102" y="468"/>
      <point x="94" y="410" type="curve" smooth="yes"/>
      <point x="88" y="365"/>
      <point x="130" y="335"/>
      <point x="163" y="313" type="curve" smooth="yes"/>
      <point x="219" y="277"/>
      <point x="243" y="257"/>
      <point x="236" y="210" type="curve"/>
      <point x="232" y="181"/>
      <point x="208" y="155"/>
      <point x="184" y="154" type="curve"/>
      <point x="194" y="145"/>
      <point x="210" y="129"/>
    </contour>
  </outline>
</glyph>
<glyph name="dieresis" format="2">
  <advance width="381"/>
  <unicode hex="00A8"/>
  <anchor x="227" y="495" name="U"/>
  <outline>
    <contour>
      <point x="338" y="464" type="curve"/>
      <point x="338" y="484"/>
      <point x="327" y="501"/>
      <point x="303" y="501" type="curve" smooth="yes"/>
      <point x="267" y="501"/>
      <point x="246" y="462"/>
      <point x="246" y="433" type="curve" smooth="yes"/>
      <point x="246" y="414"/>
      <point x="256" y="396"/>
      <point x="280" y="396" type="curve" smooth="yes"/>
      <point x="316" y="396"/>
      <point x="338" y="435"/>
    </contour>
    <contour>
      <point x="196" y="464" type="curve"/>
      <point x="196" y="484"/>
      <point x="185" y="501"/>
      <point x="162" y="501" type="curve" smooth="yes"/>
      <point x="126" y="501"/>
      <point x="104" y="462"/>
      <point x="104" y="433" type="curve" smooth="yes"/>
      <point x="104" y="414"/>
      <point x="115" y="396"/>
      <point x="138" y="396" type="curve" smooth="yes"/>
      <point x="174" y="396"/>
      <point x="196" y="435"/>
    </contour>
  </outline>
</glyph>
<glyph name="copyright" format="2">
  <advance width="474"/>
  <unicode hex="00A9"/>
  <outline>
    <contour>
      <point x="451" y="262" type="curve"/>
      <point x="451" y="369"/>
      <point x="383" y="455"/>
      <point x="271" y="455" type="curve" smooth="yes"/>
      <point x="128" y="455"/>
      <point x="27" y="313"/>
      <point x="27" y="183" type="curve" smooth="yes"/>
      <point x="27" y="74"/>
      <point x="95" y="-16"/>
      <point x="206" y="-16" type="curve" smooth="yes"/>
      <point x="355" y="-16"/>
      <point x="451" y="129"/>
    </contour>
    <contour>
      <point x="413" y="250" type="curve"/>
      <point x="413" y="137"/>
      <point x="326" y="24"/>
      <point x="211" y="24" type="curve" smooth="yes"/>
      <point x="123" y="24"/>
      <point x="65" y="95"/>
      <point x="65" y="190" type="curve" smooth="yes"/>
      <point x="65" y="302"/>
      <point x="153" y="414"/>
      <point x="267" y="414" type="curve" smooth="yes"/>
      <point x="354" y="414"/>
      <point x="413" y="344"/>
    </contour>
    <contour>
      <point x="364" y="328" type="curve"/>
      <point x="348" y="332"/>
      <point x="325" y="364"/>
      <point x="282" y="364" type="curve" smooth="yes"/>
      <point x="243" y="364"/>
      <point x="207" y="348"/>
      <point x="185" y="331" type="curve" smooth="yes"/>
      <point x="125" y="285"/>
      <point x="109" y="229"/>
      <point x="109" y="183" type="curve" smooth="yes"/>
      <point x="109" y="101"/>
      <point x="168" y="77"/>
      <point x="207" y="77" type="curve" smooth="yes"/>
      <point x="246" y="77"/>
      <point x="281" y="94"/>
      <point x="343" y="150" type="curve"/>
      <point x="341" y="153"/>
      <point x="331" y="165"/>
      <point x="328" y="170" type="curve"/>
      <point x="287" y="135"/>
      <point x="260" y="122"/>
      <point x="239" y="122" type="curve" smooth="yes"/>
      <point x="205" y="122"/>
      <point x="173" y="142"/>
      <point x="173" y="194" type="curve" smooth="yes"/>
      <point x="173" y="249"/>
      <point x="202" y="330"/>
      <point x="252" y="330" type="curve" smooth="yes"/>
      <point x="279" y="330"/>
      <point x="294" y="291"/>
      <point x="306" y="291" type="curve" smooth="yes"/>
      <point x="316" y="291"/>
      <point x="349" y="317"/>
    </contour>
  </outline>
</glyph>
<glyph name="ordfeminine" format="2">
  <advance width="225"/>
  <unicode hex="00AA"/>
  <outline>
    <contour>
      <point x="222" y="292" type="curve"/>
      <point x="216" y="305" type="line"/>
      <point x="206" y="300"/>
      <point x="202" y="299"/>
      <point x="197" y="299" type="curve" smooth="yes"/>
      <point x="191" y="299"/>
      <point x="188" y="312"/>
      <point x="188" y="328" type="curve" smooth="yes"/>
      <point x="188" y="340"/>
      <point x="191" y="380"/>
      <point x="199" y="418" type="curve" smooth="yes"/>
      <point x="203" y="435"/>
      <point x="207" y="438"/>
      <point x="217" y="445" type="curve"/>
      <point x="210" y="458" type="line"/>
      <point x="192" y="450"/>
      <point x="158" y="433"/>
      <point x="155" y="421" type="curve" smooth="yes"/>
      <point x="152" y="405"/>
      <point x="140" y="330"/>
      <point x="140" y="315" type="curve" smooth="yes"/>
      <point x="140" y="279"/>
      <point x="157" y="266"/>
      <point x="167" y="266" type="curve" smooth="yes"/>
      <point x="177" y="266"/>
      <point x="200" y="277"/>
    </contour>
    <contour>
      <point x="204" y="434" type="curve"/>
      <point x="195" y="435"/>
      <point x="173" y="458"/>
      <point x="152" y="458" type="curve" smooth="yes"/>
      <point x="128" y="458"/>
      <point x="110" y="449"/>
      <point x="95" y="439" type="curve" smooth="yes"/>
      <point x="58" y="414"/>
      <point x="34" y="376"/>
      <point x="34" y="333" type="curve" smooth="yes"/>
      <point x="34" y="285"/>
      <point x="63" y="266"/>
      <point x="86" y="266" type="curve" smooth="yes"/>
      <point x="103" y="266"/>
      <point x="122" y="284"/>
      <point x="141" y="309" type="curve"/>
      <point x="146" y="353" type="line"/>
      <point x="124" y="320"/>
      <point x="110" y="303"/>
      <point x="99" y="303" type="curve" smooth="yes"/>
      <point x="88" y="303"/>
      <point x="81" y="320"/>
      <point x="81" y="348" type="curve" smooth="yes"/>
      <point x="81" y="379"/>
      <point x="96" y="432"/>
      <point x="132" y="432" type="curve" smooth="yes"/>
      <point x="154" y="432"/>
      <point x="178" y="396"/>
      <point x="185" y="396" type="curve" smooth="yes"/>
      <point x="191" y="396"/>
      <point x="192" y="426"/>
    </contour>
    <contour>
      <point x="217" y="235" type="curve"/>
      <point x="207" y="246" type="line"/>
      <point x="27" y="246" type="line"/>
      <point x="24" y="239"/>
      <point x="18" y="232"/>
      <point x="16" y="224" type="curve"/>
      <point x="25" y="214" type="line"/>
      <point x="206" y="214" type="line"/>
      <point x="208" y="221"/>
      <point x="215" y="227"/>
    </contour>
  </outline>
</glyph>
<glyph name="guillemetleft" format="2">
  <advance width="354"/>
  <unicode hex="00AB"/>
  <outline>
    <contour>
      <point x="268" y="0" type="line"/>
      <point x="290" y="16" type="line"/>
      <point x="244" y="169" type="line"/>
      <point x="265" y="207"/>
      <point x="310" y="283"/>
      <point x="331" y="321" type="curve"/>
      <point x="314" y="337" type="line"/>
      <point x="160" y="182" type="line"/>
      <point x="158" y="175"/>
      <point x="156" y="162"/>
      <point x="155" y="156" type="curve"/>
    </contour>
    <contour>
      <point x="131" y="0" type="line"/>
      <point x="153" y="16" type="line"/>
      <point x="106" y="169" type="line"/>
      <point x="127" y="207"/>
      <point x="173" y="283"/>
      <point x="194" y="321" type="curve"/>
      <point x="177" y="337" type="line"/>
      <point x="22" y="182" type="line"/>
      <point x="21" y="175"/>
      <point x="19" y="162"/>
      <point x="18" y="156" type="curve"/>
    </contour>
  </outline>
</glyph>
<glyph name="guillemotleft" format="2">
  <advance width="337"/>
  <unicode hex="00AB"/>
  <outline>
    <contour>
      <point x="256" y="0" type="line"/>
      <point x="276" y="15" type="line"/>
      <point x="232" y="161" type="line"/>
      <point x="252" y="197"/>
      <point x="295" y="269"/>
      <point x="315" y="305" type="curve"/>
      <point x="299" y="321" type="line"/>
      <point x="152" y="173" type="line"/>
      <point x="151" y="167"/>
      <point x="149" y="154"/>
      <point x="148" y="148" type="curve"/>
    </contour>
    <contour>
      <point x="125" y="0" type="line"/>
      <point x="146" y="15" type="line"/>
      <point x="101" y="161" type="line"/>
      <point x="121" y="197"/>
      <point x="165" y="269"/>
      <point x="185" y="305" type="curve"/>
      <point x="169" y="321" type="line"/>
      <point x="21" y="173" type="line"/>
      <point x="20" y="167"/>
      <point x="18" y="154"/>
      <point x="17" y="148" type="curve"/>
    </contour>
  </outline>
</glyph>
<glyph name="logicalnot" format="2">
  <advance width="341"/>
  <unicode hex="00AC"/>
  <outline>
    <contour>
      <point x="309" y="221" type="line"/>
      <point x="298" y="231" type="line"/>
      <point x="298" y="231"/>
      <point x="297" y="231"/>
      <point x="35" y="231" type="curve"/>
      <point x="30" y="222"/>
      <point x="18" y="201"/>
      <point x="15" y="191" type="curve"/>
      <point x="23" y="179" type="line"/>
      <point x="256" y="179" type="line"/>
      <point x="242" y="81" type="line"/>
      <point x="251" y="69" type="line"/>
      <point x="263" y="73"/>
      <point x="282" y="86"/>
      <point x="291" y="93" type="curve"/>
    </contour>
  </outline>
</glyph>
<glyph name="registered" format="2">
  <advance width="245"/>
  <unicode hex="00AE"/>
  <outline>
    <contour>
      <point x="263" y="378" type="curve"/>
      <point x="273" y="449"/>
      <point x="235" y="503"/>
      <point x="169" y="503" type="curve" smooth="yes"/>
      <point x="104" y="503"/>
      <point x="52" y="448"/>
      <point x="42" y="378" type="curve" smooth="yes"/>
      <point x="32" y="306"/>
      <point x="70" y="252"/>
      <point x="136" y="252" type="curve" smooth="yes"/>
      <point x="201" y="252"/>
      <point x="253" y="306"/>
    </contour>
    <contour>
      <point x="238" y="378" type="curve"/>
      <point x="230" y="322"/>
      <point x="194" y="276"/>
      <point x="139" y="276" type="curve" smooth="yes"/>
      <point x="85" y="276"/>
      <point x="59" y="322"/>
      <point x="67" y="378" type="curve" smooth="yes"/>
      <point x="75" y="433"/>
      <point x="110" y="479"/>
      <point x="165" y="479" type="curve" smooth="yes"/>
      <point x="220" y="479"/>
      <point x="245" y="433"/>
    </contour>
    <contour>
      <point x="204" y="413" type="curve"/>
      <point x="206" y="432"/>
      <point x="193" y="451"/>
      <point x="157" y="451" type="curve" smooth="yes"/>
      <point x="140" y="451"/>
      <point x="124" y="448"/>
      <point x="111" y="445" type="curve"/>
      <point x="111" y="432" type="line"/>
      <point x="124" y="434"/>
      <point x="140" y="436"/>
      <point x="152" y="436" type="curve" smooth="yes"/>
      <point x="173" y="436"/>
      <point x="180" y="424"/>
      <point x="178" y="410" type="curve" smooth="yes"/>
      <point x="175" y="392"/>
      <point x="164" y="387"/>
      <point x="146" y="387" type="curve" smooth="yes"/>
      <point x="142" y="387"/>
      <point x="139" y="387"/>
      <point x="135" y="388" type="curve"/>
      <point x="134" y="373" type="line"/>
      <point x="138" y="372"/>
      <point x="142" y="371"/>
      <point x="145" y="371" type="curve" smooth="yes"/>
      <point x="174" y="371"/>
      <point x="200" y="385"/>
    </contour>
    <contour>
      <point x="210" y="319" type="line"/>
      <point x="209" y="326" type="line"/>
      <point x="200" y="322"/>
      <point x="196" y="323"/>
      <point x="193" y="328" type="curve" smooth="yes"/>
      <point x="162" y="382" type="line"/>
      <point x="145" y="376" type="line"/>
      <point x="171" y="312" type="line" smooth="yes"/>
      <point x="172" y="309"/>
      <point x="176" y="305"/>
      <point x="179" y="305" type="curve" smooth="yes"/>
      <point x="184" y="305"/>
      <point x="201" y="315"/>
      <point x="209" y="319" type="curve"/>
    </contour>
    <contour>
      <point x="143" y="308" type="line"/>
      <point x="144" y="316" type="line"/>
      <point x="135" y="319"/>
      <point x="131" y="321"/>
      <point x="131" y="323" type="curve" smooth="yes"/>
      <point x="148" y="443" type="line"/>
      <point x="124" y="443" type="line"/>
      <point x="107" y="323" type="line" smooth="yes"/>
      <point x="107" y="321"/>
      <point x="103" y="319"/>
      <point x="94" y="316" type="curve"/>
      <point x="93" y="308" type="line"/>
    </contour>
  </outline>
</glyph>
<glyph name="macron" format="2">
  <advance width="331"/>
  <unicode hex="00AF"/>
  <outline>
    <contour>
      <point x="352" y="468" type="curve"/>
      <point x="342" y="480" type="line"/>
      <point x="84" y="480" type="line"/>
      <point x="78" y="470"/>
      <point x="64" y="445"/>
      <point x="60" y="435" type="curve"/>
      <point x="69" y="423" type="line"/>
      <point x="328" y="423" type="line"/>
      <point x="333" y="431"/>
      <point x="348" y="458"/>
    </contour>
  </outline>
</glyph>
<glyph name="degree" format="2">
  <advance width="233"/>
  <unicode hex="00B0"/>
  <outline>
    <contour>
      <point x="232" y="374" type="curve" smooth="yes"/>
      <point x="232" y="408"/>
      <point x="211" y="438"/>
      <point x="173" y="438" type="curve" smooth="yes"/>
      <point x="125" y="438"/>
      <point x="64" y="383"/>
      <point x="64" y="320" type="curve" smooth="yes"/>
      <point x="64" y="289"/>
      <point x="81" y="256"/>
      <point x="123" y="256" type="curve" smooth="yes"/>
      <point x="168" y="256"/>
      <point x="232" y="306"/>
    </contour>
    <contour>
      <point x="141" y="304" type="curve" smooth="yes"/>
      <point x="126" y="304"/>
      <point x="114" y="317"/>
      <point x="114" y="339" type="curve" smooth="yes"/>
      <point x="114" y="367"/>
      <point x="136" y="390"/>
      <point x="155" y="390" type="curve" smooth="yes"/>
      <point x="173" y="390"/>
      <point x="182" y="373"/>
      <point x="182" y="355" type="curve" smooth="yes"/>
      <point x="182" y="332"/>
      <point x="166" y="304"/>
    </contour>
  </outline>
</glyph>
<glyph name="plusminus" format="2">
  <advance width="285"/>
  <unicode hex="00B1"/>
  <outline>
    <contour>
      <point x="191" y="354" type="line"/>
      <point x="182" y="365" type="line"/>
      <point x="172" y="362"/>
      <point x="149" y="355"/>
      <point x="140" y="352" type="curve"/>
      <point x="108" y="123" type="line"/>
      <point x="117" y="113" type="line"/>
      <point x="128" y="115"/>
      <point x="150" y="122"/>
      <point x="159" y="126" type="curve"/>
    </contour>
    <contour>
      <point x="247" y="81" type="curve"/>
      <point x="239" y="92" type="line"/>
      <point x="22" y="92" type="line"/>
      <point x="17" y="83"/>
      <point x="5" y="62"/>
      <point x="2" y="52" type="curve"/>
      <point x="10" y="41" type="line"/>
      <point x="228" y="41" type="line"/>
      <point x="232" y="49"/>
      <point x="244" y="71"/>
    </contour>
    <contour>
      <point x="271" y="253" type="curve"/>
      <point x="263" y="264" type="line"/>
      <point x="45" y="264" type="line"/>
      <point x="40" y="255"/>
      <point x="28" y="234"/>
      <point x="25" y="225" type="curve"/>
      <point x="33" y="214" type="line"/>
      <point x="252" y="214" type="line"/>
      <point x="256" y="221"/>
      <point x="268" y="243"/>
    </contour>
  </outline>
</glyph>
<glyph name="twosuperior" format="2">
  <advance width="227"/>
  <unicode hex="00B2"/>
  <anchor x="153" y="488" name="U"/>
  <outline>
    <contour>
      <point x="233" y="425" type="curve"/>
      <point x="233" y="458"/>
      <point x="199" y="470"/>
      <point x="162" y="470" type="curve" smooth="yes"/>
      <point x="105" y="470"/>
      <point x="55" y="434"/>
      <point x="51" y="405" type="curve"/>
      <point x="57" y="390" type="line"/>
      <point x="70" y="392"/>
      <point x="99" y="398"/>
      <point x="109" y="404" type="curve"/>
      <point x="109" y="424"/>
      <point x="119" y="445"/>
      <point x="143" y="445" type="curve" smooth="yes"/>
      <point x="162" y="445"/>
      <point x="172" y="436"/>
      <point x="172" y="416" type="curve" smooth="yes"/>
      <point x="172" y="381"/>
      <point x="130" y="329"/>
      <point x="13" y="228" type="curve"/>
      <point x="17" y="212" type="line"/>
      <point x="199" y="212" type="line"/>
      <point x="214" y="286" type="line"/>
      <point x="195" y="290" type="line"/>
      <point x="195" y="290"/>
      <point x="187" y="248"/>
      <point x="166" y="248" type="curve" smooth="yes"/>
      <point x="78" y="248" type="line"/>
      <point x="204" y="354"/>
      <point x="233" y="390"/>
    </contour>
  </outline>
</glyph>
<glyph name="threesuperior" format="2">
  <advance width="227"/>
  <unicode hex="00B3"/>
  <anchor x="153" y="488" name="U"/>
  <outline>
    <contour>
      <point x="221" y="421" type="curve"/>
      <point x="221" y="446"/>
      <point x="204" y="470"/>
      <point x="151" y="470" type="curve" smooth="yes"/>
      <point x="98" y="470"/>
      <point x="53" y="434"/>
      <point x="49" y="410" type="curve"/>
      <point x="55" y="397" type="line"/>
      <point x="70" y="398"/>
      <point x="96" y="406"/>
      <point x="109" y="412" type="curve"/>
      <point x="107" y="433"/>
      <point x="121" y="445"/>
      <point x="137" y="445" type="curve" smooth="yes"/>
      <point x="153" y="445"/>
      <point x="161" y="435"/>
      <point x="161" y="418" type="curve" smooth="yes"/>
      <point x="161" y="384"/>
      <point x="136" y="365"/>
      <point x="93" y="355" type="curve"/>
      <point x="95" y="335" type="line"/>
      <point x="104" y="337"/>
      <point x="105" y="337"/>
      <point x="113" y="337" type="curve" smooth="yes"/>
      <point x="136" y="337"/>
      <point x="154" y="325"/>
      <point x="154" y="296" type="curve" smooth="yes"/>
      <point x="154" y="259"/>
      <point x="129" y="235"/>
      <point x="97" y="235" type="curve" smooth="yes"/>
      <point x="75" y="235"/>
      <point x="53" y="242"/>
      <point x="29" y="261" type="curve"/>
      <point x="16" y="239" type="line"/>
      <point x="39" y="217"/>
      <point x="74" y="205"/>
      <point x="97" y="205" type="curve" smooth="yes"/>
      <point x="162" y="205"/>
      <point x="215" y="249"/>
      <point x="215" y="301" type="curve" smooth="yes"/>
      <point x="215" y="329"/>
      <point x="198" y="354"/>
      <point x="165" y="358" type="curve"/>
      <point x="197" y="369"/>
      <point x="221" y="391"/>
    </contour>
  </outline>
</glyph>
<glyph name="acute" format="2">
  <advance width="221"/>
  <unicode hex="00B4"/>
  <anchor x="112" y="501" name="U"/>
  <outline>
    <contour>
      <point x="213" y="522" type="line"/>
      <point x="204" y="525"/>
      <point x="155" y="535"/>
      <point x="145" y="537" type="curve"/>
      <point x="59" y="391" type="line"/>
      <point x="66" y="382"/>
      <point x="76" y="374"/>
      <point x="83" y="372" type="curve"/>
      <point x="222" y="500" type="line"/>
    </contour>
  </outline>
</glyph>
<glyph name="mu" format="2">
  <advance width="387"/>
  <unicode hex="00B5"/>
  <outline>
    <contour>
      <point x="382" y="74" type="curve"/>
      <point x="370" y="95" type="line"/>
      <point x="350" y="67"/>
      <point x="336" y="59"/>
      <point x="327" y="59" type="curve" smooth="yes"/>
      <point x="320" y="59"/>
      <point x="314" y="69"/>
      <point x="314" y="99" type="curve" smooth="yes"/>
      <point x="314" y="144"/>
      <point x="341" y="269"/>
      <point x="350" y="310" type="curve"/>
      <point x="349" y="314"/>
      <point x="344" y="321"/>
      <point x="340" y="326" type="curve"/>
      <point x="321" y="321"/>
      <point x="265" y="301"/>
      <point x="248" y="295" type="curve"/>
      <point x="253" y="286"/>
      <point x="254" y="269"/>
      <point x="254" y="254" type="curve" smooth="yes"/>
      <point x="254" y="220"/>
      <point x="231" y="123"/>
      <point x="231" y="81" type="curve" smooth="yes"/>
      <point x="231" y="30"/>
      <point x="249" y="-14"/>
      <point x="275" y="-14" type="curve" smooth="yes"/>
      <point x="302" y="-14"/>
      <point x="340" y="4"/>
    </contour>
    <contour>
      <point x="264" y="197" type="line"/>
      <point x="211" y="91"/>
      <point x="178" y="62"/>
      <point x="157" y="62" type="curve" smooth="yes"/>
      <point x="141" y="62"/>
      <point x="128" y="82"/>
      <point x="128" y="120" type="curve" smooth="yes"/>
      <point x="128" y="158"/>
      <point x="150" y="256"/>
      <point x="150" y="297" type="curve" smooth="yes"/>
      <point x="150" y="318"/>
      <point x="147" y="326"/>
      <point x="134" y="326" type="curve" smooth="yes"/>
      <point x="122" y="326"/>
      <point x="48" y="300"/>
      <point x="9" y="282" type="curve"/>
      <point x="13" y="259" type="line"/>
      <point x="13" y="259"/>
      <point x="38" y="267"/>
      <point x="46" y="267" type="curve" smooth="yes"/>
      <point x="54" y="267"/>
      <point x="60" y="265"/>
      <point x="60" y="244" type="curve" smooth="yes"/>
      <point x="60" y="209"/>
      <point x="49" y="169"/>
      <point x="49" y="128" type="curve" smooth="yes"/>
      <point x="49" y="49"/>
      <point x="86" y="-14"/>
      <point x="132" y="-14" type="curve" smooth="yes"/>
      <point x="178" y="-14"/>
      <point x="221" y="40"/>
      <point x="261" y="130" type="curve"/>
    </contour>
    <contour>
      <point x="90" y="154" type="curve"/>
      <point x="90" y="172"/>
      <point x="57" y="207"/>
      <point x="57" y="207" type="curve"/>
      <point x="48" y="128"/>
      <point x="9" y="-67"/>
      <point x="-2" y="-161" type="curve"/>
      <point x="11" y="-174" type="line"/>
      <point x="22" y="-168"/>
      <point x="88" y="-141"/>
      <point x="102" y="-136" type="curve"/>
      <point x="97" y="-123"/>
      <point x="58" y="-59"/>
      <point x="71" y="36" type="curve"/>
      <point x="79" y="89"/>
      <point x="81" y="112"/>
    </contour>
  </outline>
</glyph>
<glyph name="paragraph" format="2">
  <advance width="386"/>
  <unicode hex="00B6"/>
  <outline>
    <contour>
      <point x="399" y="439" type="line"/>
      <point x="379" y="439" type="line"/>
      <point x="379" y="439"/>
      <point x="241" y="449"/>
      <point x="204" y="449" type="curve" smooth="yes"/>
      <point x="107" y="449"/>
      <point x="37" y="394"/>
      <point x="26" y="314" type="curve"/>
      <point x="14" y="227"/>
      <point x="75" y="180"/>
      <point x="166" y="180" type="curve" smooth="yes"/>
      <point x="177" y="180"/>
      <point x="186" y="181"/>
      <point x="194" y="182" type="curve"/>
      <point x="163" y="-40" type="line"/>
      <point x="162" y="-46"/>
      <point x="146" y="-55"/>
      <point x="116" y="-61" type="curve"/>
      <point x="112" y="-87" type="line"/>
      <point x="326" y="-87" type="line"/>
      <point x="330" y="-61" type="line"/>
      <point x="300" y="-55"/>
      <point x="288" y="-46"/>
      <point x="289" y="-40" type="curve" smooth="yes"/>
      <point x="348" y="392" type="line"/>
      <point x="349" y="398"/>
      <point x="366" y="407"/>
      <point x="395" y="413" type="curve"/>
    </contour>
    <contour>
      <point x="185" y="220" type="line"/>
      <point x="123" y="220"/>
      <point x="104" y="276"/>
      <point x="111" y="327" type="curve"/>
      <point x="118" y="379"/>
      <point x="164" y="410"/>
      <point x="205" y="410" type="curve" smooth="yes"/>
      <point x="210" y="410"/>
      <point x="217" y="409"/>
      <point x="225" y="409" type="curve"/>
      <point x="199" y="220" type="line"/>
    </contour>
    <contour>
      <point x="299" y="398" type="curve"/>
      <point x="239" y="-40" type="line" smooth="yes"/>
      <point x="238" y="-45"/>
      <point x="229" y="-49"/>
      <point x="224" y="-50" type="curve"/>
      <point x="220" y="-49"/>
      <point x="213" y="-45"/>
      <point x="214" y="-40" type="curve" smooth="yes"/>
      <point x="275" y="403" type="line"/>
      <point x="283" y="402"/>
      <point x="291" y="400"/>
    </contour>
  </outline>
</glyph>
<glyph name="periodcentered" format="2">
  <advance width="166"/>
  <unicode hex="00B7"/>
  <outline>
    <contour>
      <point x="138" y="236" type="curve"/>
      <point x="138" y="258"/>
      <point x="124" y="274"/>
      <point x="96" y="274" type="curve" smooth="yes"/>
      <point x="56" y="274"/>
      <point x="31" y="236"/>
      <point x="31" y="207" type="curve" smooth="yes"/>
      <point x="31" y="183"/>
      <point x="44" y="167"/>
      <point x="73" y="167" type="curve" smooth="yes"/>
      <point x="115" y="167"/>
      <point x="138" y="205"/>
    </contour>
  </outline>
</glyph>
<glyph name="cedilla" format="2">
  <advance width="113"/>
  <unicode hex="00B8"/>
  <outline>
    <contour>
      <point x="81" y="-77" type="curve"/>
      <point x="81" y="-54"/>
      <point x="66" y="-34"/>
      <point x="37" y="-34" type="curve"/>
      <point x="40" y="-27"/>
      <point x="47" y="4"/>
      <point x="49" y="17" type="curve"/>
      <point x="14" y="18" type="line"/>
      <point x="10" y="-7"/>
      <point x="0" y="-45"/>
      <point x="-16" y="-74" type="curve"/>
      <point x="-2" y="-74"/>
      <point x="8" y="-81"/>
      <point x="8" y="-90" type="curve" smooth="yes"/>
      <point x="8" y="-108"/>
      <point x="-18" y="-122"/>
      <point x="-57" y="-106" type="curve"/>
      <point x="-56" y="-130" type="line"/>
      <point x="12" y="-164"/>
      <point x="81" y="-126"/>
    </contour>
  </outline>
</glyph>
<glyph name="onesuperior" format="2">
  <advance width="238"/>
  <unicode hex="00B9"/>
  <anchor x="161" y="512" name="U"/>
  <outline>
    <contour>
      <point x="217" y="241" type="line"/>
      <point x="170" y="247"/>
      <point x="161" y="255"/>
      <point x="162" y="261" type="curve" smooth="yes"/>
      <point x="198" y="486" type="line"/>
      <point x="189" y="496" type="line"/>
      <point x="164" y="486"/>
      <point x="92" y="464"/>
      <point x="64" y="458" type="curve"/>
      <point x="68" y="440" type="line"/>
      <point x="111" y="448"/>
      <point x="125" y="446"/>
      <point x="127" y="443" type="curve" smooth="yes"/>
      <point x="131" y="439"/>
      <point x="130" y="433"/>
      <point x="128" y="421" type="curve" smooth="yes"/>
      <point x="103" y="261" type="line" smooth="yes"/>
      <point x="102" y="255"/>
      <point x="87" y="247"/>
      <point x="37" y="241" type="curve"/>
      <point x="34" y="222" type="line"/>
      <point x="214" y="222" type="line"/>
    </contour>
  </outline>
</glyph>
<glyph name="ordmasculine" format="2">
  <advance width="177"/>
  <unicode hex="00BA"/>
  <outline>
    <contour>
      <point x="191" y="365" type="curve"/>
      <point x="191" y="407"/>
      <point x="171" y="436"/>
      <point x="126" y="436" type="curve" smooth="yes"/>
      <point x="108" y="436"/>
      <point x="89" y="428"/>
      <point x="74" y="416" type="curve" smooth="yes"/>
      <point x="41" y="390"/>
      <point x="28" y="361"/>
      <point x="28" y="326" type="curve" smooth="yes"/>
      <point x="28" y="284"/>
      <point x="53" y="253"/>
      <point x="93" y="253" type="curve" smooth="yes"/>
      <point x="113" y="253"/>
      <point x="130" y="263"/>
      <point x="145" y="275" type="curve" smooth="yes"/>
      <point x="173" y="298"/>
      <point x="191" y="332"/>
    </contour>
    <contour>
      <point x="177" y="224" type="curve"/>
      <point x="169" y="235" type="line"/>
      <point x="16" y="235" type="line"/>
      <point x="14" y="228"/>
      <point x="9" y="221"/>
      <point x="7" y="213" type="curve"/>
      <point x="16" y="204" type="line"/>
      <point x="168" y="204" type="line"/>
      <point x="171" y="210"/>
      <point x="175" y="216"/>
    </contour>
    <contour>
      <point x="142" y="353" type="curve"/>
      <point x="142" y="322"/>
      <point x="135" y="282"/>
      <point x="108" y="282" type="curve" smooth="yes"/>
      <point x="90" y="282"/>
      <point x="75" y="308"/>
      <point x="75" y="338" type="curve" smooth="yes"/>
      <point x="75" y="370"/>
      <point x="82" y="407"/>
      <point x="111" y="407" type="curve" smooth="yes"/>
      <point x="127" y="407"/>
      <point x="142" y="388"/>
    </contour>
  </outline>
</glyph>
<glyph name="guillemetright" format="2">
  <advance width="337"/>
  <unicode hex="00BB"/>
  <outline>
    <contour>
      <point x="183" y="173" type="curve"/>
      <point x="75" y="321" type="line"/>
      <point x="55" y="305" type="line"/>
      <point x="65" y="269"/>
      <point x="89" y="196"/>
      <point x="99" y="160" type="curve"/>
      <point x="15" y="15" type="line"/>
      <point x="31" y="0" type="line"/>
      <point x="179" y="147" type="line"/>
      <point x="180" y="154"/>
      <point x="182" y="166"/>
    </contour>
    <contour>
      <point x="314" y="173" type="curve"/>
      <point x="206" y="321" type="line"/>
      <point x="185" y="305" type="line"/>
      <point x="196" y="269"/>
      <point x="220" y="196"/>
      <point x="230" y="160" type="curve"/>
      <point x="146" y="15" type="line"/>
      <point x="162" y="0" type="line"/>
      <point x="310" y="147" type="line"/>
      <point x="311" y="154"/>
      <point x="313" y="166"/>
    </contour>
  </outline>
</glyph>
<glyph name="onequarter" format="2">
  <advance width="413"/>
  <unicode hex="00BC"/>
  <outline>
    <contour>
      <point x="417" y="420" type="line"/>
      <point x="410" y="430" type="line"/>
      <point x="401" y="428"/>
      <point x="377" y="423"/>
      <point x="368" y="419" type="curve"/>
      <point x="23" y="0" type="line"/>
      <point x="30" y="-10" type="line"/>
      <point x="42" y="-7"/>
      <point x="63" y="-4"/>
      <point x="74" y="1" type="curve"/>
    </contour>
    <contour>
      <point x="376" y="74" type="curve"/>
      <point x="372" y="80" type="line"/>
      <point x="347" y="80" type="line"/>
      <point x="366" y="201" type="line"/>
      <point x="359" y="208" type="line"/>
      <point x="348" y="204"/>
      <point x="328" y="198"/>
      <point x="316" y="195" type="curve"/>
      <point x="207" y="62" type="line"/>
      <point x="213" y="55" type="line"/>
      <point x="300" y="55" type="line"/>
      <point x="295" y="24" type="line"/>
      <point x="295" y="21"/>
      <point x="288" y="17"/>
      <point x="255" y="12" type="curve"/>
      <point x="253" y="0" type="line"/>
      <point x="360" y="0" type="line"/>
      <point x="362" y="12" type="line"/>
      <point x="342" y="17"/>
      <point x="338" y="19"/>
      <point x="338" y="23" type="curve" smooth="yes"/>
      <point x="343" y="55" type="line"/>
      <point x="354" y="55" type="line"/>
      <point x="360" y="59"/>
      <point x="370" y="67"/>
    </contour>
    <contour>
      <point x="304" y="80" type="line"/>
      <point x="249" y="80" type="line"/>
      <point x="317" y="163" type="line"/>
    </contour>
    <contour>
      <point x="182" y="222" type="line"/>
      <point x="184" y="236" type="line"/>
      <point x="148" y="241"/>
      <point x="141" y="247"/>
      <point x="141" y="251" type="curve" smooth="yes"/>
      <point x="168" y="423" type="line"/>
      <point x="161" y="430" type="line"/>
      <point x="142" y="423"/>
      <point x="87" y="406"/>
      <point x="65" y="402" type="curve"/>
      <point x="68" y="387" type="line"/>
      <point x="101" y="394"/>
      <point x="112" y="392"/>
      <point x="114" y="390" type="curve" smooth="yes"/>
      <point x="117" y="387"/>
      <point x="116" y="382"/>
      <point x="115" y="373" type="curve" smooth="yes"/>
      <point x="96" y="251" type="line" smooth="yes"/>
      <point x="95" y="247"/>
      <point x="84" y="241"/>
      <point x="45" y="236" type="curve"/>
      <point x="42" y="222" type="line"/>
    </contour>
  </outline>
</glyph>
<glyph name="onehalf" format="2">
  <advance width="413"/>
  <unicode hex="00BD"/>
  <outline>
    <contour>
      <point x="417" y="420" type="line"/>
      <point x="410" y="430" type="line"/>
      <point x="401" y="428"/>
      <point x="377" y="423"/>
      <point x="368" y="419" type="curve"/>
      <point x="23" y="0" type="line"/>
      <point x="30" y="-10" type="line"/>
      <point x="42" y="-7"/>
      <point x="63" y="-4"/>
      <point x="74" y="1" type="curve"/>
    </contour>
    <contour>
      <point x="183" y="222" type="line"/>
      <point x="185" y="236" type="line"/>
      <point x="149" y="241"/>
      <point x="142" y="247"/>
      <point x="143" y="251" type="curve" smooth="yes"/>
      <point x="170" y="423" type="line"/>
      <point x="163" y="430" type="line"/>
      <point x="144" y="423"/>
      <point x="88" y="406"/>
      <point x="67" y="402" type="curve"/>
      <point x="69" y="387" type="line"/>
      <point x="103" y="394"/>
      <point x="113" y="392"/>
      <point x="116" y="390" type="curve" smooth="yes"/>
      <point x="118" y="387"/>
      <point x="118" y="382"/>
      <point x="116" y="373" type="curve" smooth="yes"/>
      <point x="97" y="251" type="line" smooth="yes"/>
      <point x="97" y="247"/>
      <point x="85" y="241"/>
      <point x="46" y="236" type="curve"/>
      <point x="44" y="222" type="line"/>
    </contour>
    <contour>
      <point x="384" y="59" type="line"/>
      <point x="368" y="62" type="line"/>
      <point x="368" y="62"/>
      <point x="362" y="29"/>
      <point x="345" y="29" type="curve" smooth="yes"/>
      <point x="275" y="29" type="line"/>
      <point x="373" y="113"/>
      <point x="397" y="140"/>
      <point x="398" y="168" type="curve" smooth="yes"/>
      <point x="399" y="196"/>
      <point x="372" y="206"/>
      <point x="342" y="206" type="curve" smooth="yes"/>
      <point x="296" y="206"/>
      <point x="254" y="177"/>
      <point x="251" y="154" type="curve"/>
      <point x="255" y="143" type="line"/>
      <point x="266" y="144"/>
      <point x="290" y="149"/>
      <point x="298" y="153" type="curve"/>
      <point x="298" y="169"/>
      <point x="306" y="186"/>
      <point x="326" y="186" type="curve" smooth="yes"/>
      <point x="342" y="186"/>
      <point x="350" y="178"/>
      <point x="349" y="161" type="curve" smooth="yes"/>
      <point x="348" y="133"/>
      <point x="316" y="95"/>
      <point x="221" y="12" type="curve"/>
      <point x="224" y="0" type="line"/>
      <point x="371" y="0" type="line"/>
    </contour>
  </outline>
</glyph>
<glyph name="threequarters" format="2">
  <advance width="413"/>
  <unicode hex="00BE"/>
  <outline>
    <contour>
      <point x="417" y="420" type="line"/>
      <point x="410" y="430" type="line"/>
      <point x="401" y="428"/>
      <point x="377" y="423"/>
      <point x="368" y="419" type="curve"/>
      <point x="23" y="0" type="line"/>
      <point x="30" y="-10" type="line"/>
      <point x="42" y="-7"/>
      <point x="63" y="-4"/>
      <point x="74" y="1" type="curve"/>
    </contour>
    <contour>
      <point x="198" y="291" type="curve" smooth="yes"/>
      <point x="199" y="315"/>
      <point x="185" y="336"/>
      <point x="157" y="339" type="curve"/>
      <point x="183" y="347"/>
      <point x="202" y="365"/>
      <point x="202" y="387" type="curve" smooth="yes"/>
      <point x="203" y="408"/>
      <point x="190" y="428"/>
      <point x="147" y="428" type="curve" smooth="yes"/>
      <point x="103" y="428"/>
      <point x="66" y="399"/>
      <point x="63" y="381" type="curve"/>
      <point x="68" y="371" type="line"/>
      <point x="80" y="371"/>
      <point x="101" y="377"/>
      <point x="112" y="382" type="curve"/>
      <point x="111" y="398"/>
      <point x="121" y="408"/>
      <point x="135" y="408" type="curve" smooth="yes"/>
      <point x="149" y="408"/>
      <point x="155" y="400"/>
      <point x="154" y="385" type="curve" smooth="yes"/>
      <point x="154" y="362"/>
      <point x="138" y="345"/>
      <point x="99" y="336" type="curve"/>
      <point x="100" y="321" type="line"/>
      <point x="108" y="322"/>
      <point x="109" y="322"/>
      <point x="115" y="322" type="curve" smooth="yes"/>
      <point x="135" y="322"/>
      <point x="150" y="312"/>
      <point x="149" y="287" type="curve" smooth="yes"/>
      <point x="148" y="258"/>
      <point x="127" y="241"/>
      <point x="103" y="241" type="curve" smooth="yes"/>
      <point x="85" y="241"/>
      <point x="66" y="246"/>
      <point x="47" y="261" type="curve"/>
      <point x="37" y="245" type="line"/>
      <point x="55" y="227"/>
      <point x="83" y="217"/>
      <point x="103" y="217" type="curve" smooth="yes"/>
      <point x="154" y="217"/>
      <point x="197" y="251"/>
    </contour>
    <contour>
      <point x="377" y="74" type="curve"/>
      <point x="373" y="80" type="line"/>
      <point x="348" y="80" type="line"/>
      <point x="367" y="201" type="line"/>
      <point x="360" y="208" type="line"/>
      <point x="349" y="204"/>
      <point x="329" y="198"/>
      <point x="316" y="195" type="curve"/>
      <point x="208" y="62" type="line"/>
      <point x="214" y="55" type="line"/>
      <point x="301" y="55" type="line"/>
      <point x="296" y="24" type="line"/>
      <point x="295" y="21"/>
      <point x="289" y="17"/>
      <point x="256" y="12" type="curve"/>
      <point x="254" y="0" type="line"/>
      <point x="360" y="0" type="line"/>
      <point x="362" y="12" type="line"/>
      <point x="343" y="17"/>
      <point x="339" y="19"/>
      <point x="339" y="23" type="curve" smooth="yes"/>
      <point x="344" y="55" type="line"/>
      <point x="355" y="55" type="line"/>
      <point x="361" y="59"/>
      <point x="370" y="67"/>
    </contour>
    <contour>
      <point x="305" y="80" type="line"/>
      <point x="250" y="80" type="line"/>
      <point x="318" y="163" type="line"/>
    </contour>
  </outline>
</glyph>
<glyph name="questiondown" format="2">
  <advance width="306"/>
  <unicode hex="00BF"/>
  <outline>
    <contour>
      <point x="248" y="-58" type="curve"/>
      <point x="239" y="-45" type="line"/>
      <point x="219" y="-47"/>
      <point x="179" y="-57"/>
      <point x="159" y="-66" type="curve"/>
      <point x="168" y="-110"/>
      <point x="152" y="-146"/>
      <point x="121" y="-146" type="curve" smooth="yes"/>
      <point x="91" y="-146"/>
      <point x="76" y="-117"/>
      <point x="76" y="-79" type="curve" smooth="yes"/>
      <point x="76" y="1"/>
      <point x="178" y="48"/>
      <point x="181" y="136" type="curve"/>
      <point x="183" y="179" type="line"/>
      <point x="175" y="187" type="line"/>
      <point x="163" y="183"/>
      <point x="147" y="176"/>
      <point x="138" y="170" type="curve"/>
      <point x="134" y="139" type="line" smooth="yes"/>
      <point x="122" y="47"/>
      <point x="-10" y="17"/>
      <point x="-10" y="-99" type="curve" smooth="yes"/>
      <point x="-10" y="-147"/>
      <point x="24" y="-185"/>
      <point x="88" y="-185" type="curve" smooth="yes"/>
      <point x="184" y="-185"/>
      <point x="248" y="-117"/>
    </contour>
    <contour>
      <point x="119" y="255" type="curve"/>
      <point x="119" y="233"/>
      <point x="133" y="217"/>
      <point x="161" y="217" type="curve" smooth="yes"/>
      <point x="201" y="217"/>
      <point x="226" y="255"/>
      <point x="226" y="284" type="curve" smooth="yes"/>
      <point x="226" y="308"/>
      <point x="213" y="324"/>
      <point x="184" y="324" type="curve" smooth="yes"/>
      <point x="142" y="324"/>
      <point x="119" y="286"/>
    </contour>
  </outline>
</glyph>
